G04 MADE WITH FRITZING*
G04 WWW.FRITZING.ORG*
G04 DOUBLE SIDED*
G04 HOLES PLATED*
G04 CONTOUR ON CENTER OF CONTOUR VECTOR*
%ASAXBY*%
%FSLAX23Y23*%
%MOIN*%
%OFA0B0*%
%SFA1.0B1.0*%
%ADD10C,0.078000*%
%ADD11C,0.079370*%
%ADD12C,0.024000*%
%ADD13R,0.001000X0.001000*%
%LNCOPPER1*%
G90*
G70*
G54D10*
X102Y878D03*
X202Y878D03*
X302Y878D03*
X102Y878D03*
X202Y878D03*
X302Y878D03*
X302Y978D03*
X202Y978D03*
X102Y978D03*
X302Y68D03*
X302Y168D03*
X302Y268D03*
X302Y368D03*
G54D11*
X302Y528D03*
X192Y268D03*
X102Y408D03*
X622Y168D03*
G54D12*
X102Y439D02*
X102Y848D01*
D02*
X193Y299D02*
X202Y848D01*
D02*
X302Y559D02*
X302Y848D01*
D02*
X623Y979D02*
X622Y199D01*
D02*
X333Y978D02*
X623Y979D01*
G54D13*
X412Y1018D02*
X434Y1018D01*
X459Y1018D02*
X472Y1018D01*
X502Y1018D02*
X506Y1018D01*
X534Y1018D02*
X559Y1018D01*
X410Y1017D02*
X435Y1017D01*
X459Y1017D02*
X472Y1017D01*
X500Y1017D02*
X507Y1017D01*
X533Y1017D02*
X561Y1017D01*
X408Y1016D02*
X436Y1016D01*
X459Y1016D02*
X473Y1016D01*
X500Y1016D02*
X508Y1016D01*
X532Y1016D02*
X563Y1016D01*
X407Y1015D02*
X436Y1015D01*
X459Y1015D02*
X473Y1015D01*
X499Y1015D02*
X508Y1015D01*
X532Y1015D02*
X564Y1015D01*
X406Y1014D02*
X436Y1014D01*
X459Y1014D02*
X474Y1014D01*
X499Y1014D02*
X508Y1014D01*
X531Y1014D02*
X565Y1014D01*
X405Y1013D02*
X436Y1013D01*
X459Y1013D02*
X474Y1013D01*
X499Y1013D02*
X508Y1013D01*
X532Y1013D02*
X566Y1013D01*
X404Y1012D02*
X436Y1012D01*
X459Y1012D02*
X475Y1012D01*
X499Y1012D02*
X508Y1012D01*
X532Y1012D02*
X567Y1012D01*
X404Y1011D02*
X435Y1011D01*
X459Y1011D02*
X475Y1011D01*
X499Y1011D02*
X508Y1011D01*
X532Y1011D02*
X567Y1011D01*
X403Y1010D02*
X434Y1010D01*
X459Y1010D02*
X476Y1010D01*
X499Y1010D02*
X508Y1010D01*
X533Y1010D02*
X568Y1010D01*
X402Y1009D02*
X433Y1009D01*
X459Y1009D02*
X476Y1009D01*
X499Y1009D02*
X508Y1009D01*
X535Y1009D02*
X568Y1009D01*
X401Y1008D02*
X414Y1008D01*
X459Y1008D02*
X476Y1008D01*
X499Y1008D02*
X508Y1008D01*
X541Y1008D02*
X550Y1008D01*
X558Y1008D02*
X569Y1008D01*
X401Y1007D02*
X412Y1007D01*
X459Y1007D02*
X477Y1007D01*
X499Y1007D02*
X508Y1007D01*
X541Y1007D02*
X550Y1007D01*
X559Y1007D02*
X569Y1007D01*
X400Y1006D02*
X412Y1006D01*
X459Y1006D02*
X477Y1006D01*
X499Y1006D02*
X508Y1006D01*
X541Y1006D02*
X550Y1006D01*
X559Y1006D02*
X570Y1006D01*
X399Y1005D02*
X411Y1005D01*
X459Y1005D02*
X478Y1005D01*
X499Y1005D02*
X508Y1005D01*
X541Y1005D02*
X550Y1005D01*
X560Y1005D02*
X570Y1005D01*
X398Y1004D02*
X410Y1004D01*
X459Y1004D02*
X478Y1004D01*
X499Y1004D02*
X508Y1004D01*
X541Y1004D02*
X550Y1004D01*
X560Y1004D02*
X571Y1004D01*
X397Y1003D02*
X409Y1003D01*
X459Y1003D02*
X479Y1003D01*
X499Y1003D02*
X508Y1003D01*
X541Y1003D02*
X550Y1003D01*
X561Y1003D02*
X571Y1003D01*
X397Y1002D02*
X409Y1002D01*
X459Y1002D02*
X479Y1002D01*
X499Y1002D02*
X508Y1002D01*
X541Y1002D02*
X550Y1002D01*
X561Y1002D02*
X572Y1002D01*
X396Y1001D02*
X408Y1001D01*
X459Y1001D02*
X480Y1001D01*
X499Y1001D02*
X508Y1001D01*
X541Y1001D02*
X550Y1001D01*
X562Y1001D02*
X572Y1001D01*
X395Y1000D02*
X407Y1000D01*
X459Y1000D02*
X480Y1000D01*
X499Y1000D02*
X508Y1000D01*
X541Y1000D02*
X550Y1000D01*
X562Y1000D02*
X573Y1000D01*
X394Y999D02*
X406Y999D01*
X459Y999D02*
X480Y999D01*
X499Y999D02*
X508Y999D01*
X541Y999D02*
X550Y999D01*
X563Y999D02*
X573Y999D01*
X394Y998D02*
X405Y998D01*
X459Y998D02*
X469Y998D01*
X471Y998D02*
X481Y998D01*
X499Y998D02*
X508Y998D01*
X541Y998D02*
X550Y998D01*
X563Y998D02*
X574Y998D01*
X393Y997D02*
X405Y997D01*
X459Y997D02*
X469Y997D01*
X471Y997D02*
X481Y997D01*
X499Y997D02*
X508Y997D01*
X541Y997D02*
X550Y997D01*
X564Y997D02*
X574Y997D01*
X392Y996D02*
X404Y996D01*
X459Y996D02*
X469Y996D01*
X472Y996D02*
X482Y996D01*
X499Y996D02*
X508Y996D01*
X541Y996D02*
X550Y996D01*
X564Y996D02*
X575Y996D01*
X391Y995D02*
X403Y995D01*
X459Y995D02*
X469Y995D01*
X472Y995D02*
X482Y995D01*
X499Y995D02*
X508Y995D01*
X541Y995D02*
X550Y995D01*
X565Y995D02*
X575Y995D01*
X391Y994D02*
X402Y994D01*
X459Y994D02*
X469Y994D01*
X472Y994D02*
X483Y994D01*
X499Y994D02*
X508Y994D01*
X541Y994D02*
X550Y994D01*
X565Y994D02*
X576Y994D01*
X390Y993D02*
X401Y993D01*
X459Y993D02*
X469Y993D01*
X473Y993D02*
X483Y993D01*
X499Y993D02*
X508Y993D01*
X541Y993D02*
X550Y993D01*
X566Y993D02*
X576Y993D01*
X390Y992D02*
X401Y992D01*
X459Y992D02*
X469Y992D01*
X473Y992D02*
X483Y992D01*
X499Y992D02*
X508Y992D01*
X541Y992D02*
X550Y992D01*
X566Y992D02*
X577Y992D01*
X389Y991D02*
X400Y991D01*
X459Y991D02*
X469Y991D01*
X474Y991D02*
X484Y991D01*
X499Y991D02*
X508Y991D01*
X541Y991D02*
X550Y991D01*
X567Y991D02*
X577Y991D01*
X389Y990D02*
X399Y990D01*
X459Y990D02*
X469Y990D01*
X474Y990D02*
X484Y990D01*
X499Y990D02*
X508Y990D01*
X541Y990D02*
X550Y990D01*
X567Y990D02*
X578Y990D01*
X388Y989D02*
X398Y989D01*
X459Y989D02*
X469Y989D01*
X475Y989D02*
X485Y989D01*
X499Y989D02*
X508Y989D01*
X541Y989D02*
X550Y989D01*
X568Y989D02*
X578Y989D01*
X388Y988D02*
X398Y988D01*
X459Y988D02*
X469Y988D01*
X475Y988D02*
X485Y988D01*
X499Y988D02*
X508Y988D01*
X541Y988D02*
X550Y988D01*
X568Y988D02*
X579Y988D01*
X388Y987D02*
X397Y987D01*
X459Y987D02*
X469Y987D01*
X476Y987D02*
X486Y987D01*
X499Y987D02*
X508Y987D01*
X541Y987D02*
X550Y987D01*
X569Y987D02*
X579Y987D01*
X388Y986D02*
X397Y986D01*
X459Y986D02*
X469Y986D01*
X476Y986D02*
X486Y986D01*
X499Y986D02*
X508Y986D01*
X541Y986D02*
X550Y986D01*
X569Y986D02*
X579Y986D01*
X388Y985D02*
X397Y985D01*
X459Y985D02*
X469Y985D01*
X476Y985D02*
X487Y985D01*
X499Y985D02*
X508Y985D01*
X541Y985D02*
X550Y985D01*
X570Y985D02*
X580Y985D01*
X387Y984D02*
X397Y984D01*
X459Y984D02*
X469Y984D01*
X477Y984D02*
X487Y984D01*
X499Y984D02*
X508Y984D01*
X541Y984D02*
X550Y984D01*
X570Y984D02*
X580Y984D01*
X387Y983D02*
X397Y983D01*
X459Y983D02*
X469Y983D01*
X477Y983D02*
X487Y983D01*
X499Y983D02*
X508Y983D01*
X541Y983D02*
X550Y983D01*
X571Y983D02*
X580Y983D01*
X387Y982D02*
X397Y982D01*
X459Y982D02*
X469Y982D01*
X478Y982D02*
X488Y982D01*
X499Y982D02*
X508Y982D01*
X541Y982D02*
X550Y982D01*
X571Y982D02*
X580Y982D01*
X387Y981D02*
X397Y981D01*
X459Y981D02*
X469Y981D01*
X478Y981D02*
X488Y981D01*
X499Y981D02*
X508Y981D01*
X541Y981D02*
X550Y981D01*
X571Y981D02*
X580Y981D01*
X387Y980D02*
X397Y980D01*
X459Y980D02*
X469Y980D01*
X479Y980D02*
X489Y980D01*
X499Y980D02*
X508Y980D01*
X541Y980D02*
X550Y980D01*
X571Y980D02*
X580Y980D01*
X387Y979D02*
X397Y979D01*
X459Y979D02*
X469Y979D01*
X479Y979D02*
X489Y979D01*
X499Y979D02*
X508Y979D01*
X541Y979D02*
X550Y979D01*
X571Y979D02*
X580Y979D01*
X387Y978D02*
X397Y978D01*
X459Y978D02*
X469Y978D01*
X479Y978D02*
X490Y978D01*
X499Y978D02*
X508Y978D01*
X541Y978D02*
X550Y978D01*
X571Y978D02*
X580Y978D01*
X387Y977D02*
X397Y977D01*
X459Y977D02*
X469Y977D01*
X480Y977D02*
X490Y977D01*
X499Y977D02*
X508Y977D01*
X541Y977D02*
X550Y977D01*
X571Y977D02*
X580Y977D01*
X387Y976D02*
X397Y976D01*
X415Y976D02*
X436Y976D01*
X459Y976D02*
X469Y976D01*
X480Y976D02*
X490Y976D01*
X499Y976D02*
X508Y976D01*
X541Y976D02*
X550Y976D01*
X570Y976D02*
X580Y976D01*
X387Y975D02*
X397Y975D01*
X414Y975D02*
X436Y975D01*
X459Y975D02*
X469Y975D01*
X481Y975D02*
X491Y975D01*
X499Y975D02*
X508Y975D01*
X541Y975D02*
X550Y975D01*
X570Y975D02*
X580Y975D01*
X387Y974D02*
X397Y974D01*
X413Y974D02*
X436Y974D01*
X459Y974D02*
X469Y974D01*
X481Y974D02*
X491Y974D01*
X499Y974D02*
X508Y974D01*
X541Y974D02*
X550Y974D01*
X570Y974D02*
X579Y974D01*
X387Y973D02*
X397Y973D01*
X413Y973D02*
X436Y973D01*
X459Y973D02*
X469Y973D01*
X482Y973D02*
X492Y973D01*
X499Y973D02*
X508Y973D01*
X541Y973D02*
X550Y973D01*
X569Y973D02*
X579Y973D01*
X387Y972D02*
X397Y972D01*
X412Y972D02*
X436Y972D01*
X459Y972D02*
X469Y972D01*
X482Y972D02*
X492Y972D01*
X499Y972D02*
X508Y972D01*
X541Y972D02*
X550Y972D01*
X569Y972D02*
X579Y972D01*
X387Y971D02*
X397Y971D01*
X412Y971D02*
X436Y971D01*
X459Y971D02*
X469Y971D01*
X483Y971D02*
X493Y971D01*
X499Y971D02*
X508Y971D01*
X541Y971D02*
X550Y971D01*
X568Y971D02*
X578Y971D01*
X387Y970D02*
X397Y970D01*
X412Y970D02*
X436Y970D01*
X459Y970D02*
X469Y970D01*
X483Y970D02*
X493Y970D01*
X499Y970D02*
X508Y970D01*
X541Y970D02*
X550Y970D01*
X568Y970D02*
X578Y970D01*
X387Y969D02*
X397Y969D01*
X413Y969D02*
X436Y969D01*
X459Y969D02*
X469Y969D01*
X483Y969D02*
X494Y969D01*
X499Y969D02*
X508Y969D01*
X541Y969D02*
X550Y969D01*
X567Y969D02*
X577Y969D01*
X387Y968D02*
X397Y968D01*
X414Y968D02*
X436Y968D01*
X459Y968D02*
X469Y968D01*
X484Y968D02*
X494Y968D01*
X499Y968D02*
X508Y968D01*
X541Y968D02*
X550Y968D01*
X567Y968D02*
X577Y968D01*
X387Y967D02*
X397Y967D01*
X415Y967D02*
X436Y967D01*
X459Y967D02*
X469Y967D01*
X484Y967D02*
X494Y967D01*
X499Y967D02*
X508Y967D01*
X541Y967D02*
X550Y967D01*
X566Y967D02*
X576Y967D01*
X387Y966D02*
X397Y966D01*
X427Y966D02*
X436Y966D01*
X459Y966D02*
X469Y966D01*
X485Y966D02*
X495Y966D01*
X499Y966D02*
X508Y966D01*
X541Y966D02*
X550Y966D01*
X566Y966D02*
X576Y966D01*
X387Y965D02*
X397Y965D01*
X427Y965D02*
X436Y965D01*
X459Y965D02*
X469Y965D01*
X485Y965D02*
X495Y965D01*
X499Y965D02*
X508Y965D01*
X541Y965D02*
X550Y965D01*
X565Y965D02*
X575Y965D01*
X387Y964D02*
X397Y964D01*
X427Y964D02*
X436Y964D01*
X459Y964D02*
X469Y964D01*
X486Y964D02*
X496Y964D01*
X499Y964D02*
X508Y964D01*
X541Y964D02*
X550Y964D01*
X565Y964D02*
X575Y964D01*
X387Y963D02*
X397Y963D01*
X427Y963D02*
X436Y963D01*
X459Y963D02*
X469Y963D01*
X486Y963D02*
X496Y963D01*
X499Y963D02*
X508Y963D01*
X541Y963D02*
X550Y963D01*
X564Y963D02*
X574Y963D01*
X387Y962D02*
X397Y962D01*
X427Y962D02*
X436Y962D01*
X459Y962D02*
X469Y962D01*
X487Y962D02*
X497Y962D01*
X499Y962D02*
X508Y962D01*
X541Y962D02*
X550Y962D01*
X564Y962D02*
X574Y962D01*
X387Y961D02*
X397Y961D01*
X427Y961D02*
X436Y961D01*
X459Y961D02*
X469Y961D01*
X487Y961D02*
X497Y961D01*
X499Y961D02*
X508Y961D01*
X541Y961D02*
X550Y961D01*
X563Y961D02*
X573Y961D01*
X387Y960D02*
X397Y960D01*
X427Y960D02*
X436Y960D01*
X459Y960D02*
X469Y960D01*
X487Y960D02*
X497Y960D01*
X499Y960D02*
X508Y960D01*
X541Y960D02*
X550Y960D01*
X563Y960D02*
X573Y960D01*
X387Y959D02*
X397Y959D01*
X427Y959D02*
X436Y959D01*
X459Y959D02*
X469Y959D01*
X488Y959D02*
X508Y959D01*
X541Y959D02*
X550Y959D01*
X562Y959D02*
X572Y959D01*
X387Y958D02*
X397Y958D01*
X427Y958D02*
X436Y958D01*
X459Y958D02*
X469Y958D01*
X488Y958D02*
X508Y958D01*
X541Y958D02*
X550Y958D01*
X562Y958D02*
X572Y958D01*
X387Y957D02*
X397Y957D01*
X427Y957D02*
X436Y957D01*
X459Y957D02*
X469Y957D01*
X489Y957D02*
X508Y957D01*
X541Y957D02*
X550Y957D01*
X561Y957D02*
X571Y957D01*
X387Y956D02*
X397Y956D01*
X427Y956D02*
X436Y956D01*
X459Y956D02*
X469Y956D01*
X489Y956D02*
X508Y956D01*
X541Y956D02*
X550Y956D01*
X561Y956D02*
X571Y956D01*
X388Y955D02*
X397Y955D01*
X427Y955D02*
X436Y955D01*
X459Y955D02*
X469Y955D01*
X490Y955D02*
X508Y955D01*
X541Y955D02*
X550Y955D01*
X560Y955D02*
X570Y955D01*
X388Y954D02*
X397Y954D01*
X427Y954D02*
X436Y954D01*
X459Y954D02*
X469Y954D01*
X490Y954D02*
X508Y954D01*
X541Y954D02*
X550Y954D01*
X560Y954D02*
X570Y954D01*
X388Y953D02*
X398Y953D01*
X426Y953D02*
X436Y953D01*
X459Y953D02*
X469Y953D01*
X490Y953D02*
X508Y953D01*
X541Y953D02*
X550Y953D01*
X559Y953D02*
X570Y953D01*
X388Y952D02*
X399Y952D01*
X425Y952D02*
X436Y952D01*
X459Y952D02*
X469Y952D01*
X491Y952D02*
X508Y952D01*
X541Y952D02*
X550Y952D01*
X558Y952D02*
X569Y952D01*
X388Y951D02*
X401Y951D01*
X422Y951D02*
X435Y951D01*
X459Y951D02*
X469Y951D01*
X491Y951D02*
X508Y951D01*
X541Y951D02*
X551Y951D01*
X556Y951D02*
X569Y951D01*
X389Y950D02*
X435Y950D01*
X459Y950D02*
X469Y950D01*
X492Y950D02*
X508Y950D01*
X534Y950D02*
X568Y950D01*
X389Y949D02*
X434Y949D01*
X459Y949D02*
X469Y949D01*
X492Y949D02*
X508Y949D01*
X533Y949D02*
X568Y949D01*
X390Y948D02*
X434Y948D01*
X459Y948D02*
X469Y948D01*
X493Y948D02*
X508Y948D01*
X532Y948D02*
X567Y948D01*
X390Y947D02*
X433Y947D01*
X459Y947D02*
X469Y947D01*
X493Y947D02*
X508Y947D01*
X532Y947D02*
X566Y947D01*
X391Y946D02*
X432Y946D01*
X459Y946D02*
X468Y946D01*
X494Y946D02*
X508Y946D01*
X531Y946D02*
X566Y946D01*
X392Y945D02*
X431Y945D01*
X460Y945D02*
X468Y945D01*
X494Y945D02*
X508Y945D01*
X532Y945D02*
X565Y945D01*
X393Y944D02*
X430Y944D01*
X460Y944D02*
X468Y944D01*
X494Y944D02*
X508Y944D01*
X532Y944D02*
X563Y944D01*
X395Y943D02*
X429Y943D01*
X460Y943D02*
X467Y943D01*
X495Y943D02*
X508Y943D01*
X532Y943D02*
X562Y943D01*
X397Y942D02*
X427Y942D01*
X461Y942D02*
X467Y942D01*
X495Y942D02*
X508Y942D01*
X533Y942D02*
X560Y942D01*
X400Y941D02*
X423Y941D01*
X463Y941D02*
X464Y941D01*
X496Y941D02*
X508Y941D01*
X535Y941D02*
X556Y941D01*
X491Y894D02*
X494Y894D01*
X490Y893D02*
X496Y893D01*
X489Y892D02*
X496Y892D01*
X488Y891D02*
X497Y891D01*
X488Y890D02*
X497Y890D01*
X488Y889D02*
X497Y889D01*
X488Y888D02*
X497Y888D01*
X488Y887D02*
X497Y887D01*
X488Y886D02*
X497Y886D01*
X488Y885D02*
X497Y885D01*
X488Y884D02*
X497Y884D01*
X488Y883D02*
X497Y883D01*
X488Y882D02*
X497Y882D01*
X488Y881D02*
X497Y881D01*
X488Y880D02*
X497Y880D01*
X612Y880D02*
X630Y880D01*
X647Y880D02*
X651Y880D01*
X419Y879D02*
X427Y879D01*
X444Y879D02*
X497Y879D01*
X609Y879D02*
X631Y879D01*
X646Y879D02*
X652Y879D01*
X417Y878D02*
X428Y878D01*
X443Y878D02*
X497Y878D01*
X607Y878D02*
X632Y878D01*
X645Y878D02*
X653Y878D01*
X417Y877D02*
X429Y877D01*
X442Y877D02*
X497Y877D01*
X606Y877D02*
X632Y877D01*
X645Y877D02*
X653Y877D01*
X416Y876D02*
X429Y876D01*
X442Y876D02*
X497Y876D01*
X605Y876D02*
X632Y876D01*
X645Y876D02*
X653Y876D01*
X416Y875D02*
X429Y875D01*
X441Y875D02*
X497Y875D01*
X604Y875D02*
X632Y875D01*
X644Y875D02*
X654Y875D01*
X416Y874D02*
X429Y874D01*
X441Y874D02*
X497Y874D01*
X603Y874D02*
X632Y874D01*
X644Y874D02*
X654Y874D01*
X416Y873D02*
X429Y873D01*
X441Y873D02*
X497Y873D01*
X602Y873D02*
X632Y873D01*
X644Y873D02*
X654Y873D01*
X416Y872D02*
X429Y872D01*
X441Y872D02*
X497Y872D01*
X602Y872D02*
X632Y872D01*
X644Y872D02*
X654Y872D01*
X416Y871D02*
X429Y871D01*
X441Y871D02*
X497Y871D01*
X601Y871D02*
X632Y871D01*
X644Y871D02*
X654Y871D01*
X416Y870D02*
X429Y870D01*
X441Y870D02*
X497Y870D01*
X600Y870D02*
X613Y870D01*
X623Y870D02*
X632Y870D01*
X644Y870D02*
X654Y870D01*
X416Y869D02*
X429Y869D01*
X441Y869D02*
X450Y869D01*
X488Y869D02*
X497Y869D01*
X600Y869D02*
X611Y869D01*
X623Y869D02*
X632Y869D01*
X644Y869D02*
X654Y869D01*
X416Y868D02*
X429Y868D01*
X441Y868D02*
X450Y868D01*
X488Y868D02*
X497Y868D01*
X599Y868D02*
X610Y868D01*
X623Y868D02*
X632Y868D01*
X644Y868D02*
X654Y868D01*
X417Y867D02*
X428Y867D01*
X441Y867D02*
X450Y867D01*
X488Y867D02*
X497Y867D01*
X599Y867D02*
X609Y867D01*
X623Y867D02*
X632Y867D01*
X644Y867D02*
X654Y867D01*
X418Y866D02*
X428Y866D01*
X441Y866D02*
X450Y866D01*
X488Y866D02*
X497Y866D01*
X598Y866D02*
X608Y866D01*
X623Y866D02*
X632Y866D01*
X644Y866D02*
X654Y866D01*
X419Y865D02*
X426Y865D01*
X441Y865D02*
X450Y865D01*
X488Y865D02*
X497Y865D01*
X598Y865D02*
X608Y865D01*
X623Y865D02*
X632Y865D01*
X644Y865D02*
X654Y865D01*
X441Y864D02*
X450Y864D01*
X488Y864D02*
X497Y864D01*
X598Y864D02*
X607Y864D01*
X623Y864D02*
X632Y864D01*
X644Y864D02*
X654Y864D01*
X441Y863D02*
X450Y863D01*
X488Y863D02*
X497Y863D01*
X598Y863D02*
X607Y863D01*
X623Y863D02*
X632Y863D01*
X644Y863D02*
X654Y863D01*
X441Y862D02*
X450Y862D01*
X488Y862D02*
X497Y862D01*
X598Y862D02*
X607Y862D01*
X623Y862D02*
X632Y862D01*
X644Y862D02*
X654Y862D01*
X441Y861D02*
X450Y861D01*
X488Y861D02*
X497Y861D01*
X598Y861D02*
X607Y861D01*
X623Y861D02*
X632Y861D01*
X644Y861D02*
X654Y861D01*
X441Y860D02*
X450Y860D01*
X488Y860D02*
X497Y860D01*
X598Y860D02*
X607Y860D01*
X623Y860D02*
X632Y860D01*
X644Y860D02*
X654Y860D01*
X442Y859D02*
X450Y859D01*
X488Y859D02*
X497Y859D01*
X598Y859D02*
X607Y859D01*
X623Y859D02*
X632Y859D01*
X644Y859D02*
X654Y859D01*
X442Y858D02*
X450Y858D01*
X488Y858D02*
X497Y858D01*
X598Y858D02*
X607Y858D01*
X623Y858D02*
X632Y858D01*
X644Y858D02*
X654Y858D01*
X442Y857D02*
X450Y857D01*
X489Y857D02*
X496Y857D01*
X598Y857D02*
X607Y857D01*
X623Y857D02*
X632Y857D01*
X644Y857D02*
X654Y857D01*
X443Y856D02*
X449Y856D01*
X490Y856D02*
X495Y856D01*
X598Y856D02*
X607Y856D01*
X623Y856D02*
X632Y856D01*
X644Y856D02*
X654Y856D01*
X445Y855D02*
X447Y855D01*
X492Y855D02*
X494Y855D01*
X598Y855D02*
X607Y855D01*
X623Y855D02*
X632Y855D01*
X644Y855D02*
X654Y855D01*
X598Y854D02*
X607Y854D01*
X623Y854D02*
X632Y854D01*
X644Y854D02*
X654Y854D01*
X598Y853D02*
X607Y853D01*
X623Y853D02*
X632Y853D01*
X644Y853D02*
X654Y853D01*
X598Y852D02*
X607Y852D01*
X623Y852D02*
X632Y852D01*
X644Y852D02*
X654Y852D01*
X598Y851D02*
X607Y851D01*
X623Y851D02*
X632Y851D01*
X644Y851D02*
X654Y851D01*
X598Y850D02*
X607Y850D01*
X623Y850D02*
X632Y850D01*
X644Y850D02*
X654Y850D01*
X598Y849D02*
X607Y849D01*
X623Y849D02*
X632Y849D01*
X644Y849D02*
X654Y849D01*
X598Y848D02*
X607Y848D01*
X623Y848D02*
X632Y848D01*
X644Y848D02*
X653Y848D01*
X598Y847D02*
X607Y847D01*
X623Y847D02*
X632Y847D01*
X644Y847D02*
X653Y847D01*
X598Y846D02*
X608Y846D01*
X623Y846D02*
X632Y846D01*
X643Y846D02*
X653Y846D01*
X598Y845D02*
X609Y845D01*
X623Y845D02*
X632Y845D01*
X642Y845D02*
X653Y845D01*
X599Y844D02*
X610Y844D01*
X623Y844D02*
X632Y844D01*
X641Y844D02*
X653Y844D01*
X599Y843D02*
X611Y843D01*
X623Y843D02*
X632Y843D01*
X641Y843D02*
X652Y843D01*
X600Y842D02*
X612Y842D01*
X623Y842D02*
X632Y842D01*
X639Y842D02*
X652Y842D01*
X600Y841D02*
X614Y841D01*
X623Y841D02*
X633Y841D01*
X637Y841D02*
X651Y841D01*
X601Y840D02*
X650Y840D01*
X602Y839D02*
X649Y839D01*
X603Y838D02*
X649Y838D01*
X604Y837D02*
X648Y837D01*
X605Y836D02*
X647Y836D01*
X606Y835D02*
X646Y835D01*
X607Y834D02*
X645Y834D01*
X608Y833D02*
X643Y833D01*
X610Y832D02*
X642Y832D01*
X614Y831D02*
X637Y831D01*
X431Y827D02*
X456Y827D01*
X429Y826D02*
X459Y826D01*
X427Y825D02*
X461Y825D01*
X426Y824D02*
X462Y824D01*
X425Y823D02*
X463Y823D01*
X424Y822D02*
X464Y822D01*
X423Y821D02*
X465Y821D01*
X422Y820D02*
X465Y820D01*
X422Y819D02*
X466Y819D01*
X421Y818D02*
X466Y818D01*
X421Y817D02*
X432Y817D01*
X455Y817D02*
X467Y817D01*
X421Y816D02*
X431Y816D01*
X457Y816D02*
X467Y816D01*
X420Y815D02*
X430Y815D01*
X457Y815D02*
X467Y815D01*
X420Y814D02*
X430Y814D01*
X458Y814D02*
X467Y814D01*
X420Y813D02*
X429Y813D01*
X458Y813D02*
X467Y813D01*
X420Y812D02*
X429Y812D01*
X458Y812D02*
X467Y812D01*
X420Y811D02*
X429Y811D01*
X458Y811D02*
X467Y811D01*
X420Y810D02*
X429Y810D01*
X458Y810D02*
X467Y810D01*
X420Y809D02*
X429Y809D01*
X458Y809D02*
X467Y809D01*
X641Y809D02*
X650Y809D01*
X420Y808D02*
X429Y808D01*
X458Y808D02*
X467Y808D01*
X614Y808D02*
X652Y808D01*
X420Y807D02*
X429Y807D01*
X458Y807D02*
X467Y807D01*
X605Y807D02*
X653Y807D01*
X420Y806D02*
X429Y806D01*
X458Y806D02*
X467Y806D01*
X604Y806D02*
X653Y806D01*
X420Y805D02*
X429Y805D01*
X458Y805D02*
X467Y805D01*
X602Y805D02*
X653Y805D01*
X420Y804D02*
X429Y804D01*
X458Y804D02*
X467Y804D01*
X601Y804D02*
X653Y804D01*
X420Y803D02*
X429Y803D01*
X458Y803D02*
X467Y803D01*
X600Y803D02*
X653Y803D01*
X420Y802D02*
X429Y802D01*
X458Y802D02*
X467Y802D01*
X600Y802D02*
X653Y802D01*
X420Y801D02*
X429Y801D01*
X458Y801D02*
X467Y801D01*
X599Y801D02*
X652Y801D01*
X343Y800D02*
X343Y800D01*
X420Y800D02*
X429Y800D01*
X458Y800D02*
X467Y800D01*
X599Y800D02*
X651Y800D01*
X341Y799D02*
X345Y799D01*
X420Y799D02*
X429Y799D01*
X458Y799D02*
X467Y799D01*
X599Y799D02*
X643Y799D01*
X340Y798D02*
X346Y798D01*
X420Y798D02*
X429Y798D01*
X458Y798D02*
X467Y798D01*
X598Y798D02*
X614Y798D01*
X237Y797D02*
X242Y797D01*
X339Y797D02*
X347Y797D01*
X420Y797D02*
X429Y797D01*
X458Y797D02*
X467Y797D01*
X598Y797D02*
X607Y797D01*
X234Y796D02*
X243Y796D01*
X339Y796D02*
X347Y796D01*
X420Y796D02*
X429Y796D01*
X458Y796D02*
X467Y796D01*
X598Y796D02*
X607Y796D01*
X63Y795D02*
X90Y795D01*
X101Y795D02*
X128Y795D01*
X230Y795D02*
X244Y795D01*
X338Y795D02*
X348Y795D01*
X420Y795D02*
X429Y795D01*
X458Y795D02*
X467Y795D01*
X598Y795D02*
X607Y795D01*
X61Y794D02*
X92Y794D01*
X99Y794D02*
X130Y794D01*
X227Y794D02*
X244Y794D01*
X338Y794D02*
X348Y794D01*
X420Y794D02*
X429Y794D01*
X458Y794D02*
X467Y794D01*
X598Y794D02*
X608Y794D01*
X60Y793D02*
X94Y793D01*
X97Y793D02*
X131Y793D01*
X224Y793D02*
X244Y793D01*
X338Y793D02*
X348Y793D01*
X420Y793D02*
X429Y793D01*
X458Y793D02*
X467Y793D01*
X598Y793D02*
X609Y793D01*
X59Y792D02*
X132Y792D01*
X220Y792D02*
X244Y792D01*
X338Y792D02*
X348Y792D01*
X420Y792D02*
X429Y792D01*
X458Y792D02*
X467Y792D01*
X599Y792D02*
X610Y792D01*
X58Y791D02*
X132Y791D01*
X217Y791D02*
X244Y791D01*
X338Y791D02*
X348Y791D01*
X420Y791D02*
X429Y791D01*
X458Y791D02*
X467Y791D01*
X599Y791D02*
X611Y791D01*
X58Y790D02*
X133Y790D01*
X213Y790D02*
X244Y790D01*
X338Y790D02*
X348Y790D01*
X420Y790D02*
X429Y790D01*
X458Y790D02*
X467Y790D01*
X600Y790D02*
X612Y790D01*
X57Y789D02*
X133Y789D01*
X210Y789D02*
X243Y789D01*
X338Y789D02*
X348Y789D01*
X420Y789D02*
X429Y789D01*
X458Y789D02*
X467Y789D01*
X600Y789D02*
X612Y789D01*
X57Y788D02*
X134Y788D01*
X206Y788D02*
X241Y788D01*
X338Y788D02*
X348Y788D01*
X420Y788D02*
X430Y788D01*
X458Y788D02*
X468Y788D01*
X601Y788D02*
X651Y788D01*
X57Y787D02*
X134Y787D01*
X203Y787D02*
X238Y787D01*
X338Y787D02*
X348Y787D01*
X420Y787D02*
X495Y787D01*
X602Y787D02*
X652Y787D01*
X57Y786D02*
X134Y786D01*
X200Y786D02*
X234Y786D01*
X338Y786D02*
X348Y786D01*
X420Y786D02*
X496Y786D01*
X602Y786D02*
X653Y786D01*
X57Y785D02*
X66Y785D01*
X88Y785D02*
X102Y785D01*
X125Y785D02*
X134Y785D01*
X196Y785D02*
X231Y785D01*
X338Y785D02*
X348Y785D01*
X420Y785D02*
X497Y785D01*
X601Y785D02*
X653Y785D01*
X57Y784D02*
X66Y784D01*
X89Y784D02*
X101Y784D01*
X125Y784D02*
X134Y784D01*
X193Y784D02*
X228Y784D01*
X338Y784D02*
X348Y784D01*
X420Y784D02*
X497Y784D01*
X600Y784D02*
X653Y784D01*
X57Y783D02*
X66Y783D01*
X90Y783D02*
X100Y783D01*
X125Y783D02*
X134Y783D01*
X189Y783D02*
X227Y783D01*
X338Y783D02*
X348Y783D01*
X420Y783D02*
X497Y783D01*
X600Y783D02*
X653Y783D01*
X57Y782D02*
X66Y782D01*
X91Y782D02*
X100Y782D01*
X125Y782D02*
X134Y782D01*
X186Y782D02*
X227Y782D01*
X338Y782D02*
X348Y782D01*
X420Y782D02*
X497Y782D01*
X599Y782D02*
X653Y782D01*
X57Y781D02*
X66Y781D01*
X91Y781D02*
X100Y781D01*
X125Y781D02*
X134Y781D01*
X182Y781D02*
X227Y781D01*
X338Y781D02*
X348Y781D01*
X420Y781D02*
X497Y781D01*
X599Y781D02*
X653Y781D01*
X57Y780D02*
X66Y780D01*
X91Y780D02*
X100Y780D01*
X125Y780D02*
X134Y780D01*
X179Y780D02*
X214Y780D01*
X218Y780D02*
X227Y780D01*
X338Y780D02*
X348Y780D01*
X420Y780D02*
X496Y780D01*
X598Y780D02*
X652Y780D01*
X57Y779D02*
X66Y779D01*
X91Y779D02*
X100Y779D01*
X125Y779D02*
X134Y779D01*
X176Y779D02*
X211Y779D01*
X218Y779D02*
X227Y779D01*
X338Y779D02*
X348Y779D01*
X420Y779D02*
X495Y779D01*
X598Y779D02*
X650Y779D01*
X57Y778D02*
X66Y778D01*
X91Y778D02*
X100Y778D01*
X125Y778D02*
X134Y778D01*
X172Y778D02*
X207Y778D01*
X218Y778D02*
X227Y778D01*
X338Y778D02*
X348Y778D01*
X420Y778D02*
X493Y778D01*
X598Y778D02*
X607Y778D01*
X57Y777D02*
X66Y777D01*
X91Y777D02*
X100Y777D01*
X125Y777D02*
X134Y777D01*
X170Y777D02*
X204Y777D01*
X218Y777D02*
X227Y777D01*
X338Y777D02*
X348Y777D01*
X598Y777D02*
X607Y777D01*
X57Y776D02*
X66Y776D01*
X91Y776D02*
X100Y776D01*
X125Y776D02*
X134Y776D01*
X169Y776D02*
X200Y776D01*
X218Y776D02*
X227Y776D01*
X338Y776D02*
X348Y776D01*
X598Y776D02*
X607Y776D01*
X57Y775D02*
X66Y775D01*
X91Y775D02*
X100Y775D01*
X125Y775D02*
X134Y775D01*
X168Y775D02*
X197Y775D01*
X218Y775D02*
X227Y775D01*
X338Y775D02*
X348Y775D01*
X598Y775D02*
X607Y775D01*
X57Y774D02*
X66Y774D01*
X91Y774D02*
X100Y774D01*
X125Y774D02*
X134Y774D01*
X168Y774D02*
X194Y774D01*
X218Y774D02*
X227Y774D01*
X338Y774D02*
X348Y774D01*
X598Y774D02*
X608Y774D01*
X57Y773D02*
X66Y773D01*
X91Y773D02*
X100Y773D01*
X125Y773D02*
X134Y773D01*
X167Y773D02*
X190Y773D01*
X218Y773D02*
X227Y773D01*
X338Y773D02*
X348Y773D01*
X598Y773D02*
X609Y773D01*
X57Y772D02*
X66Y772D01*
X91Y772D02*
X100Y772D01*
X125Y772D02*
X134Y772D01*
X168Y772D02*
X192Y772D01*
X218Y772D02*
X227Y772D01*
X338Y772D02*
X348Y772D01*
X599Y772D02*
X610Y772D01*
X57Y771D02*
X66Y771D01*
X91Y771D02*
X100Y771D01*
X125Y771D02*
X134Y771D01*
X168Y771D02*
X196Y771D01*
X218Y771D02*
X227Y771D01*
X338Y771D02*
X348Y771D01*
X599Y771D02*
X611Y771D01*
X57Y770D02*
X66Y770D01*
X91Y770D02*
X100Y770D01*
X125Y770D02*
X134Y770D01*
X168Y770D02*
X199Y770D01*
X218Y770D02*
X227Y770D01*
X338Y770D02*
X348Y770D01*
X600Y770D02*
X612Y770D01*
X57Y769D02*
X66Y769D01*
X91Y769D02*
X100Y769D01*
X125Y769D02*
X134Y769D01*
X169Y769D02*
X202Y769D01*
X218Y769D02*
X227Y769D01*
X338Y769D02*
X348Y769D01*
X600Y769D02*
X613Y769D01*
X57Y768D02*
X66Y768D01*
X91Y768D02*
X100Y768D01*
X125Y768D02*
X134Y768D01*
X171Y768D02*
X206Y768D01*
X218Y768D02*
X227Y768D01*
X338Y768D02*
X348Y768D01*
X601Y768D02*
X649Y768D01*
X57Y767D02*
X66Y767D01*
X91Y767D02*
X100Y767D01*
X125Y767D02*
X134Y767D01*
X174Y767D02*
X209Y767D01*
X218Y767D02*
X227Y767D01*
X338Y767D02*
X348Y767D01*
X600Y767D02*
X651Y767D01*
X57Y766D02*
X66Y766D01*
X91Y766D02*
X100Y766D01*
X125Y766D02*
X134Y766D01*
X178Y766D02*
X213Y766D01*
X218Y766D02*
X227Y766D01*
X338Y766D02*
X348Y766D01*
X599Y766D02*
X652Y766D01*
X57Y765D02*
X66Y765D01*
X91Y765D02*
X100Y765D01*
X125Y765D02*
X134Y765D01*
X181Y765D02*
X216Y765D01*
X218Y765D02*
X227Y765D01*
X338Y765D02*
X348Y765D01*
X598Y765D02*
X653Y765D01*
X57Y764D02*
X66Y764D01*
X91Y764D02*
X100Y764D01*
X125Y764D02*
X134Y764D01*
X185Y764D02*
X227Y764D01*
X338Y764D02*
X348Y764D01*
X598Y764D02*
X653Y764D01*
X57Y763D02*
X66Y763D01*
X91Y763D02*
X100Y763D01*
X125Y763D02*
X134Y763D01*
X188Y763D02*
X227Y763D01*
X338Y763D02*
X348Y763D01*
X598Y763D02*
X653Y763D01*
X57Y762D02*
X66Y762D01*
X91Y762D02*
X100Y762D01*
X125Y762D02*
X134Y762D01*
X191Y762D02*
X227Y762D01*
X338Y762D02*
X348Y762D01*
X598Y762D02*
X653Y762D01*
X57Y761D02*
X66Y761D01*
X91Y761D02*
X100Y761D01*
X125Y761D02*
X134Y761D01*
X195Y761D02*
X230Y761D01*
X338Y761D02*
X348Y761D01*
X598Y761D02*
X653Y761D01*
X57Y760D02*
X66Y760D01*
X91Y760D02*
X100Y760D01*
X125Y760D02*
X134Y760D01*
X198Y760D02*
X233Y760D01*
X274Y760D02*
X348Y760D01*
X599Y760D02*
X652Y760D01*
X57Y759D02*
X66Y759D01*
X91Y759D02*
X99Y759D01*
X125Y759D02*
X134Y759D01*
X202Y759D02*
X237Y759D01*
X272Y759D02*
X348Y759D01*
X600Y759D02*
X651Y759D01*
X57Y758D02*
X66Y758D01*
X92Y758D02*
X99Y758D01*
X125Y758D02*
X134Y758D01*
X205Y758D02*
X240Y758D01*
X271Y758D02*
X348Y758D01*
X57Y757D02*
X66Y757D01*
X93Y757D02*
X98Y757D01*
X125Y757D02*
X134Y757D01*
X208Y757D02*
X242Y757D01*
X271Y757D02*
X348Y757D01*
X57Y756D02*
X66Y756D01*
X125Y756D02*
X134Y756D01*
X212Y756D02*
X243Y756D01*
X271Y756D02*
X348Y756D01*
X57Y755D02*
X66Y755D01*
X125Y755D02*
X134Y755D01*
X215Y755D02*
X244Y755D01*
X271Y755D02*
X348Y755D01*
X431Y755D02*
X444Y755D01*
X491Y755D02*
X494Y755D01*
X57Y754D02*
X66Y754D01*
X125Y754D02*
X134Y754D01*
X219Y754D02*
X244Y754D01*
X271Y754D02*
X348Y754D01*
X429Y754D02*
X446Y754D01*
X489Y754D02*
X496Y754D01*
X57Y753D02*
X66Y753D01*
X125Y753D02*
X134Y753D01*
X222Y753D02*
X244Y753D01*
X271Y753D02*
X348Y753D01*
X427Y753D02*
X448Y753D01*
X487Y753D02*
X496Y753D01*
X57Y752D02*
X66Y752D01*
X125Y752D02*
X134Y752D01*
X226Y752D02*
X244Y752D01*
X272Y752D02*
X348Y752D01*
X426Y752D02*
X449Y752D01*
X486Y752D02*
X497Y752D01*
X57Y751D02*
X66Y751D01*
X125Y751D02*
X134Y751D01*
X229Y751D02*
X244Y751D01*
X273Y751D02*
X348Y751D01*
X425Y751D02*
X450Y751D01*
X484Y751D02*
X497Y751D01*
X57Y750D02*
X66Y750D01*
X125Y750D02*
X134Y750D01*
X232Y750D02*
X243Y750D01*
X424Y750D02*
X451Y750D01*
X482Y750D02*
X497Y750D01*
X57Y749D02*
X65Y749D01*
X125Y749D02*
X133Y749D01*
X236Y749D02*
X243Y749D01*
X423Y749D02*
X452Y749D01*
X480Y749D02*
X497Y749D01*
X58Y748D02*
X65Y748D01*
X126Y748D02*
X133Y748D01*
X239Y748D02*
X241Y748D01*
X422Y748D02*
X453Y748D01*
X479Y748D02*
X496Y748D01*
X59Y747D02*
X64Y747D01*
X127Y747D02*
X131Y747D01*
X422Y747D02*
X453Y747D01*
X477Y747D02*
X496Y747D01*
X421Y746D02*
X454Y746D01*
X475Y746D02*
X494Y746D01*
X421Y745D02*
X432Y745D01*
X443Y745D02*
X454Y745D01*
X474Y745D02*
X493Y745D01*
X421Y744D02*
X431Y744D01*
X444Y744D02*
X454Y744D01*
X472Y744D02*
X491Y744D01*
X420Y743D02*
X430Y743D01*
X445Y743D02*
X455Y743D01*
X470Y743D02*
X489Y743D01*
X420Y742D02*
X430Y742D01*
X445Y742D02*
X455Y742D01*
X468Y742D02*
X488Y742D01*
X420Y741D02*
X429Y741D01*
X446Y741D02*
X455Y741D01*
X467Y741D02*
X486Y741D01*
X420Y740D02*
X429Y740D01*
X446Y740D02*
X455Y740D01*
X465Y740D02*
X484Y740D01*
X420Y739D02*
X429Y739D01*
X446Y739D02*
X455Y739D01*
X463Y739D02*
X482Y739D01*
X420Y738D02*
X429Y738D01*
X446Y738D02*
X455Y738D01*
X462Y738D02*
X481Y738D01*
X420Y737D02*
X429Y737D01*
X446Y737D02*
X455Y737D01*
X460Y737D02*
X479Y737D01*
X420Y736D02*
X429Y736D01*
X446Y736D02*
X455Y736D01*
X458Y736D02*
X477Y736D01*
X632Y736D02*
X651Y736D01*
X420Y735D02*
X429Y735D01*
X446Y735D02*
X476Y735D01*
X610Y735D02*
X652Y735D01*
X420Y734D02*
X429Y734D01*
X446Y734D02*
X474Y734D01*
X607Y734D02*
X653Y734D01*
X420Y733D02*
X429Y733D01*
X446Y733D02*
X472Y733D01*
X605Y733D02*
X653Y733D01*
X420Y732D02*
X429Y732D01*
X446Y732D02*
X470Y732D01*
X603Y732D02*
X653Y732D01*
X420Y731D02*
X429Y731D01*
X446Y731D02*
X469Y731D01*
X602Y731D02*
X653Y731D01*
X420Y730D02*
X429Y730D01*
X446Y730D02*
X467Y730D01*
X601Y730D02*
X653Y730D01*
X420Y729D02*
X429Y729D01*
X446Y729D02*
X465Y729D01*
X601Y729D02*
X653Y729D01*
X275Y728D02*
X275Y728D01*
X343Y728D02*
X343Y728D01*
X420Y728D02*
X429Y728D01*
X446Y728D02*
X464Y728D01*
X600Y728D02*
X652Y728D01*
X273Y727D02*
X278Y727D01*
X341Y727D02*
X345Y727D01*
X420Y727D02*
X429Y727D01*
X446Y727D02*
X462Y727D01*
X599Y727D02*
X651Y727D01*
X272Y726D02*
X279Y726D01*
X340Y726D02*
X346Y726D01*
X420Y726D02*
X429Y726D01*
X446Y726D02*
X460Y726D01*
X599Y726D02*
X649Y726D01*
X201Y725D02*
X211Y725D01*
X271Y725D02*
X279Y725D01*
X339Y725D02*
X347Y725D01*
X420Y725D02*
X429Y725D01*
X446Y725D02*
X459Y725D01*
X599Y725D02*
X611Y725D01*
X619Y725D02*
X630Y725D01*
X639Y725D02*
X649Y725D01*
X198Y724D02*
X214Y724D01*
X271Y724D02*
X279Y724D01*
X339Y724D02*
X347Y724D01*
X420Y724D02*
X429Y724D01*
X446Y724D02*
X457Y724D01*
X598Y724D02*
X609Y724D01*
X619Y724D02*
X629Y724D01*
X639Y724D02*
X650Y724D01*
X80Y723D02*
X94Y723D01*
X196Y723D02*
X216Y723D01*
X271Y723D02*
X280Y723D01*
X338Y723D02*
X348Y723D01*
X420Y723D02*
X429Y723D01*
X446Y723D02*
X455Y723D01*
X598Y723D02*
X608Y723D01*
X619Y723D02*
X629Y723D01*
X640Y723D02*
X651Y723D01*
X79Y722D02*
X96Y722D01*
X194Y722D02*
X218Y722D01*
X271Y722D02*
X280Y722D01*
X338Y722D02*
X348Y722D01*
X420Y722D02*
X429Y722D01*
X446Y722D02*
X455Y722D01*
X598Y722D02*
X607Y722D01*
X619Y722D02*
X628Y722D01*
X640Y722D02*
X651Y722D01*
X79Y721D02*
X98Y721D01*
X192Y721D02*
X220Y721D01*
X271Y721D02*
X280Y721D01*
X338Y721D02*
X348Y721D01*
X420Y721D02*
X429Y721D01*
X446Y721D02*
X455Y721D01*
X598Y721D02*
X607Y721D01*
X619Y721D02*
X628Y721D01*
X641Y721D02*
X652Y721D01*
X78Y720D02*
X101Y720D01*
X190Y720D02*
X222Y720D01*
X271Y720D02*
X280Y720D01*
X338Y720D02*
X348Y720D01*
X420Y720D02*
X429Y720D01*
X446Y720D02*
X455Y720D01*
X598Y720D02*
X607Y720D01*
X619Y720D02*
X628Y720D01*
X642Y720D02*
X652Y720D01*
X78Y719D02*
X103Y719D01*
X188Y719D02*
X224Y719D01*
X271Y719D02*
X280Y719D01*
X338Y719D02*
X348Y719D01*
X420Y719D02*
X429Y719D01*
X446Y719D02*
X455Y719D01*
X598Y719D02*
X607Y719D01*
X619Y719D02*
X628Y719D01*
X642Y719D02*
X653Y719D01*
X78Y718D02*
X105Y718D01*
X186Y718D02*
X226Y718D01*
X271Y718D02*
X280Y718D01*
X338Y718D02*
X348Y718D01*
X420Y718D02*
X429Y718D01*
X446Y718D02*
X455Y718D01*
X598Y718D02*
X607Y718D01*
X619Y718D02*
X628Y718D01*
X643Y718D02*
X653Y718D01*
X78Y717D02*
X107Y717D01*
X184Y717D02*
X228Y717D01*
X271Y717D02*
X280Y717D01*
X338Y717D02*
X348Y717D01*
X420Y717D02*
X429Y717D01*
X446Y717D02*
X455Y717D01*
X598Y717D02*
X607Y717D01*
X619Y717D02*
X628Y717D01*
X643Y717D02*
X653Y717D01*
X79Y716D02*
X110Y716D01*
X182Y716D02*
X230Y716D01*
X271Y716D02*
X280Y716D01*
X338Y716D02*
X348Y716D01*
X420Y716D02*
X430Y716D01*
X445Y716D02*
X455Y716D01*
X598Y716D02*
X607Y716D01*
X619Y716D02*
X628Y716D01*
X644Y716D02*
X654Y716D01*
X80Y715D02*
X112Y715D01*
X180Y715D02*
X202Y715D01*
X210Y715D02*
X232Y715D01*
X271Y715D02*
X280Y715D01*
X338Y715D02*
X348Y715D01*
X420Y715D02*
X495Y715D01*
X598Y715D02*
X607Y715D01*
X619Y715D02*
X628Y715D01*
X644Y715D02*
X654Y715D01*
X82Y714D02*
X114Y714D01*
X178Y714D02*
X199Y714D01*
X213Y714D02*
X234Y714D01*
X271Y714D02*
X280Y714D01*
X338Y714D02*
X348Y714D01*
X420Y714D02*
X496Y714D01*
X598Y714D02*
X607Y714D01*
X619Y714D02*
X628Y714D01*
X644Y714D02*
X654Y714D01*
X93Y713D02*
X117Y713D01*
X176Y713D02*
X197Y713D01*
X215Y713D02*
X236Y713D01*
X271Y713D02*
X280Y713D01*
X338Y713D02*
X348Y713D01*
X420Y713D02*
X497Y713D01*
X598Y713D02*
X607Y713D01*
X619Y713D02*
X628Y713D01*
X644Y713D02*
X654Y713D01*
X95Y712D02*
X119Y712D01*
X174Y712D02*
X195Y712D01*
X217Y712D02*
X238Y712D01*
X271Y712D02*
X280Y712D01*
X338Y712D02*
X348Y712D01*
X420Y712D02*
X497Y712D01*
X598Y712D02*
X607Y712D01*
X619Y712D02*
X628Y712D01*
X644Y712D02*
X654Y712D01*
X97Y711D02*
X121Y711D01*
X173Y711D02*
X193Y711D01*
X219Y711D02*
X239Y711D01*
X271Y711D02*
X280Y711D01*
X338Y711D02*
X348Y711D01*
X420Y711D02*
X497Y711D01*
X598Y711D02*
X607Y711D01*
X619Y711D02*
X628Y711D01*
X644Y711D02*
X654Y711D01*
X99Y710D02*
X123Y710D01*
X172Y710D02*
X191Y710D01*
X221Y710D02*
X240Y710D01*
X271Y710D02*
X280Y710D01*
X338Y710D02*
X348Y710D01*
X420Y710D02*
X497Y710D01*
X598Y710D02*
X607Y710D01*
X619Y710D02*
X628Y710D01*
X644Y710D02*
X654Y710D01*
X102Y709D02*
X126Y709D01*
X171Y709D02*
X189Y709D01*
X223Y709D02*
X241Y709D01*
X271Y709D02*
X280Y709D01*
X338Y709D02*
X348Y709D01*
X420Y709D02*
X497Y709D01*
X598Y709D02*
X607Y709D01*
X619Y709D02*
X628Y709D01*
X644Y709D02*
X654Y709D01*
X104Y708D02*
X128Y708D01*
X170Y708D02*
X187Y708D01*
X225Y708D02*
X242Y708D01*
X271Y708D02*
X280Y708D01*
X338Y708D02*
X348Y708D01*
X420Y708D02*
X496Y708D01*
X598Y708D02*
X607Y708D01*
X619Y708D02*
X628Y708D01*
X644Y708D02*
X654Y708D01*
X106Y707D02*
X130Y707D01*
X169Y707D02*
X185Y707D01*
X227Y707D02*
X242Y707D01*
X271Y707D02*
X280Y707D01*
X338Y707D02*
X348Y707D01*
X420Y707D02*
X495Y707D01*
X598Y707D02*
X607Y707D01*
X619Y707D02*
X628Y707D01*
X644Y707D02*
X654Y707D01*
X108Y706D02*
X132Y706D01*
X169Y706D02*
X183Y706D01*
X229Y706D02*
X243Y706D01*
X271Y706D02*
X280Y706D01*
X338Y706D02*
X348Y706D01*
X420Y706D02*
X493Y706D01*
X598Y706D02*
X607Y706D01*
X619Y706D02*
X628Y706D01*
X644Y706D02*
X654Y706D01*
X111Y705D02*
X133Y705D01*
X168Y705D02*
X181Y705D01*
X230Y705D02*
X243Y705D01*
X271Y705D02*
X280Y705D01*
X338Y705D02*
X348Y705D01*
X598Y705D02*
X607Y705D01*
X619Y705D02*
X628Y705D01*
X644Y705D02*
X654Y705D01*
X113Y704D02*
X134Y704D01*
X168Y704D02*
X179Y704D01*
X232Y704D02*
X244Y704D01*
X271Y704D02*
X280Y704D01*
X338Y704D02*
X348Y704D01*
X598Y704D02*
X607Y704D01*
X619Y704D02*
X628Y704D01*
X644Y704D02*
X654Y704D01*
X115Y703D02*
X134Y703D01*
X168Y703D02*
X178Y703D01*
X234Y703D02*
X244Y703D01*
X271Y703D02*
X280Y703D01*
X338Y703D02*
X347Y703D01*
X598Y703D02*
X607Y703D01*
X619Y703D02*
X628Y703D01*
X644Y703D02*
X654Y703D01*
X118Y702D02*
X134Y702D01*
X168Y702D02*
X177Y702D01*
X235Y702D02*
X244Y702D01*
X271Y702D02*
X280Y702D01*
X338Y702D02*
X347Y702D01*
X598Y702D02*
X607Y702D01*
X619Y702D02*
X628Y702D01*
X644Y702D02*
X654Y702D01*
X120Y701D02*
X134Y701D01*
X167Y701D02*
X177Y701D01*
X235Y701D02*
X244Y701D01*
X271Y701D02*
X281Y701D01*
X337Y701D02*
X347Y701D01*
X598Y701D02*
X607Y701D01*
X619Y701D02*
X628Y701D01*
X644Y701D02*
X653Y701D01*
X122Y700D02*
X134Y700D01*
X167Y700D02*
X177Y700D01*
X235Y700D02*
X244Y700D01*
X271Y700D02*
X282Y700D01*
X336Y700D02*
X347Y700D01*
X598Y700D02*
X607Y700D01*
X619Y700D02*
X628Y700D01*
X644Y700D02*
X653Y700D01*
X124Y699D02*
X134Y699D01*
X167Y699D02*
X176Y699D01*
X235Y699D02*
X244Y699D01*
X272Y699D02*
X284Y699D01*
X334Y699D02*
X347Y699D01*
X599Y699D02*
X606Y699D01*
X619Y699D02*
X629Y699D01*
X643Y699D02*
X653Y699D01*
X122Y698D02*
X134Y698D01*
X167Y698D02*
X176Y698D01*
X235Y698D02*
X244Y698D01*
X272Y698D02*
X286Y698D01*
X332Y698D02*
X346Y698D01*
X600Y698D02*
X605Y698D01*
X619Y698D02*
X630Y698D01*
X643Y698D02*
X653Y698D01*
X120Y697D02*
X134Y697D01*
X167Y697D02*
X176Y697D01*
X235Y697D02*
X244Y697D01*
X272Y697D02*
X288Y697D01*
X330Y697D02*
X346Y697D01*
X601Y697D02*
X603Y697D01*
X620Y697D02*
X633Y697D01*
X640Y697D02*
X653Y697D01*
X118Y696D02*
X134Y696D01*
X167Y696D02*
X177Y696D01*
X235Y696D02*
X244Y696D01*
X273Y696D02*
X290Y696D01*
X328Y696D02*
X345Y696D01*
X620Y696D02*
X652Y696D01*
X115Y695D02*
X134Y695D01*
X167Y695D02*
X244Y695D01*
X274Y695D02*
X292Y695D01*
X326Y695D02*
X344Y695D01*
X621Y695D02*
X652Y695D01*
X113Y694D02*
X134Y694D01*
X167Y694D02*
X244Y694D01*
X275Y694D02*
X294Y694D01*
X324Y694D02*
X343Y694D01*
X621Y694D02*
X651Y694D01*
X111Y693D02*
X133Y693D01*
X167Y693D02*
X244Y693D01*
X276Y693D02*
X296Y693D01*
X322Y693D02*
X342Y693D01*
X622Y693D02*
X651Y693D01*
X108Y692D02*
X132Y692D01*
X167Y692D02*
X244Y692D01*
X277Y692D02*
X298Y692D01*
X320Y692D02*
X341Y692D01*
X623Y692D02*
X650Y692D01*
X106Y691D02*
X130Y691D01*
X167Y691D02*
X244Y691D01*
X278Y691D02*
X300Y691D01*
X318Y691D02*
X339Y691D01*
X624Y691D02*
X649Y691D01*
X104Y690D02*
X128Y690D01*
X167Y690D02*
X244Y690D01*
X280Y690D02*
X302Y690D01*
X316Y690D02*
X337Y690D01*
X625Y690D02*
X648Y690D01*
X101Y689D02*
X126Y689D01*
X167Y689D02*
X244Y689D01*
X282Y689D02*
X305Y689D01*
X313Y689D02*
X336Y689D01*
X626Y689D02*
X646Y689D01*
X99Y688D02*
X123Y688D01*
X167Y688D02*
X244Y688D01*
X284Y688D02*
X334Y688D01*
X628Y688D02*
X644Y688D01*
X97Y687D02*
X121Y687D01*
X167Y687D02*
X244Y687D01*
X287Y687D02*
X332Y687D01*
X632Y687D02*
X641Y687D01*
X95Y686D02*
X119Y686D01*
X167Y686D02*
X244Y686D01*
X289Y686D02*
X330Y686D01*
X92Y685D02*
X117Y685D01*
X167Y685D02*
X176Y685D01*
X235Y685D02*
X244Y685D01*
X291Y685D02*
X328Y685D01*
X82Y684D02*
X114Y684D01*
X167Y684D02*
X176Y684D01*
X235Y684D02*
X244Y684D01*
X293Y684D02*
X326Y684D01*
X80Y683D02*
X112Y683D01*
X167Y683D02*
X176Y683D01*
X235Y683D02*
X244Y683D01*
X295Y683D02*
X324Y683D01*
X79Y682D02*
X110Y682D01*
X167Y682D02*
X176Y682D01*
X235Y682D02*
X244Y682D01*
X297Y682D02*
X322Y682D01*
X78Y681D02*
X107Y681D01*
X167Y681D02*
X176Y681D01*
X235Y681D02*
X244Y681D01*
X299Y681D02*
X320Y681D01*
X78Y680D02*
X105Y680D01*
X168Y680D02*
X176Y680D01*
X235Y680D02*
X244Y680D01*
X301Y680D02*
X317Y680D01*
X78Y679D02*
X103Y679D01*
X168Y679D02*
X176Y679D01*
X236Y679D02*
X244Y679D01*
X304Y679D02*
X314Y679D01*
X78Y678D02*
X101Y678D01*
X168Y678D02*
X175Y678D01*
X236Y678D02*
X243Y678D01*
X79Y677D02*
X98Y677D01*
X170Y677D02*
X174Y677D01*
X237Y677D02*
X242Y677D01*
X79Y676D02*
X96Y676D01*
X80Y675D02*
X94Y675D01*
X579Y664D02*
X654Y664D01*
X578Y663D02*
X654Y663D01*
X577Y662D02*
X654Y662D01*
X577Y661D02*
X654Y661D01*
X577Y660D02*
X654Y660D01*
X577Y659D02*
X654Y659D01*
X577Y658D02*
X654Y658D01*
X577Y657D02*
X654Y657D01*
X283Y656D02*
X284Y656D01*
X336Y656D02*
X337Y656D01*
X578Y656D02*
X654Y656D01*
X279Y655D02*
X286Y655D01*
X332Y655D02*
X341Y655D01*
X580Y655D02*
X654Y655D01*
X277Y654D02*
X287Y654D01*
X331Y654D02*
X343Y654D01*
X636Y654D02*
X654Y654D01*
X176Y653D02*
X182Y653D01*
X230Y653D02*
X237Y653D01*
X276Y653D02*
X288Y653D01*
X329Y653D02*
X344Y653D01*
X633Y653D02*
X654Y653D01*
X174Y652D02*
X184Y652D01*
X228Y652D02*
X239Y652D01*
X275Y652D02*
X288Y652D01*
X328Y652D02*
X345Y652D01*
X631Y652D02*
X654Y652D01*
X63Y651D02*
X90Y651D01*
X101Y651D02*
X128Y651D01*
X173Y651D02*
X184Y651D01*
X227Y651D02*
X240Y651D01*
X274Y651D02*
X288Y651D01*
X327Y651D02*
X346Y651D01*
X629Y651D02*
X653Y651D01*
X61Y650D02*
X92Y650D01*
X99Y650D02*
X130Y650D01*
X172Y650D02*
X185Y650D01*
X225Y650D02*
X241Y650D01*
X273Y650D02*
X288Y650D01*
X326Y650D02*
X346Y650D01*
X626Y650D02*
X651Y650D01*
X60Y649D02*
X94Y649D01*
X97Y649D02*
X131Y649D01*
X171Y649D02*
X185Y649D01*
X224Y649D02*
X242Y649D01*
X272Y649D02*
X288Y649D01*
X324Y649D02*
X347Y649D01*
X624Y649D02*
X648Y649D01*
X59Y648D02*
X132Y648D01*
X170Y648D02*
X185Y648D01*
X223Y648D02*
X243Y648D01*
X272Y648D02*
X287Y648D01*
X323Y648D02*
X347Y648D01*
X622Y648D02*
X646Y648D01*
X58Y647D02*
X132Y647D01*
X169Y647D02*
X185Y647D01*
X221Y647D02*
X243Y647D01*
X271Y647D02*
X286Y647D01*
X322Y647D02*
X347Y647D01*
X620Y647D02*
X644Y647D01*
X58Y646D02*
X133Y646D01*
X169Y646D02*
X184Y646D01*
X220Y646D02*
X244Y646D01*
X271Y646D02*
X283Y646D01*
X320Y646D02*
X347Y646D01*
X617Y646D02*
X642Y646D01*
X57Y645D02*
X133Y645D01*
X168Y645D02*
X183Y645D01*
X219Y645D02*
X244Y645D01*
X271Y645D02*
X281Y645D01*
X319Y645D02*
X335Y645D01*
X338Y645D02*
X348Y645D01*
X615Y645D02*
X639Y645D01*
X57Y644D02*
X134Y644D01*
X168Y644D02*
X182Y644D01*
X218Y644D02*
X244Y644D01*
X271Y644D02*
X280Y644D01*
X318Y644D02*
X334Y644D01*
X338Y644D02*
X348Y644D01*
X613Y644D02*
X637Y644D01*
X57Y643D02*
X134Y643D01*
X168Y643D02*
X178Y643D01*
X216Y643D02*
X232Y643D01*
X235Y643D02*
X244Y643D01*
X271Y643D02*
X280Y643D01*
X317Y643D02*
X332Y643D01*
X338Y643D02*
X348Y643D01*
X610Y643D02*
X635Y643D01*
X57Y642D02*
X134Y642D01*
X168Y642D02*
X177Y642D01*
X215Y642D02*
X231Y642D01*
X235Y642D02*
X244Y642D01*
X271Y642D02*
X280Y642D01*
X315Y642D02*
X331Y642D01*
X338Y642D02*
X348Y642D01*
X608Y642D02*
X633Y642D01*
X57Y641D02*
X66Y641D01*
X88Y641D02*
X102Y641D01*
X125Y641D02*
X134Y641D01*
X167Y641D02*
X177Y641D01*
X214Y641D02*
X230Y641D01*
X235Y641D02*
X244Y641D01*
X271Y641D02*
X280Y641D01*
X314Y641D02*
X330Y641D01*
X338Y641D02*
X348Y641D01*
X606Y641D02*
X630Y641D01*
X57Y640D02*
X66Y640D01*
X89Y640D02*
X101Y640D01*
X125Y640D02*
X134Y640D01*
X167Y640D02*
X176Y640D01*
X212Y640D02*
X228Y640D01*
X235Y640D02*
X244Y640D01*
X271Y640D02*
X280Y640D01*
X313Y640D02*
X328Y640D01*
X338Y640D02*
X348Y640D01*
X604Y640D02*
X628Y640D01*
X57Y639D02*
X66Y639D01*
X90Y639D02*
X100Y639D01*
X125Y639D02*
X134Y639D01*
X167Y639D02*
X176Y639D01*
X211Y639D02*
X227Y639D01*
X235Y639D02*
X244Y639D01*
X271Y639D02*
X280Y639D01*
X311Y639D02*
X327Y639D01*
X338Y639D02*
X348Y639D01*
X601Y639D02*
X626Y639D01*
X57Y638D02*
X66Y638D01*
X91Y638D02*
X100Y638D01*
X125Y638D02*
X134Y638D01*
X167Y638D02*
X176Y638D01*
X210Y638D02*
X226Y638D01*
X235Y638D02*
X244Y638D01*
X271Y638D02*
X280Y638D01*
X310Y638D02*
X326Y638D01*
X338Y638D02*
X348Y638D01*
X599Y638D02*
X623Y638D01*
X57Y637D02*
X66Y637D01*
X91Y637D02*
X100Y637D01*
X125Y637D02*
X134Y637D01*
X167Y637D02*
X176Y637D01*
X209Y637D02*
X224Y637D01*
X235Y637D02*
X244Y637D01*
X271Y637D02*
X280Y637D01*
X309Y637D02*
X325Y637D01*
X338Y637D02*
X348Y637D01*
X597Y637D02*
X621Y637D01*
X57Y636D02*
X66Y636D01*
X91Y636D02*
X100Y636D01*
X125Y636D02*
X134Y636D01*
X167Y636D02*
X176Y636D01*
X207Y636D02*
X223Y636D01*
X235Y636D02*
X244Y636D01*
X271Y636D02*
X280Y636D01*
X308Y636D02*
X323Y636D01*
X338Y636D02*
X348Y636D01*
X594Y636D02*
X619Y636D01*
X57Y635D02*
X66Y635D01*
X91Y635D02*
X100Y635D01*
X125Y635D02*
X134Y635D01*
X167Y635D02*
X176Y635D01*
X206Y635D02*
X222Y635D01*
X235Y635D02*
X244Y635D01*
X271Y635D02*
X280Y635D01*
X306Y635D02*
X322Y635D01*
X338Y635D02*
X348Y635D01*
X592Y635D02*
X617Y635D01*
X57Y634D02*
X66Y634D01*
X91Y634D02*
X100Y634D01*
X125Y634D02*
X134Y634D01*
X167Y634D02*
X176Y634D01*
X205Y634D02*
X220Y634D01*
X235Y634D02*
X244Y634D01*
X271Y634D02*
X280Y634D01*
X305Y634D02*
X321Y634D01*
X338Y634D02*
X348Y634D01*
X590Y634D02*
X614Y634D01*
X57Y633D02*
X66Y633D01*
X91Y633D02*
X100Y633D01*
X125Y633D02*
X134Y633D01*
X167Y633D02*
X176Y633D01*
X203Y633D02*
X219Y633D01*
X235Y633D02*
X244Y633D01*
X271Y633D02*
X280Y633D01*
X304Y633D02*
X319Y633D01*
X338Y633D02*
X348Y633D01*
X588Y633D02*
X612Y633D01*
X57Y632D02*
X66Y632D01*
X91Y632D02*
X100Y632D01*
X125Y632D02*
X134Y632D01*
X167Y632D02*
X176Y632D01*
X202Y632D02*
X218Y632D01*
X235Y632D02*
X244Y632D01*
X271Y632D02*
X280Y632D01*
X302Y632D02*
X318Y632D01*
X338Y632D02*
X348Y632D01*
X585Y632D02*
X610Y632D01*
X57Y631D02*
X66Y631D01*
X91Y631D02*
X100Y631D01*
X125Y631D02*
X134Y631D01*
X167Y631D02*
X176Y631D01*
X201Y631D02*
X217Y631D01*
X235Y631D02*
X244Y631D01*
X271Y631D02*
X280Y631D01*
X301Y631D02*
X317Y631D01*
X338Y631D02*
X348Y631D01*
X583Y631D02*
X607Y631D01*
X57Y630D02*
X66Y630D01*
X91Y630D02*
X100Y630D01*
X125Y630D02*
X134Y630D01*
X167Y630D02*
X176Y630D01*
X200Y630D02*
X215Y630D01*
X235Y630D02*
X244Y630D01*
X271Y630D02*
X280Y630D01*
X300Y630D02*
X316Y630D01*
X338Y630D02*
X348Y630D01*
X581Y630D02*
X605Y630D01*
X57Y629D02*
X66Y629D01*
X91Y629D02*
X100Y629D01*
X125Y629D02*
X134Y629D01*
X167Y629D02*
X176Y629D01*
X198Y629D02*
X214Y629D01*
X235Y629D02*
X244Y629D01*
X271Y629D02*
X280Y629D01*
X299Y629D02*
X314Y629D01*
X338Y629D02*
X348Y629D01*
X579Y629D02*
X603Y629D01*
X57Y628D02*
X66Y628D01*
X91Y628D02*
X100Y628D01*
X125Y628D02*
X134Y628D01*
X167Y628D02*
X176Y628D01*
X197Y628D02*
X213Y628D01*
X235Y628D02*
X244Y628D01*
X271Y628D02*
X280Y628D01*
X297Y628D02*
X313Y628D01*
X338Y628D02*
X348Y628D01*
X577Y628D02*
X601Y628D01*
X57Y627D02*
X66Y627D01*
X91Y627D02*
X100Y627D01*
X125Y627D02*
X134Y627D01*
X167Y627D02*
X176Y627D01*
X196Y627D02*
X211Y627D01*
X235Y627D02*
X244Y627D01*
X271Y627D02*
X280Y627D01*
X296Y627D02*
X312Y627D01*
X338Y627D02*
X348Y627D01*
X577Y627D02*
X598Y627D01*
X57Y626D02*
X66Y626D01*
X91Y626D02*
X100Y626D01*
X125Y626D02*
X134Y626D01*
X167Y626D02*
X176Y626D01*
X194Y626D02*
X210Y626D01*
X235Y626D02*
X244Y626D01*
X271Y626D02*
X280Y626D01*
X295Y626D02*
X310Y626D01*
X338Y626D02*
X348Y626D01*
X577Y626D02*
X596Y626D01*
X57Y625D02*
X66Y625D01*
X91Y625D02*
X100Y625D01*
X125Y625D02*
X134Y625D01*
X167Y625D02*
X176Y625D01*
X193Y625D02*
X209Y625D01*
X235Y625D02*
X244Y625D01*
X271Y625D02*
X280Y625D01*
X293Y625D02*
X309Y625D01*
X338Y625D02*
X348Y625D01*
X577Y625D02*
X595Y625D01*
X57Y624D02*
X66Y624D01*
X91Y624D02*
X100Y624D01*
X125Y624D02*
X134Y624D01*
X167Y624D02*
X176Y624D01*
X192Y624D02*
X208Y624D01*
X235Y624D02*
X244Y624D01*
X271Y624D02*
X280Y624D01*
X292Y624D02*
X308Y624D01*
X338Y624D02*
X348Y624D01*
X577Y624D02*
X651Y624D01*
X57Y623D02*
X66Y623D01*
X91Y623D02*
X100Y623D01*
X125Y623D02*
X134Y623D01*
X167Y623D02*
X176Y623D01*
X191Y623D02*
X206Y623D01*
X235Y623D02*
X244Y623D01*
X271Y623D02*
X280Y623D01*
X291Y623D02*
X307Y623D01*
X338Y623D02*
X348Y623D01*
X577Y623D02*
X652Y623D01*
X57Y622D02*
X66Y622D01*
X91Y622D02*
X100Y622D01*
X125Y622D02*
X134Y622D01*
X167Y622D02*
X176Y622D01*
X189Y622D02*
X205Y622D01*
X235Y622D02*
X244Y622D01*
X271Y622D02*
X280Y622D01*
X290Y622D02*
X305Y622D01*
X338Y622D02*
X348Y622D01*
X577Y622D02*
X653Y622D01*
X57Y621D02*
X66Y621D01*
X91Y621D02*
X100Y621D01*
X125Y621D02*
X134Y621D01*
X167Y621D02*
X176Y621D01*
X188Y621D02*
X204Y621D01*
X235Y621D02*
X244Y621D01*
X271Y621D02*
X280Y621D01*
X288Y621D02*
X304Y621D01*
X338Y621D02*
X348Y621D01*
X577Y621D02*
X653Y621D01*
X57Y620D02*
X66Y620D01*
X91Y620D02*
X100Y620D01*
X125Y620D02*
X134Y620D01*
X167Y620D02*
X176Y620D01*
X187Y620D02*
X202Y620D01*
X235Y620D02*
X244Y620D01*
X271Y620D02*
X280Y620D01*
X287Y620D02*
X303Y620D01*
X338Y620D02*
X348Y620D01*
X577Y620D02*
X653Y620D01*
X57Y619D02*
X66Y619D01*
X91Y619D02*
X100Y619D01*
X125Y619D02*
X134Y619D01*
X167Y619D02*
X176Y619D01*
X185Y619D02*
X201Y619D01*
X235Y619D02*
X244Y619D01*
X271Y619D02*
X280Y619D01*
X286Y619D02*
X301Y619D01*
X338Y619D02*
X347Y619D01*
X577Y619D02*
X653Y619D01*
X57Y618D02*
X66Y618D01*
X91Y618D02*
X100Y618D01*
X125Y618D02*
X134Y618D01*
X167Y618D02*
X176Y618D01*
X184Y618D02*
X200Y618D01*
X235Y618D02*
X244Y618D01*
X271Y618D02*
X280Y618D01*
X284Y618D02*
X300Y618D01*
X338Y618D02*
X347Y618D01*
X577Y618D02*
X653Y618D01*
X57Y617D02*
X66Y617D01*
X91Y617D02*
X100Y617D01*
X125Y617D02*
X134Y617D01*
X167Y617D02*
X176Y617D01*
X183Y617D02*
X199Y617D01*
X235Y617D02*
X244Y617D01*
X271Y617D02*
X280Y617D01*
X283Y617D02*
X299Y617D01*
X337Y617D02*
X347Y617D01*
X577Y617D02*
X653Y617D01*
X57Y616D02*
X66Y616D01*
X91Y616D02*
X100Y616D01*
X125Y616D02*
X134Y616D01*
X167Y616D02*
X176Y616D01*
X182Y616D02*
X197Y616D01*
X235Y616D02*
X244Y616D01*
X271Y616D02*
X298Y616D01*
X333Y616D02*
X347Y616D01*
X577Y616D02*
X652Y616D01*
X57Y615D02*
X66Y615D01*
X91Y615D02*
X99Y615D01*
X125Y615D02*
X134Y615D01*
X167Y615D02*
X177Y615D01*
X180Y615D02*
X196Y615D01*
X234Y615D02*
X244Y615D01*
X271Y615D02*
X296Y615D01*
X332Y615D02*
X347Y615D01*
X577Y615D02*
X649Y615D01*
X57Y614D02*
X66Y614D01*
X92Y614D02*
X99Y614D01*
X125Y614D02*
X134Y614D01*
X168Y614D02*
X195Y614D01*
X231Y614D02*
X244Y614D01*
X271Y614D02*
X295Y614D01*
X331Y614D02*
X346Y614D01*
X57Y613D02*
X66Y613D01*
X93Y613D02*
X98Y613D01*
X125Y613D02*
X134Y613D01*
X168Y613D02*
X193Y613D01*
X229Y613D02*
X244Y613D01*
X272Y613D02*
X294Y613D01*
X330Y613D02*
X346Y613D01*
X57Y612D02*
X66Y612D01*
X125Y612D02*
X134Y612D01*
X168Y612D02*
X192Y612D01*
X228Y612D02*
X243Y612D01*
X272Y612D02*
X292Y612D01*
X330Y612D02*
X345Y612D01*
X57Y611D02*
X66Y611D01*
X125Y611D02*
X134Y611D01*
X168Y611D02*
X191Y611D01*
X227Y611D02*
X243Y611D01*
X273Y611D02*
X291Y611D01*
X330Y611D02*
X344Y611D01*
X57Y610D02*
X66Y610D01*
X125Y610D02*
X134Y610D01*
X169Y610D02*
X190Y610D01*
X227Y610D02*
X242Y610D01*
X274Y610D02*
X290Y610D01*
X330Y610D02*
X343Y610D01*
X57Y609D02*
X66Y609D01*
X125Y609D02*
X134Y609D01*
X169Y609D02*
X188Y609D01*
X227Y609D02*
X241Y609D01*
X275Y609D02*
X289Y609D01*
X331Y609D02*
X342Y609D01*
X57Y608D02*
X66Y608D01*
X125Y608D02*
X134Y608D01*
X170Y608D02*
X187Y608D01*
X227Y608D02*
X240Y608D01*
X276Y608D02*
X287Y608D01*
X331Y608D02*
X341Y608D01*
X57Y607D02*
X66Y607D01*
X125Y607D02*
X134Y607D01*
X171Y607D02*
X186Y607D01*
X227Y607D02*
X239Y607D01*
X278Y607D02*
X285Y607D01*
X333Y607D02*
X338Y607D01*
X57Y606D02*
X66Y606D01*
X125Y606D02*
X134Y606D01*
X172Y606D02*
X184Y606D01*
X228Y606D02*
X238Y606D01*
X57Y605D02*
X65Y605D01*
X125Y605D02*
X133Y605D01*
X174Y605D02*
X182Y605D01*
X229Y605D02*
X236Y605D01*
X58Y604D02*
X65Y604D01*
X126Y604D02*
X133Y604D01*
X59Y603D02*
X64Y603D01*
X127Y603D02*
X131Y603D01*
X609Y520D02*
X617Y520D01*
X606Y519D02*
X618Y519D01*
X604Y518D02*
X619Y518D01*
X603Y517D02*
X619Y517D01*
X602Y516D02*
X619Y516D01*
X601Y515D02*
X619Y515D01*
X600Y514D02*
X619Y514D01*
X600Y513D02*
X619Y513D01*
X599Y512D02*
X618Y512D01*
X599Y511D02*
X617Y511D01*
X598Y510D02*
X610Y510D01*
X598Y509D02*
X608Y509D01*
X598Y508D02*
X608Y508D01*
X598Y507D02*
X607Y507D01*
X598Y506D02*
X607Y506D01*
X598Y505D02*
X607Y505D01*
X598Y504D02*
X607Y504D01*
X598Y503D02*
X607Y503D01*
X598Y502D02*
X607Y502D01*
X598Y501D02*
X607Y501D01*
X598Y500D02*
X607Y500D01*
X598Y499D02*
X607Y499D01*
X598Y498D02*
X607Y498D01*
X598Y497D02*
X607Y497D01*
X598Y496D02*
X608Y496D01*
X598Y495D02*
X609Y495D01*
X598Y494D02*
X610Y494D01*
X598Y493D02*
X611Y493D01*
X599Y492D02*
X612Y492D01*
X600Y491D02*
X612Y491D01*
X601Y490D02*
X613Y490D01*
X602Y489D02*
X614Y489D01*
X603Y488D02*
X615Y488D01*
X604Y487D02*
X616Y487D01*
X604Y486D02*
X617Y486D01*
X605Y485D02*
X618Y485D01*
X606Y484D02*
X619Y484D01*
X607Y483D02*
X619Y483D01*
X608Y482D02*
X620Y482D01*
X608Y481D02*
X621Y481D01*
X600Y480D02*
X651Y480D01*
X599Y479D02*
X652Y479D01*
X598Y478D02*
X653Y478D01*
X598Y477D02*
X653Y477D01*
X598Y476D02*
X653Y476D01*
X598Y475D02*
X653Y475D01*
X598Y474D02*
X653Y474D01*
X599Y473D02*
X653Y473D01*
X600Y472D02*
X652Y472D01*
X602Y471D02*
X649Y471D01*
X601Y448D02*
X651Y448D01*
X599Y447D02*
X652Y447D01*
X598Y446D02*
X653Y446D01*
X598Y445D02*
X653Y445D01*
X598Y444D02*
X653Y444D01*
X598Y443D02*
X653Y443D01*
X598Y442D02*
X653Y442D01*
X599Y441D02*
X653Y441D01*
X599Y440D02*
X652Y440D01*
X601Y439D02*
X650Y439D01*
X634Y438D02*
X645Y438D01*
X635Y437D02*
X646Y437D01*
X636Y436D02*
X647Y436D01*
X636Y435D02*
X647Y435D01*
X637Y434D02*
X648Y434D01*
X638Y433D02*
X648Y433D01*
X638Y432D02*
X649Y432D01*
X639Y431D02*
X650Y431D01*
X639Y430D02*
X650Y430D01*
X640Y429D02*
X651Y429D01*
X641Y428D02*
X652Y428D01*
X641Y427D02*
X652Y427D01*
X642Y426D02*
X653Y426D01*
X643Y425D02*
X653Y425D01*
X643Y424D02*
X653Y424D01*
X644Y423D02*
X653Y423D01*
X644Y422D02*
X653Y422D01*
X644Y421D02*
X654Y421D01*
X644Y420D02*
X654Y420D01*
X644Y419D02*
X654Y419D01*
X644Y418D02*
X654Y418D01*
X644Y417D02*
X654Y417D01*
X644Y416D02*
X654Y416D01*
X644Y415D02*
X654Y415D01*
X644Y414D02*
X653Y414D01*
X644Y413D02*
X653Y413D01*
X643Y412D02*
X653Y412D01*
X642Y411D02*
X653Y411D01*
X379Y410D02*
X408Y410D01*
X466Y410D02*
X487Y410D01*
X518Y410D02*
X519Y410D01*
X636Y410D02*
X653Y410D01*
X376Y409D02*
X411Y409D01*
X462Y409D02*
X489Y409D01*
X516Y409D02*
X521Y409D01*
X607Y409D02*
X652Y409D01*
X375Y408D02*
X413Y408D01*
X460Y408D02*
X490Y408D01*
X515Y408D02*
X522Y408D01*
X600Y408D02*
X652Y408D01*
X374Y407D02*
X414Y407D01*
X459Y407D02*
X491Y407D01*
X514Y407D02*
X523Y407D01*
X599Y407D02*
X651Y407D01*
X373Y406D02*
X415Y406D01*
X458Y406D02*
X491Y406D01*
X514Y406D02*
X523Y406D01*
X598Y406D02*
X650Y406D01*
X372Y405D02*
X416Y405D01*
X457Y405D02*
X491Y405D01*
X514Y405D02*
X523Y405D01*
X598Y405D02*
X650Y405D01*
X371Y404D02*
X417Y404D01*
X456Y404D02*
X491Y404D01*
X514Y404D02*
X523Y404D01*
X598Y404D02*
X649Y404D01*
X371Y403D02*
X417Y403D01*
X455Y403D02*
X490Y403D01*
X514Y403D02*
X523Y403D01*
X598Y403D02*
X647Y403D01*
X371Y402D02*
X418Y402D01*
X455Y402D02*
X490Y402D01*
X514Y402D02*
X523Y402D01*
X598Y402D02*
X646Y402D01*
X370Y401D02*
X418Y401D01*
X454Y401D02*
X488Y401D01*
X514Y401D02*
X523Y401D01*
X599Y401D02*
X644Y401D01*
X370Y400D02*
X380Y400D01*
X407Y400D02*
X418Y400D01*
X454Y400D02*
X466Y400D01*
X514Y400D02*
X523Y400D01*
X600Y400D02*
X638Y400D01*
X370Y399D02*
X379Y399D01*
X409Y399D02*
X419Y399D01*
X453Y399D02*
X464Y399D01*
X514Y399D02*
X523Y399D01*
X602Y399D02*
X607Y399D01*
X370Y398D02*
X380Y398D01*
X409Y398D02*
X419Y398D01*
X453Y398D02*
X463Y398D01*
X514Y398D02*
X523Y398D01*
X370Y397D02*
X380Y397D01*
X410Y397D02*
X419Y397D01*
X452Y397D02*
X463Y397D01*
X514Y397D02*
X523Y397D01*
X371Y396D02*
X381Y396D01*
X410Y396D02*
X419Y396D01*
X452Y396D02*
X462Y396D01*
X514Y396D02*
X523Y396D01*
X371Y395D02*
X382Y395D01*
X410Y395D02*
X419Y395D01*
X451Y395D02*
X462Y395D01*
X514Y395D02*
X523Y395D01*
X371Y394D02*
X383Y394D01*
X411Y394D02*
X418Y394D01*
X451Y394D02*
X461Y394D01*
X514Y394D02*
X523Y394D01*
X372Y393D02*
X383Y393D01*
X411Y393D02*
X417Y393D01*
X450Y393D02*
X461Y393D01*
X514Y393D02*
X523Y393D01*
X372Y392D02*
X384Y392D01*
X413Y392D02*
X416Y392D01*
X450Y392D02*
X460Y392D01*
X514Y392D02*
X523Y392D01*
X373Y391D02*
X385Y391D01*
X449Y391D02*
X460Y391D01*
X514Y391D02*
X523Y391D01*
X374Y390D02*
X386Y390D01*
X449Y390D02*
X459Y390D01*
X514Y390D02*
X523Y390D01*
X375Y389D02*
X387Y389D01*
X448Y389D02*
X459Y389D01*
X514Y389D02*
X523Y389D01*
X375Y388D02*
X387Y388D01*
X448Y388D02*
X458Y388D01*
X514Y388D02*
X523Y388D01*
X376Y387D02*
X388Y387D01*
X447Y387D02*
X458Y387D01*
X514Y387D02*
X523Y387D01*
X377Y386D02*
X389Y386D01*
X447Y386D02*
X457Y386D01*
X514Y386D02*
X523Y386D01*
X378Y385D02*
X390Y385D01*
X446Y385D02*
X457Y385D01*
X514Y385D02*
X523Y385D01*
X379Y384D02*
X390Y384D01*
X446Y384D02*
X456Y384D01*
X514Y384D02*
X523Y384D01*
X379Y383D02*
X391Y383D01*
X445Y383D02*
X456Y383D01*
X514Y383D02*
X523Y383D01*
X380Y382D02*
X392Y382D01*
X445Y382D02*
X455Y382D01*
X514Y382D02*
X523Y382D01*
X381Y381D02*
X393Y381D01*
X444Y381D02*
X455Y381D01*
X514Y381D02*
X523Y381D01*
X382Y380D02*
X394Y380D01*
X444Y380D02*
X454Y380D01*
X514Y380D02*
X523Y380D01*
X382Y379D02*
X394Y379D01*
X443Y379D02*
X454Y379D01*
X514Y379D02*
X523Y379D01*
X383Y378D02*
X395Y378D01*
X443Y378D02*
X453Y378D01*
X514Y378D02*
X523Y378D01*
X384Y377D02*
X396Y377D01*
X443Y377D02*
X453Y377D01*
X514Y377D02*
X523Y377D01*
X385Y376D02*
X397Y376D01*
X443Y376D02*
X452Y376D01*
X514Y376D02*
X523Y376D01*
X612Y376D02*
X640Y376D01*
X385Y375D02*
X397Y375D01*
X442Y375D02*
X452Y375D01*
X514Y375D02*
X523Y375D01*
X609Y375D02*
X642Y375D01*
X386Y374D02*
X398Y374D01*
X442Y374D02*
X452Y374D01*
X514Y374D02*
X523Y374D01*
X607Y374D02*
X644Y374D01*
X387Y373D02*
X399Y373D01*
X442Y373D02*
X451Y373D01*
X514Y373D02*
X523Y373D01*
X606Y373D02*
X645Y373D01*
X388Y372D02*
X400Y372D01*
X442Y372D02*
X451Y372D01*
X514Y372D02*
X523Y372D01*
X605Y372D02*
X646Y372D01*
X389Y371D02*
X401Y371D01*
X442Y371D02*
X451Y371D01*
X514Y371D02*
X523Y371D01*
X604Y371D02*
X647Y371D01*
X389Y370D02*
X401Y370D01*
X442Y370D02*
X451Y370D01*
X514Y370D02*
X523Y370D01*
X603Y370D02*
X648Y370D01*
X390Y369D02*
X402Y369D01*
X442Y369D02*
X451Y369D01*
X514Y369D02*
X523Y369D01*
X602Y369D02*
X649Y369D01*
X391Y368D02*
X403Y368D01*
X442Y368D02*
X452Y368D01*
X514Y368D02*
X523Y368D01*
X602Y368D02*
X650Y368D01*
X392Y367D02*
X404Y367D01*
X443Y367D02*
X452Y367D01*
X514Y367D02*
X523Y367D01*
X601Y367D02*
X650Y367D01*
X392Y366D02*
X404Y366D01*
X443Y366D02*
X452Y366D01*
X514Y366D02*
X523Y366D01*
X600Y366D02*
X613Y366D01*
X639Y366D02*
X651Y366D01*
X393Y365D02*
X405Y365D01*
X443Y365D02*
X453Y365D01*
X514Y365D02*
X523Y365D01*
X600Y365D02*
X611Y365D01*
X640Y365D02*
X652Y365D01*
X394Y364D02*
X406Y364D01*
X443Y364D02*
X453Y364D01*
X514Y364D02*
X523Y364D01*
X599Y364D02*
X610Y364D01*
X641Y364D02*
X652Y364D01*
X395Y363D02*
X407Y363D01*
X444Y363D02*
X454Y363D01*
X514Y363D02*
X523Y363D01*
X599Y363D02*
X609Y363D01*
X642Y363D02*
X653Y363D01*
X396Y362D02*
X408Y362D01*
X444Y362D02*
X454Y362D01*
X514Y362D02*
X523Y362D01*
X598Y362D02*
X608Y362D01*
X643Y362D02*
X653Y362D01*
X396Y361D02*
X408Y361D01*
X444Y361D02*
X455Y361D01*
X514Y361D02*
X523Y361D01*
X598Y361D02*
X608Y361D01*
X643Y361D02*
X653Y361D01*
X397Y360D02*
X409Y360D01*
X445Y360D02*
X455Y360D01*
X514Y360D02*
X523Y360D01*
X598Y360D02*
X607Y360D01*
X644Y360D02*
X653Y360D01*
X398Y359D02*
X410Y359D01*
X445Y359D02*
X456Y359D01*
X514Y359D02*
X523Y359D01*
X598Y359D02*
X607Y359D01*
X644Y359D02*
X653Y359D01*
X399Y358D02*
X411Y358D01*
X446Y358D02*
X456Y358D01*
X514Y358D02*
X523Y358D01*
X598Y358D02*
X607Y358D01*
X644Y358D02*
X654Y358D01*
X399Y357D02*
X411Y357D01*
X446Y357D02*
X457Y357D01*
X514Y357D02*
X523Y357D01*
X598Y357D02*
X607Y357D01*
X644Y357D02*
X654Y357D01*
X400Y356D02*
X412Y356D01*
X447Y356D02*
X457Y356D01*
X514Y356D02*
X523Y356D01*
X598Y356D02*
X607Y356D01*
X644Y356D02*
X654Y356D01*
X401Y355D02*
X413Y355D01*
X447Y355D02*
X458Y355D01*
X514Y355D02*
X523Y355D01*
X598Y355D02*
X607Y355D01*
X644Y355D02*
X654Y355D01*
X402Y354D02*
X414Y354D01*
X448Y354D02*
X458Y354D01*
X514Y354D02*
X523Y354D01*
X598Y354D02*
X607Y354D01*
X644Y354D02*
X654Y354D01*
X403Y353D02*
X415Y353D01*
X448Y353D02*
X459Y353D01*
X514Y353D02*
X523Y353D01*
X598Y353D02*
X607Y353D01*
X644Y353D02*
X654Y353D01*
X403Y352D02*
X415Y352D01*
X449Y352D02*
X459Y352D01*
X514Y352D02*
X523Y352D01*
X598Y352D02*
X607Y352D01*
X644Y352D02*
X654Y352D01*
X404Y351D02*
X416Y351D01*
X449Y351D02*
X460Y351D01*
X514Y351D02*
X523Y351D01*
X598Y351D02*
X607Y351D01*
X644Y351D02*
X654Y351D01*
X373Y350D02*
X377Y350D01*
X405Y350D02*
X417Y350D01*
X450Y350D02*
X460Y350D01*
X514Y350D02*
X523Y350D01*
X598Y350D02*
X607Y350D01*
X644Y350D02*
X654Y350D01*
X371Y349D02*
X378Y349D01*
X406Y349D02*
X418Y349D01*
X450Y349D02*
X461Y349D01*
X514Y349D02*
X523Y349D01*
X598Y349D02*
X607Y349D01*
X644Y349D02*
X654Y349D01*
X371Y348D02*
X379Y348D01*
X406Y348D02*
X418Y348D01*
X451Y348D02*
X461Y348D01*
X514Y348D02*
X523Y348D01*
X598Y348D02*
X607Y348D01*
X644Y348D02*
X654Y348D01*
X370Y347D02*
X379Y347D01*
X407Y347D02*
X418Y347D01*
X451Y347D02*
X462Y347D01*
X514Y347D02*
X523Y347D01*
X598Y347D02*
X607Y347D01*
X644Y347D02*
X654Y347D01*
X370Y346D02*
X379Y346D01*
X408Y346D02*
X419Y346D01*
X452Y346D02*
X462Y346D01*
X514Y346D02*
X523Y346D01*
X598Y346D02*
X607Y346D01*
X644Y346D02*
X654Y346D01*
X370Y345D02*
X379Y345D01*
X409Y345D02*
X419Y345D01*
X452Y345D02*
X463Y345D01*
X514Y345D02*
X523Y345D01*
X598Y345D02*
X607Y345D01*
X644Y345D02*
X653Y345D01*
X370Y344D02*
X380Y344D01*
X410Y344D02*
X419Y344D01*
X453Y344D02*
X464Y344D01*
X514Y344D02*
X523Y344D01*
X598Y344D02*
X607Y344D01*
X644Y344D02*
X653Y344D01*
X370Y343D02*
X381Y343D01*
X410Y343D02*
X419Y343D01*
X453Y343D02*
X465Y343D01*
X514Y343D02*
X523Y343D01*
X598Y343D02*
X607Y343D01*
X644Y343D02*
X653Y343D01*
X371Y342D02*
X419Y342D01*
X454Y342D02*
X488Y342D01*
X514Y342D02*
X560Y342D01*
X598Y342D02*
X608Y342D01*
X643Y342D02*
X653Y342D01*
X371Y341D02*
X419Y341D01*
X455Y341D02*
X489Y341D01*
X514Y341D02*
X561Y341D01*
X598Y341D02*
X609Y341D01*
X642Y341D02*
X653Y341D01*
X371Y340D02*
X418Y340D01*
X455Y340D02*
X490Y340D01*
X514Y340D02*
X562Y340D01*
X599Y340D02*
X610Y340D01*
X641Y340D02*
X652Y340D01*
X372Y339D02*
X418Y339D01*
X456Y339D02*
X491Y339D01*
X514Y339D02*
X563Y339D01*
X599Y339D02*
X611Y339D01*
X641Y339D02*
X652Y339D01*
X373Y338D02*
X417Y338D01*
X456Y338D02*
X491Y338D01*
X514Y338D02*
X563Y338D01*
X600Y338D02*
X612Y338D01*
X639Y338D02*
X651Y338D01*
X373Y337D02*
X417Y337D01*
X457Y337D02*
X491Y337D01*
X514Y337D02*
X563Y337D01*
X600Y337D02*
X614Y337D01*
X637Y337D02*
X651Y337D01*
X374Y336D02*
X416Y336D01*
X459Y336D02*
X491Y336D01*
X514Y336D02*
X563Y336D01*
X601Y336D02*
X650Y336D01*
X376Y335D02*
X415Y335D01*
X460Y335D02*
X490Y335D01*
X514Y335D02*
X562Y335D01*
X602Y335D02*
X649Y335D01*
X377Y334D02*
X414Y334D01*
X461Y334D02*
X490Y334D01*
X514Y334D02*
X562Y334D01*
X603Y334D02*
X649Y334D01*
X379Y333D02*
X412Y333D01*
X464Y333D02*
X488Y333D01*
X514Y333D02*
X560Y333D01*
X604Y333D02*
X648Y333D01*
X605Y332D02*
X647Y332D01*
X606Y331D02*
X646Y331D01*
X607Y330D02*
X645Y330D01*
X608Y329D02*
X643Y329D01*
X611Y328D02*
X641Y328D01*
X615Y327D02*
X637Y327D01*
X379Y305D02*
X409Y305D01*
X446Y305D02*
X468Y305D01*
X538Y305D02*
X540Y305D01*
X376Y304D02*
X411Y304D01*
X444Y304D02*
X471Y304D01*
X536Y304D02*
X542Y304D01*
X579Y304D02*
X592Y304D01*
X375Y303D02*
X413Y303D01*
X443Y303D02*
X473Y303D01*
X535Y303D02*
X543Y303D01*
X578Y303D02*
X593Y303D01*
X374Y302D02*
X414Y302D01*
X443Y302D02*
X474Y302D01*
X535Y302D02*
X543Y302D01*
X577Y302D02*
X594Y302D01*
X373Y301D02*
X415Y301D01*
X443Y301D02*
X475Y301D01*
X534Y301D02*
X543Y301D01*
X577Y301D02*
X596Y301D01*
X372Y300D02*
X416Y300D01*
X442Y300D02*
X476Y300D01*
X534Y300D02*
X544Y300D01*
X577Y300D02*
X597Y300D01*
X372Y299D02*
X417Y299D01*
X443Y299D02*
X477Y299D01*
X534Y299D02*
X544Y299D01*
X577Y299D02*
X598Y299D01*
X371Y298D02*
X418Y298D01*
X443Y298D02*
X478Y298D01*
X533Y298D02*
X544Y298D01*
X577Y298D02*
X599Y298D01*
X371Y297D02*
X418Y297D01*
X444Y297D02*
X478Y297D01*
X533Y297D02*
X544Y297D01*
X577Y297D02*
X601Y297D01*
X371Y296D02*
X419Y296D01*
X445Y296D02*
X479Y296D01*
X533Y296D02*
X545Y296D01*
X578Y296D02*
X602Y296D01*
X371Y295D02*
X380Y295D01*
X408Y295D02*
X419Y295D01*
X452Y295D02*
X462Y295D01*
X468Y295D02*
X479Y295D01*
X532Y295D02*
X545Y295D01*
X579Y295D02*
X603Y295D01*
X370Y294D02*
X380Y294D01*
X409Y294D02*
X419Y294D01*
X452Y294D02*
X461Y294D01*
X469Y294D02*
X480Y294D01*
X532Y294D02*
X545Y294D01*
X589Y294D02*
X604Y294D01*
X371Y293D02*
X380Y293D01*
X410Y293D02*
X419Y293D01*
X452Y293D02*
X461Y293D01*
X470Y293D02*
X480Y293D01*
X532Y293D02*
X546Y293D01*
X590Y293D02*
X606Y293D01*
X371Y292D02*
X381Y292D01*
X410Y292D02*
X419Y292D01*
X452Y292D02*
X461Y292D01*
X471Y292D02*
X481Y292D01*
X532Y292D02*
X546Y292D01*
X592Y292D02*
X607Y292D01*
X371Y291D02*
X382Y291D01*
X410Y291D02*
X419Y291D01*
X452Y291D02*
X461Y291D01*
X471Y291D02*
X482Y291D01*
X531Y291D02*
X546Y291D01*
X593Y291D02*
X608Y291D01*
X371Y290D02*
X382Y290D01*
X410Y290D02*
X419Y290D01*
X452Y290D02*
X461Y290D01*
X472Y290D02*
X482Y290D01*
X531Y290D02*
X547Y290D01*
X594Y290D02*
X610Y290D01*
X372Y289D02*
X383Y289D01*
X411Y289D02*
X418Y289D01*
X452Y289D02*
X461Y289D01*
X472Y289D02*
X483Y289D01*
X531Y289D02*
X547Y289D01*
X595Y289D02*
X611Y289D01*
X372Y288D02*
X384Y288D01*
X412Y288D02*
X417Y288D01*
X452Y288D02*
X461Y288D01*
X473Y288D02*
X483Y288D01*
X530Y288D02*
X547Y288D01*
X597Y288D02*
X612Y288D01*
X373Y287D02*
X385Y287D01*
X414Y287D02*
X416Y287D01*
X452Y287D02*
X461Y287D01*
X473Y287D02*
X484Y287D01*
X530Y287D02*
X547Y287D01*
X598Y287D02*
X613Y287D01*
X373Y286D02*
X385Y286D01*
X452Y286D02*
X461Y286D01*
X474Y286D02*
X484Y286D01*
X530Y286D02*
X548Y286D01*
X599Y286D02*
X615Y286D01*
X374Y285D02*
X386Y285D01*
X452Y285D02*
X461Y285D01*
X474Y285D02*
X485Y285D01*
X529Y285D02*
X548Y285D01*
X601Y285D02*
X616Y285D01*
X375Y284D02*
X387Y284D01*
X452Y284D02*
X461Y284D01*
X475Y284D02*
X485Y284D01*
X529Y284D02*
X548Y284D01*
X602Y284D02*
X651Y284D01*
X376Y283D02*
X388Y283D01*
X452Y283D02*
X461Y283D01*
X475Y283D02*
X486Y283D01*
X529Y283D02*
X549Y283D01*
X603Y283D02*
X652Y283D01*
X377Y282D02*
X389Y282D01*
X452Y282D02*
X461Y282D01*
X476Y282D02*
X486Y282D01*
X529Y282D02*
X549Y282D01*
X604Y282D02*
X653Y282D01*
X377Y281D02*
X389Y281D01*
X452Y281D02*
X461Y281D01*
X476Y281D02*
X487Y281D01*
X528Y281D02*
X538Y281D01*
X540Y281D02*
X549Y281D01*
X606Y281D02*
X653Y281D01*
X378Y280D02*
X390Y280D01*
X452Y280D02*
X461Y280D01*
X477Y280D02*
X487Y280D01*
X528Y280D02*
X538Y280D01*
X540Y280D02*
X549Y280D01*
X607Y280D02*
X653Y280D01*
X379Y279D02*
X391Y279D01*
X452Y279D02*
X461Y279D01*
X477Y279D02*
X488Y279D01*
X528Y279D02*
X537Y279D01*
X540Y279D02*
X550Y279D01*
X606Y279D02*
X653Y279D01*
X380Y278D02*
X392Y278D01*
X452Y278D02*
X461Y278D01*
X478Y278D02*
X488Y278D01*
X527Y278D02*
X537Y278D01*
X540Y278D02*
X550Y278D01*
X605Y278D02*
X653Y278D01*
X380Y277D02*
X392Y277D01*
X452Y277D02*
X461Y277D01*
X478Y277D02*
X489Y277D01*
X527Y277D02*
X537Y277D01*
X541Y277D02*
X550Y277D01*
X604Y277D02*
X653Y277D01*
X381Y276D02*
X393Y276D01*
X452Y276D02*
X461Y276D01*
X479Y276D02*
X489Y276D01*
X527Y276D02*
X536Y276D01*
X541Y276D02*
X551Y276D01*
X603Y276D02*
X652Y276D01*
X382Y275D02*
X394Y275D01*
X452Y275D02*
X461Y275D01*
X479Y275D02*
X489Y275D01*
X527Y275D02*
X536Y275D01*
X541Y275D02*
X551Y275D01*
X601Y275D02*
X650Y275D01*
X383Y274D02*
X395Y274D01*
X452Y274D02*
X461Y274D01*
X480Y274D02*
X490Y274D01*
X526Y274D02*
X536Y274D01*
X542Y274D02*
X551Y274D01*
X600Y274D02*
X615Y274D01*
X384Y273D02*
X396Y273D01*
X452Y273D02*
X461Y273D01*
X480Y273D02*
X490Y273D01*
X526Y273D02*
X536Y273D01*
X542Y273D02*
X551Y273D01*
X599Y273D02*
X614Y273D01*
X384Y272D02*
X396Y272D01*
X452Y272D02*
X461Y272D01*
X481Y272D02*
X490Y272D01*
X526Y272D02*
X535Y272D01*
X542Y272D02*
X552Y272D01*
X597Y272D02*
X613Y272D01*
X385Y271D02*
X397Y271D01*
X452Y271D02*
X461Y271D01*
X481Y271D02*
X491Y271D01*
X525Y271D02*
X535Y271D01*
X543Y271D02*
X552Y271D01*
X596Y271D02*
X612Y271D01*
X386Y270D02*
X398Y270D01*
X452Y270D02*
X461Y270D01*
X481Y270D02*
X491Y270D01*
X525Y270D02*
X535Y270D01*
X543Y270D02*
X552Y270D01*
X595Y270D02*
X610Y270D01*
X387Y269D02*
X399Y269D01*
X452Y269D02*
X461Y269D01*
X482Y269D02*
X491Y269D01*
X525Y269D02*
X534Y269D01*
X543Y269D02*
X553Y269D01*
X594Y269D02*
X609Y269D01*
X387Y268D02*
X399Y268D01*
X452Y268D02*
X461Y268D01*
X482Y268D02*
X491Y268D01*
X525Y268D02*
X534Y268D01*
X543Y268D02*
X553Y268D01*
X592Y268D02*
X608Y268D01*
X388Y267D02*
X400Y267D01*
X452Y267D02*
X461Y267D01*
X482Y267D02*
X491Y267D01*
X524Y267D02*
X534Y267D01*
X544Y267D02*
X553Y267D01*
X591Y267D02*
X606Y267D01*
X389Y266D02*
X401Y266D01*
X452Y266D02*
X461Y266D01*
X482Y266D02*
X491Y266D01*
X524Y266D02*
X533Y266D01*
X544Y266D02*
X554Y266D01*
X590Y266D02*
X605Y266D01*
X390Y265D02*
X402Y265D01*
X452Y265D02*
X461Y265D01*
X482Y265D02*
X491Y265D01*
X524Y265D02*
X533Y265D01*
X544Y265D02*
X554Y265D01*
X588Y265D02*
X604Y265D01*
X391Y264D02*
X403Y264D01*
X452Y264D02*
X461Y264D01*
X482Y264D02*
X491Y264D01*
X523Y264D02*
X533Y264D01*
X545Y264D02*
X554Y264D01*
X579Y264D02*
X603Y264D01*
X391Y263D02*
X403Y263D01*
X452Y263D02*
X461Y263D01*
X482Y263D02*
X491Y263D01*
X523Y263D02*
X533Y263D01*
X545Y263D02*
X554Y263D01*
X578Y263D02*
X601Y263D01*
X392Y262D02*
X404Y262D01*
X452Y262D02*
X461Y262D01*
X481Y262D02*
X491Y262D01*
X523Y262D02*
X532Y262D01*
X545Y262D02*
X555Y262D01*
X577Y262D02*
X600Y262D01*
X393Y261D02*
X405Y261D01*
X452Y261D02*
X461Y261D01*
X481Y261D02*
X491Y261D01*
X522Y261D02*
X532Y261D01*
X545Y261D02*
X555Y261D01*
X577Y261D02*
X599Y261D01*
X394Y260D02*
X406Y260D01*
X452Y260D02*
X461Y260D01*
X480Y260D02*
X490Y260D01*
X522Y260D02*
X532Y260D01*
X546Y260D02*
X555Y260D01*
X577Y260D02*
X597Y260D01*
X394Y259D02*
X406Y259D01*
X452Y259D02*
X461Y259D01*
X480Y259D02*
X490Y259D01*
X522Y259D02*
X531Y259D01*
X546Y259D02*
X556Y259D01*
X577Y259D02*
X596Y259D01*
X395Y258D02*
X407Y258D01*
X452Y258D02*
X461Y258D01*
X479Y258D02*
X490Y258D01*
X522Y258D02*
X531Y258D01*
X546Y258D02*
X556Y258D01*
X577Y258D02*
X595Y258D01*
X396Y257D02*
X408Y257D01*
X452Y257D02*
X461Y257D01*
X479Y257D02*
X489Y257D01*
X521Y257D02*
X531Y257D01*
X547Y257D02*
X556Y257D01*
X578Y257D02*
X594Y257D01*
X397Y256D02*
X409Y256D01*
X452Y256D02*
X461Y256D01*
X478Y256D02*
X489Y256D01*
X521Y256D02*
X531Y256D01*
X547Y256D02*
X556Y256D01*
X578Y256D02*
X592Y256D01*
X398Y255D02*
X410Y255D01*
X452Y255D02*
X461Y255D01*
X478Y255D02*
X488Y255D01*
X521Y255D02*
X530Y255D01*
X547Y255D02*
X557Y255D01*
X581Y255D02*
X591Y255D01*
X398Y254D02*
X410Y254D01*
X452Y254D02*
X461Y254D01*
X477Y254D02*
X488Y254D01*
X520Y254D02*
X557Y254D01*
X399Y253D02*
X411Y253D01*
X452Y253D02*
X461Y253D01*
X477Y253D02*
X487Y253D01*
X520Y253D02*
X557Y253D01*
X400Y252D02*
X412Y252D01*
X452Y252D02*
X461Y252D01*
X476Y252D02*
X487Y252D01*
X520Y252D02*
X558Y252D01*
X401Y251D02*
X413Y251D01*
X452Y251D02*
X461Y251D01*
X476Y251D02*
X486Y251D01*
X520Y251D02*
X558Y251D01*
X401Y250D02*
X413Y250D01*
X452Y250D02*
X461Y250D01*
X475Y250D02*
X486Y250D01*
X519Y250D02*
X558Y250D01*
X402Y249D02*
X414Y249D01*
X452Y249D02*
X461Y249D01*
X475Y249D02*
X485Y249D01*
X519Y249D02*
X558Y249D01*
X403Y248D02*
X415Y248D01*
X452Y248D02*
X461Y248D01*
X474Y248D02*
X485Y248D01*
X519Y248D02*
X559Y248D01*
X404Y247D02*
X416Y247D01*
X452Y247D02*
X461Y247D01*
X474Y247D02*
X484Y247D01*
X518Y247D02*
X559Y247D01*
X404Y246D02*
X417Y246D01*
X452Y246D02*
X461Y246D01*
X473Y246D02*
X484Y246D01*
X518Y246D02*
X559Y246D01*
X373Y245D02*
X377Y245D01*
X405Y245D02*
X417Y245D01*
X452Y245D02*
X461Y245D01*
X473Y245D02*
X483Y245D01*
X518Y245D02*
X560Y245D01*
X372Y244D02*
X378Y244D01*
X406Y244D02*
X418Y244D01*
X452Y244D02*
X461Y244D01*
X472Y244D02*
X483Y244D01*
X517Y244D02*
X527Y244D01*
X550Y244D02*
X560Y244D01*
X371Y243D02*
X379Y243D01*
X407Y243D02*
X418Y243D01*
X452Y243D02*
X461Y243D01*
X472Y243D02*
X482Y243D01*
X517Y243D02*
X527Y243D01*
X551Y243D02*
X560Y243D01*
X371Y242D02*
X379Y242D01*
X408Y242D02*
X419Y242D01*
X452Y242D02*
X461Y242D01*
X471Y242D02*
X482Y242D01*
X517Y242D02*
X526Y242D01*
X551Y242D02*
X561Y242D01*
X370Y241D02*
X380Y241D01*
X408Y241D02*
X419Y241D01*
X452Y241D02*
X461Y241D01*
X471Y241D02*
X481Y241D01*
X517Y241D02*
X526Y241D01*
X551Y241D02*
X561Y241D01*
X371Y240D02*
X380Y240D01*
X409Y240D02*
X419Y240D01*
X452Y240D02*
X461Y240D01*
X470Y240D02*
X481Y240D01*
X516Y240D02*
X526Y240D01*
X552Y240D02*
X561Y240D01*
X371Y239D02*
X380Y239D01*
X410Y239D02*
X419Y239D01*
X452Y239D02*
X461Y239D01*
X470Y239D02*
X480Y239D01*
X516Y239D02*
X526Y239D01*
X552Y239D02*
X561Y239D01*
X371Y238D02*
X381Y238D01*
X410Y238D02*
X419Y238D01*
X452Y238D02*
X461Y238D01*
X468Y238D02*
X480Y238D01*
X516Y238D02*
X525Y238D01*
X552Y238D02*
X562Y238D01*
X371Y237D02*
X419Y237D01*
X445Y237D02*
X479Y237D01*
X515Y237D02*
X525Y237D01*
X553Y237D02*
X562Y237D01*
X371Y236D02*
X419Y236D01*
X444Y236D02*
X479Y236D01*
X515Y236D02*
X525Y236D01*
X553Y236D02*
X562Y236D01*
X372Y235D02*
X418Y235D01*
X443Y235D02*
X478Y235D01*
X515Y235D02*
X524Y235D01*
X553Y235D02*
X563Y235D01*
X372Y234D02*
X418Y234D01*
X443Y234D02*
X478Y234D01*
X515Y234D02*
X524Y234D01*
X553Y234D02*
X563Y234D01*
X373Y233D02*
X418Y233D01*
X443Y233D02*
X477Y233D01*
X514Y233D02*
X524Y233D01*
X554Y233D02*
X563Y233D01*
X374Y232D02*
X417Y232D01*
X442Y232D02*
X476Y232D01*
X514Y232D02*
X524Y232D01*
X554Y232D02*
X563Y232D01*
X375Y231D02*
X416Y231D01*
X443Y231D02*
X475Y231D01*
X514Y231D02*
X523Y231D01*
X554Y231D02*
X563Y231D01*
X376Y230D02*
X415Y230D01*
X443Y230D02*
X474Y230D01*
X515Y230D02*
X523Y230D01*
X555Y230D02*
X563Y230D01*
X378Y229D02*
X414Y229D01*
X444Y229D02*
X472Y229D01*
X516Y229D02*
X522Y229D01*
X555Y229D02*
X562Y229D01*
X380Y228D02*
X412Y228D01*
X445Y228D02*
X470Y228D01*
X517Y228D02*
X521Y228D01*
X557Y228D02*
X560Y228D01*
X399Y208D02*
X414Y208D01*
X442Y208D02*
X454Y208D01*
X518Y208D02*
X537Y208D01*
X394Y207D02*
X416Y207D01*
X441Y207D02*
X454Y207D01*
X483Y207D02*
X488Y207D01*
X516Y207D02*
X541Y207D01*
X392Y206D02*
X417Y206D01*
X441Y206D02*
X455Y206D01*
X482Y206D02*
X489Y206D01*
X515Y206D02*
X543Y206D01*
X390Y205D02*
X418Y205D01*
X441Y205D02*
X455Y205D01*
X482Y205D02*
X490Y205D01*
X514Y205D02*
X545Y205D01*
X389Y204D02*
X418Y204D01*
X441Y204D02*
X456Y204D01*
X481Y204D02*
X490Y204D01*
X514Y204D02*
X546Y204D01*
X388Y203D02*
X418Y203D01*
X441Y203D02*
X456Y203D01*
X481Y203D02*
X490Y203D01*
X513Y203D02*
X547Y203D01*
X387Y202D02*
X418Y202D01*
X441Y202D02*
X456Y202D01*
X481Y202D02*
X490Y202D01*
X514Y202D02*
X548Y202D01*
X386Y201D02*
X418Y201D01*
X441Y201D02*
X457Y201D01*
X481Y201D02*
X490Y201D01*
X514Y201D02*
X549Y201D01*
X386Y200D02*
X417Y200D01*
X441Y200D02*
X457Y200D01*
X481Y200D02*
X490Y200D01*
X515Y200D02*
X549Y200D01*
X385Y199D02*
X416Y199D01*
X441Y199D02*
X458Y199D01*
X481Y199D02*
X490Y199D01*
X516Y199D02*
X550Y199D01*
X384Y198D02*
X413Y198D01*
X441Y198D02*
X458Y198D01*
X481Y198D02*
X490Y198D01*
X518Y198D02*
X550Y198D01*
X383Y197D02*
X395Y197D01*
X441Y197D02*
X459Y197D01*
X481Y197D02*
X490Y197D01*
X523Y197D02*
X532Y197D01*
X540Y197D02*
X551Y197D01*
X382Y196D02*
X394Y196D01*
X441Y196D02*
X459Y196D01*
X481Y196D02*
X490Y196D01*
X523Y196D02*
X532Y196D01*
X541Y196D02*
X551Y196D01*
X382Y195D02*
X394Y195D01*
X441Y195D02*
X459Y195D01*
X481Y195D02*
X490Y195D01*
X523Y195D02*
X532Y195D01*
X542Y195D02*
X552Y195D01*
X381Y194D02*
X393Y194D01*
X441Y194D02*
X460Y194D01*
X481Y194D02*
X490Y194D01*
X523Y194D02*
X532Y194D01*
X542Y194D02*
X552Y194D01*
X380Y193D02*
X392Y193D01*
X441Y193D02*
X460Y193D01*
X481Y193D02*
X490Y193D01*
X523Y193D02*
X532Y193D01*
X543Y193D02*
X553Y193D01*
X379Y192D02*
X391Y192D01*
X441Y192D02*
X461Y192D01*
X481Y192D02*
X490Y192D01*
X523Y192D02*
X532Y192D01*
X543Y192D02*
X553Y192D01*
X379Y191D02*
X390Y191D01*
X441Y191D02*
X461Y191D01*
X481Y191D02*
X490Y191D01*
X523Y191D02*
X532Y191D01*
X544Y191D02*
X554Y191D01*
X378Y190D02*
X390Y190D01*
X441Y190D02*
X462Y190D01*
X481Y190D02*
X490Y190D01*
X523Y190D02*
X532Y190D01*
X544Y190D02*
X554Y190D01*
X377Y189D02*
X389Y189D01*
X441Y189D02*
X462Y189D01*
X481Y189D02*
X490Y189D01*
X523Y189D02*
X532Y189D01*
X545Y189D02*
X555Y189D01*
X376Y188D02*
X388Y188D01*
X441Y188D02*
X463Y188D01*
X481Y188D02*
X490Y188D01*
X523Y188D02*
X532Y188D01*
X545Y188D02*
X555Y188D01*
X375Y187D02*
X387Y187D01*
X441Y187D02*
X451Y187D01*
X453Y187D02*
X463Y187D01*
X481Y187D02*
X490Y187D01*
X523Y187D02*
X532Y187D01*
X546Y187D02*
X556Y187D01*
X375Y186D02*
X387Y186D01*
X441Y186D02*
X451Y186D01*
X453Y186D02*
X463Y186D01*
X481Y186D02*
X490Y186D01*
X523Y186D02*
X532Y186D01*
X546Y186D02*
X556Y186D01*
X374Y185D02*
X386Y185D01*
X441Y185D02*
X451Y185D01*
X454Y185D02*
X464Y185D01*
X481Y185D02*
X490Y185D01*
X523Y185D02*
X532Y185D01*
X547Y185D02*
X557Y185D01*
X373Y184D02*
X385Y184D01*
X441Y184D02*
X451Y184D01*
X454Y184D02*
X464Y184D01*
X481Y184D02*
X490Y184D01*
X523Y184D02*
X532Y184D01*
X547Y184D02*
X557Y184D01*
X373Y183D02*
X384Y183D01*
X441Y183D02*
X451Y183D01*
X455Y183D02*
X465Y183D01*
X481Y183D02*
X490Y183D01*
X523Y183D02*
X532Y183D01*
X548Y183D02*
X558Y183D01*
X372Y182D02*
X383Y182D01*
X441Y182D02*
X451Y182D01*
X455Y182D02*
X465Y182D01*
X481Y182D02*
X490Y182D01*
X523Y182D02*
X532Y182D01*
X548Y182D02*
X558Y182D01*
X371Y181D02*
X383Y181D01*
X441Y181D02*
X451Y181D01*
X456Y181D02*
X466Y181D01*
X481Y181D02*
X490Y181D01*
X523Y181D02*
X532Y181D01*
X549Y181D02*
X559Y181D01*
X371Y180D02*
X382Y180D01*
X441Y180D02*
X451Y180D01*
X456Y180D02*
X466Y180D01*
X481Y180D02*
X490Y180D01*
X523Y180D02*
X532Y180D01*
X549Y180D02*
X559Y180D01*
X371Y179D02*
X381Y179D01*
X441Y179D02*
X451Y179D01*
X456Y179D02*
X467Y179D01*
X481Y179D02*
X490Y179D01*
X523Y179D02*
X532Y179D01*
X550Y179D02*
X560Y179D01*
X370Y178D02*
X380Y178D01*
X441Y178D02*
X451Y178D01*
X457Y178D02*
X467Y178D01*
X481Y178D02*
X490Y178D01*
X523Y178D02*
X532Y178D01*
X550Y178D02*
X560Y178D01*
X370Y177D02*
X380Y177D01*
X441Y177D02*
X451Y177D01*
X457Y177D02*
X467Y177D01*
X481Y177D02*
X490Y177D01*
X523Y177D02*
X532Y177D01*
X551Y177D02*
X561Y177D01*
X370Y176D02*
X379Y176D01*
X441Y176D02*
X451Y176D01*
X458Y176D02*
X468Y176D01*
X481Y176D02*
X490Y176D01*
X523Y176D02*
X532Y176D01*
X551Y176D02*
X561Y176D01*
X370Y175D02*
X379Y175D01*
X441Y175D02*
X451Y175D01*
X458Y175D02*
X468Y175D01*
X481Y175D02*
X490Y175D01*
X523Y175D02*
X532Y175D01*
X552Y175D02*
X561Y175D01*
X370Y174D02*
X379Y174D01*
X441Y174D02*
X451Y174D01*
X459Y174D02*
X469Y174D01*
X481Y174D02*
X490Y174D01*
X523Y174D02*
X532Y174D01*
X552Y174D02*
X562Y174D01*
X370Y173D02*
X379Y173D01*
X441Y173D02*
X451Y173D01*
X459Y173D02*
X469Y173D01*
X481Y173D02*
X490Y173D01*
X523Y173D02*
X532Y173D01*
X552Y173D02*
X562Y173D01*
X369Y172D02*
X379Y172D01*
X441Y172D02*
X451Y172D01*
X459Y172D02*
X470Y172D01*
X481Y172D02*
X490Y172D01*
X523Y172D02*
X532Y172D01*
X553Y172D02*
X562Y172D01*
X369Y171D02*
X379Y171D01*
X441Y171D02*
X451Y171D01*
X460Y171D02*
X470Y171D01*
X481Y171D02*
X490Y171D01*
X523Y171D02*
X532Y171D01*
X553Y171D02*
X562Y171D01*
X369Y170D02*
X379Y170D01*
X441Y170D02*
X451Y170D01*
X460Y170D02*
X470Y170D01*
X481Y170D02*
X490Y170D01*
X523Y170D02*
X532Y170D01*
X553Y170D02*
X562Y170D01*
X369Y169D02*
X379Y169D01*
X441Y169D02*
X451Y169D01*
X461Y169D02*
X471Y169D01*
X481Y169D02*
X490Y169D01*
X523Y169D02*
X532Y169D01*
X553Y169D02*
X562Y169D01*
X369Y168D02*
X379Y168D01*
X441Y168D02*
X451Y168D01*
X461Y168D02*
X471Y168D01*
X481Y168D02*
X490Y168D01*
X523Y168D02*
X532Y168D01*
X553Y168D02*
X562Y168D01*
X369Y167D02*
X379Y167D01*
X441Y167D02*
X451Y167D01*
X462Y167D02*
X472Y167D01*
X481Y167D02*
X490Y167D01*
X523Y167D02*
X532Y167D01*
X553Y167D02*
X562Y167D01*
X369Y166D02*
X379Y166D01*
X441Y166D02*
X451Y166D01*
X462Y166D02*
X472Y166D01*
X481Y166D02*
X490Y166D01*
X523Y166D02*
X532Y166D01*
X553Y166D02*
X562Y166D01*
X369Y165D02*
X379Y165D01*
X397Y165D02*
X418Y165D01*
X441Y165D02*
X451Y165D01*
X463Y165D02*
X473Y165D01*
X481Y165D02*
X490Y165D01*
X523Y165D02*
X532Y165D01*
X552Y165D02*
X562Y165D01*
X369Y164D02*
X379Y164D01*
X396Y164D02*
X418Y164D01*
X441Y164D02*
X451Y164D01*
X463Y164D02*
X473Y164D01*
X481Y164D02*
X490Y164D01*
X523Y164D02*
X532Y164D01*
X552Y164D02*
X562Y164D01*
X369Y163D02*
X379Y163D01*
X395Y163D02*
X418Y163D01*
X441Y163D02*
X451Y163D01*
X463Y163D02*
X474Y163D01*
X481Y163D02*
X490Y163D01*
X523Y163D02*
X532Y163D01*
X552Y163D02*
X561Y163D01*
X369Y162D02*
X379Y162D01*
X395Y162D02*
X418Y162D01*
X441Y162D02*
X451Y162D01*
X464Y162D02*
X474Y162D01*
X481Y162D02*
X490Y162D01*
X523Y162D02*
X532Y162D01*
X551Y162D02*
X561Y162D01*
X369Y161D02*
X379Y161D01*
X394Y161D02*
X418Y161D01*
X441Y161D02*
X451Y161D01*
X464Y161D02*
X474Y161D01*
X481Y161D02*
X490Y161D01*
X523Y161D02*
X532Y161D01*
X551Y161D02*
X561Y161D01*
X369Y160D02*
X379Y160D01*
X394Y160D02*
X418Y160D01*
X441Y160D02*
X451Y160D01*
X465Y160D02*
X475Y160D01*
X481Y160D02*
X490Y160D01*
X523Y160D02*
X532Y160D01*
X550Y160D02*
X560Y160D01*
X369Y159D02*
X379Y159D01*
X395Y159D02*
X418Y159D01*
X441Y159D02*
X451Y159D01*
X465Y159D02*
X475Y159D01*
X481Y159D02*
X490Y159D01*
X523Y159D02*
X532Y159D01*
X550Y159D02*
X560Y159D01*
X369Y158D02*
X379Y158D01*
X395Y158D02*
X418Y158D01*
X441Y158D02*
X451Y158D01*
X466Y158D02*
X476Y158D01*
X481Y158D02*
X490Y158D01*
X523Y158D02*
X532Y158D01*
X549Y158D02*
X559Y158D01*
X369Y157D02*
X379Y157D01*
X396Y157D02*
X418Y157D01*
X441Y157D02*
X451Y157D01*
X466Y157D02*
X476Y157D01*
X481Y157D02*
X490Y157D01*
X523Y157D02*
X532Y157D01*
X549Y157D02*
X559Y157D01*
X369Y156D02*
X379Y156D01*
X397Y156D02*
X418Y156D01*
X441Y156D02*
X451Y156D01*
X466Y156D02*
X477Y156D01*
X481Y156D02*
X490Y156D01*
X523Y156D02*
X532Y156D01*
X548Y156D02*
X558Y156D01*
X369Y155D02*
X379Y155D01*
X409Y155D02*
X418Y155D01*
X441Y155D02*
X451Y155D01*
X467Y155D02*
X477Y155D01*
X481Y155D02*
X490Y155D01*
X523Y155D02*
X532Y155D01*
X548Y155D02*
X558Y155D01*
X369Y154D02*
X379Y154D01*
X409Y154D02*
X418Y154D01*
X441Y154D02*
X451Y154D01*
X467Y154D02*
X477Y154D01*
X481Y154D02*
X490Y154D01*
X523Y154D02*
X532Y154D01*
X547Y154D02*
X557Y154D01*
X369Y153D02*
X379Y153D01*
X409Y153D02*
X418Y153D01*
X441Y153D02*
X451Y153D01*
X468Y153D02*
X478Y153D01*
X481Y153D02*
X490Y153D01*
X523Y153D02*
X532Y153D01*
X547Y153D02*
X557Y153D01*
X369Y152D02*
X379Y152D01*
X409Y152D02*
X418Y152D01*
X441Y152D02*
X451Y152D01*
X468Y152D02*
X478Y152D01*
X481Y152D02*
X490Y152D01*
X523Y152D02*
X532Y152D01*
X546Y152D02*
X556Y152D01*
X369Y151D02*
X379Y151D01*
X409Y151D02*
X418Y151D01*
X441Y151D02*
X451Y151D01*
X469Y151D02*
X479Y151D01*
X481Y151D02*
X490Y151D01*
X523Y151D02*
X532Y151D01*
X546Y151D02*
X556Y151D01*
X369Y150D02*
X379Y150D01*
X409Y150D02*
X418Y150D01*
X441Y150D02*
X451Y150D01*
X469Y150D02*
X479Y150D01*
X481Y150D02*
X490Y150D01*
X523Y150D02*
X532Y150D01*
X545Y150D02*
X555Y150D01*
X369Y149D02*
X379Y149D01*
X409Y149D02*
X418Y149D01*
X441Y149D02*
X451Y149D01*
X470Y149D02*
X490Y149D01*
X523Y149D02*
X532Y149D01*
X545Y149D02*
X555Y149D01*
X369Y148D02*
X379Y148D01*
X409Y148D02*
X418Y148D01*
X441Y148D02*
X451Y148D01*
X470Y148D02*
X490Y148D01*
X523Y148D02*
X532Y148D01*
X544Y148D02*
X554Y148D01*
X369Y147D02*
X379Y147D01*
X409Y147D02*
X418Y147D01*
X441Y147D02*
X451Y147D01*
X470Y147D02*
X490Y147D01*
X523Y147D02*
X532Y147D01*
X543Y147D02*
X554Y147D01*
X369Y146D02*
X379Y146D01*
X409Y146D02*
X418Y146D01*
X441Y146D02*
X451Y146D01*
X471Y146D02*
X490Y146D01*
X523Y146D02*
X532Y146D01*
X543Y146D02*
X553Y146D01*
X370Y145D02*
X379Y145D01*
X409Y145D02*
X418Y145D01*
X441Y145D02*
X451Y145D01*
X471Y145D02*
X490Y145D01*
X523Y145D02*
X532Y145D01*
X542Y145D02*
X553Y145D01*
X370Y144D02*
X379Y144D01*
X409Y144D02*
X418Y144D01*
X441Y144D02*
X451Y144D01*
X472Y144D02*
X490Y144D01*
X523Y144D02*
X532Y144D01*
X542Y144D02*
X552Y144D01*
X370Y143D02*
X379Y143D01*
X409Y143D02*
X418Y143D01*
X441Y143D02*
X451Y143D01*
X472Y143D02*
X490Y143D01*
X523Y143D02*
X532Y143D01*
X541Y143D02*
X552Y143D01*
X370Y142D02*
X380Y142D01*
X408Y142D02*
X418Y142D01*
X441Y142D02*
X451Y142D01*
X473Y142D02*
X490Y142D01*
X523Y142D02*
X532Y142D01*
X541Y142D02*
X551Y142D01*
X370Y141D02*
X381Y141D01*
X407Y141D02*
X418Y141D01*
X441Y141D02*
X451Y141D01*
X473Y141D02*
X490Y141D01*
X523Y141D02*
X532Y141D01*
X540Y141D02*
X551Y141D01*
X370Y140D02*
X417Y140D01*
X441Y140D02*
X451Y140D01*
X473Y140D02*
X490Y140D01*
X518Y140D02*
X550Y140D01*
X371Y139D02*
X417Y139D01*
X441Y139D02*
X451Y139D01*
X474Y139D02*
X490Y139D01*
X515Y139D02*
X550Y139D01*
X371Y138D02*
X416Y138D01*
X441Y138D02*
X451Y138D01*
X474Y138D02*
X490Y138D01*
X514Y138D02*
X549Y138D01*
X372Y137D02*
X416Y137D01*
X441Y137D02*
X451Y137D01*
X475Y137D02*
X490Y137D01*
X514Y137D02*
X549Y137D01*
X373Y136D02*
X415Y136D01*
X441Y136D02*
X451Y136D01*
X475Y136D02*
X490Y136D01*
X514Y136D02*
X548Y136D01*
X373Y135D02*
X414Y135D01*
X442Y135D02*
X451Y135D01*
X476Y135D02*
X490Y135D01*
X513Y135D02*
X547Y135D01*
X374Y134D02*
X413Y134D01*
X442Y134D02*
X450Y134D01*
X476Y134D02*
X490Y134D01*
X514Y134D02*
X546Y134D01*
X376Y133D02*
X412Y133D01*
X442Y133D02*
X450Y133D01*
X477Y133D02*
X490Y133D01*
X514Y133D02*
X545Y133D01*
X377Y132D02*
X410Y132D01*
X443Y132D02*
X449Y132D01*
X477Y132D02*
X490Y132D01*
X515Y132D02*
X544Y132D01*
X379Y131D02*
X408Y131D01*
X444Y131D02*
X448Y131D01*
X477Y131D02*
X490Y131D01*
X516Y131D02*
X541Y131D01*
X376Y112D02*
X414Y112D01*
X520Y112D02*
X558Y112D01*
X374Y111D02*
X416Y111D01*
X518Y111D02*
X560Y111D01*
X373Y110D02*
X417Y110D01*
X517Y110D02*
X561Y110D01*
X373Y109D02*
X419Y109D01*
X517Y109D02*
X563Y109D01*
X373Y108D02*
X419Y108D01*
X517Y108D02*
X563Y108D01*
X39Y107D02*
X78Y107D01*
X133Y107D02*
X158Y107D01*
X183Y107D02*
X230Y107D01*
X373Y107D02*
X420Y107D01*
X517Y107D02*
X564Y107D01*
X39Y106D02*
X80Y106D01*
X130Y106D02*
X159Y106D01*
X183Y106D02*
X231Y106D01*
X373Y106D02*
X421Y106D01*
X517Y106D02*
X565Y106D01*
X39Y105D02*
X82Y105D01*
X129Y105D02*
X160Y105D01*
X183Y105D02*
X232Y105D01*
X373Y105D02*
X421Y105D01*
X517Y105D02*
X565Y105D01*
X39Y104D02*
X83Y104D01*
X127Y104D02*
X160Y104D01*
X183Y104D02*
X232Y104D01*
X374Y104D02*
X421Y104D01*
X518Y104D02*
X565Y104D01*
X39Y103D02*
X84Y103D01*
X126Y103D02*
X160Y103D01*
X183Y103D02*
X232Y103D01*
X375Y103D02*
X421Y103D01*
X519Y103D02*
X565Y103D01*
X39Y102D02*
X85Y102D01*
X125Y102D02*
X160Y102D01*
X183Y102D02*
X232Y102D01*
X412Y102D02*
X421Y102D01*
X556Y102D02*
X565Y102D01*
X39Y101D02*
X86Y101D01*
X125Y101D02*
X160Y101D01*
X183Y101D02*
X232Y101D01*
X412Y101D02*
X421Y101D01*
X556Y101D02*
X565Y101D01*
X39Y100D02*
X86Y100D01*
X124Y100D02*
X159Y100D01*
X183Y100D02*
X231Y100D01*
X412Y100D02*
X421Y100D01*
X556Y100D02*
X565Y100D01*
X39Y99D02*
X87Y99D01*
X124Y99D02*
X158Y99D01*
X183Y99D02*
X230Y99D01*
X412Y99D02*
X421Y99D01*
X556Y99D02*
X565Y99D01*
X39Y98D02*
X87Y98D01*
X123Y98D02*
X157Y98D01*
X183Y98D02*
X229Y98D01*
X412Y98D02*
X421Y98D01*
X556Y98D02*
X565Y98D01*
X39Y97D02*
X48Y97D01*
X76Y97D02*
X87Y97D01*
X123Y97D02*
X134Y97D01*
X183Y97D02*
X192Y97D01*
X412Y97D02*
X421Y97D01*
X556Y97D02*
X565Y97D01*
X39Y96D02*
X48Y96D01*
X78Y96D02*
X88Y96D01*
X122Y96D02*
X133Y96D01*
X183Y96D02*
X192Y96D01*
X412Y96D02*
X421Y96D01*
X556Y96D02*
X565Y96D01*
X39Y95D02*
X48Y95D01*
X78Y95D02*
X88Y95D01*
X122Y95D02*
X132Y95D01*
X183Y95D02*
X192Y95D01*
X412Y95D02*
X421Y95D01*
X556Y95D02*
X565Y95D01*
X39Y94D02*
X48Y94D01*
X79Y94D02*
X88Y94D01*
X121Y94D02*
X132Y94D01*
X183Y94D02*
X192Y94D01*
X412Y94D02*
X421Y94D01*
X556Y94D02*
X565Y94D01*
X39Y93D02*
X48Y93D01*
X79Y93D02*
X88Y93D01*
X121Y93D02*
X131Y93D01*
X183Y93D02*
X192Y93D01*
X412Y93D02*
X421Y93D01*
X556Y93D02*
X565Y93D01*
X39Y92D02*
X48Y92D01*
X79Y92D02*
X88Y92D01*
X120Y92D02*
X131Y92D01*
X183Y92D02*
X192Y92D01*
X412Y92D02*
X421Y92D01*
X556Y92D02*
X565Y92D01*
X39Y91D02*
X48Y91D01*
X79Y91D02*
X88Y91D01*
X120Y91D02*
X130Y91D01*
X183Y91D02*
X192Y91D01*
X412Y91D02*
X421Y91D01*
X449Y91D02*
X449Y91D01*
X488Y91D02*
X489Y91D01*
X556Y91D02*
X565Y91D01*
X39Y90D02*
X48Y90D01*
X79Y90D02*
X88Y90D01*
X119Y90D02*
X130Y90D01*
X183Y90D02*
X192Y90D01*
X412Y90D02*
X421Y90D01*
X446Y90D02*
X452Y90D01*
X486Y90D02*
X491Y90D01*
X556Y90D02*
X565Y90D01*
X39Y89D02*
X48Y89D01*
X79Y89D02*
X88Y89D01*
X119Y89D02*
X129Y89D01*
X183Y89D02*
X192Y89D01*
X412Y89D02*
X421Y89D01*
X446Y89D02*
X453Y89D01*
X485Y89D02*
X492Y89D01*
X556Y89D02*
X565Y89D01*
X39Y88D02*
X48Y88D01*
X79Y88D02*
X88Y88D01*
X118Y88D02*
X129Y88D01*
X183Y88D02*
X192Y88D01*
X412Y88D02*
X421Y88D01*
X445Y88D02*
X453Y88D01*
X485Y88D02*
X493Y88D01*
X556Y88D02*
X565Y88D01*
X39Y87D02*
X48Y87D01*
X79Y87D02*
X88Y87D01*
X118Y87D02*
X128Y87D01*
X183Y87D02*
X192Y87D01*
X412Y87D02*
X421Y87D01*
X445Y87D02*
X453Y87D01*
X484Y87D02*
X493Y87D01*
X556Y87D02*
X565Y87D01*
X39Y86D02*
X48Y86D01*
X79Y86D02*
X88Y86D01*
X117Y86D02*
X128Y86D01*
X183Y86D02*
X192Y86D01*
X412Y86D02*
X421Y86D01*
X445Y86D02*
X454Y86D01*
X484Y86D02*
X493Y86D01*
X556Y86D02*
X565Y86D01*
X39Y85D02*
X48Y85D01*
X79Y85D02*
X88Y85D01*
X117Y85D02*
X127Y85D01*
X183Y85D02*
X192Y85D01*
X412Y85D02*
X421Y85D01*
X445Y85D02*
X454Y85D01*
X484Y85D02*
X493Y85D01*
X556Y85D02*
X565Y85D01*
X39Y84D02*
X48Y84D01*
X79Y84D02*
X88Y84D01*
X116Y84D02*
X127Y84D01*
X183Y84D02*
X192Y84D01*
X412Y84D02*
X421Y84D01*
X445Y84D02*
X454Y84D01*
X484Y84D02*
X493Y84D01*
X556Y84D02*
X565Y84D01*
X39Y83D02*
X48Y83D01*
X79Y83D02*
X88Y83D01*
X116Y83D02*
X126Y83D01*
X183Y83D02*
X192Y83D01*
X412Y83D02*
X421Y83D01*
X445Y83D02*
X454Y83D01*
X484Y83D02*
X493Y83D01*
X556Y83D02*
X565Y83D01*
X39Y82D02*
X48Y82D01*
X79Y82D02*
X88Y82D01*
X115Y82D02*
X125Y82D01*
X183Y82D02*
X219Y82D01*
X412Y82D02*
X421Y82D01*
X445Y82D02*
X454Y82D01*
X484Y82D02*
X493Y82D01*
X556Y82D02*
X565Y82D01*
X39Y81D02*
X48Y81D01*
X79Y81D02*
X88Y81D01*
X115Y81D02*
X125Y81D01*
X183Y81D02*
X220Y81D01*
X411Y81D02*
X421Y81D01*
X445Y81D02*
X454Y81D01*
X484Y81D02*
X493Y81D01*
X555Y81D02*
X565Y81D01*
X39Y80D02*
X48Y80D01*
X79Y80D02*
X88Y80D01*
X114Y80D02*
X124Y80D01*
X183Y80D02*
X221Y80D01*
X411Y80D02*
X421Y80D01*
X445Y80D02*
X454Y80D01*
X484Y80D02*
X493Y80D01*
X555Y80D02*
X565Y80D01*
X39Y79D02*
X48Y79D01*
X79Y79D02*
X88Y79D01*
X114Y79D02*
X124Y79D01*
X183Y79D02*
X222Y79D01*
X409Y79D02*
X421Y79D01*
X445Y79D02*
X454Y79D01*
X484Y79D02*
X493Y79D01*
X553Y79D02*
X565Y79D01*
X39Y78D02*
X48Y78D01*
X79Y78D02*
X88Y78D01*
X113Y78D02*
X123Y78D01*
X183Y78D02*
X222Y78D01*
X385Y78D02*
X420Y78D01*
X445Y78D02*
X454Y78D01*
X484Y78D02*
X493Y78D01*
X529Y78D02*
X564Y78D01*
X39Y77D02*
X48Y77D01*
X79Y77D02*
X88Y77D01*
X113Y77D02*
X123Y77D01*
X183Y77D02*
X222Y77D01*
X384Y77D02*
X420Y77D01*
X445Y77D02*
X454Y77D01*
X483Y77D02*
X493Y77D01*
X528Y77D02*
X564Y77D01*
X39Y76D02*
X48Y76D01*
X79Y76D02*
X88Y76D01*
X113Y76D02*
X122Y76D01*
X183Y76D02*
X222Y76D01*
X383Y76D02*
X419Y76D01*
X445Y76D02*
X455Y76D01*
X483Y76D02*
X493Y76D01*
X527Y76D02*
X563Y76D01*
X39Y75D02*
X48Y75D01*
X79Y75D02*
X88Y75D01*
X112Y75D02*
X122Y75D01*
X183Y75D02*
X222Y75D01*
X383Y75D02*
X419Y75D01*
X445Y75D02*
X455Y75D01*
X483Y75D02*
X493Y75D01*
X527Y75D02*
X563Y75D01*
X39Y74D02*
X48Y74D01*
X79Y74D02*
X88Y74D01*
X112Y74D02*
X122Y74D01*
X183Y74D02*
X221Y74D01*
X383Y74D02*
X418Y74D01*
X446Y74D02*
X456Y74D01*
X482Y74D02*
X492Y74D01*
X527Y74D02*
X562Y74D01*
X39Y73D02*
X48Y73D01*
X79Y73D02*
X88Y73D01*
X112Y73D02*
X121Y73D01*
X183Y73D02*
X220Y73D01*
X383Y73D02*
X418Y73D01*
X446Y73D02*
X456Y73D01*
X482Y73D02*
X492Y73D01*
X526Y73D02*
X562Y73D01*
X39Y72D02*
X48Y72D01*
X78Y72D02*
X88Y72D01*
X112Y72D02*
X121Y72D01*
X183Y72D02*
X193Y72D01*
X383Y72D02*
X418Y72D01*
X446Y72D02*
X457Y72D01*
X481Y72D02*
X491Y72D01*
X527Y72D02*
X562Y72D01*
X39Y71D02*
X48Y71D01*
X77Y71D02*
X88Y71D01*
X111Y71D02*
X121Y71D01*
X183Y71D02*
X192Y71D01*
X383Y71D02*
X419Y71D01*
X447Y71D02*
X457Y71D01*
X481Y71D02*
X491Y71D01*
X527Y71D02*
X563Y71D01*
X39Y70D02*
X49Y70D01*
X76Y70D02*
X87Y70D01*
X111Y70D02*
X121Y70D01*
X183Y70D02*
X192Y70D01*
X384Y70D02*
X420Y70D01*
X447Y70D02*
X457Y70D01*
X480Y70D02*
X490Y70D01*
X528Y70D02*
X564Y70D01*
X39Y69D02*
X87Y69D01*
X111Y69D02*
X120Y69D01*
X183Y69D02*
X192Y69D01*
X385Y69D02*
X420Y69D01*
X448Y69D02*
X458Y69D01*
X480Y69D02*
X490Y69D01*
X529Y69D02*
X564Y69D01*
X39Y68D02*
X87Y68D01*
X111Y68D02*
X121Y68D01*
X183Y68D02*
X192Y68D01*
X409Y68D02*
X421Y68D01*
X448Y68D02*
X458Y68D01*
X480Y68D02*
X490Y68D01*
X553Y68D02*
X564Y68D01*
X39Y67D02*
X86Y67D01*
X111Y67D02*
X121Y67D01*
X183Y67D02*
X192Y67D01*
X410Y67D02*
X421Y67D01*
X449Y67D02*
X459Y67D01*
X479Y67D02*
X489Y67D01*
X554Y67D02*
X565Y67D01*
X39Y66D02*
X85Y66D01*
X112Y66D02*
X121Y66D01*
X183Y66D02*
X192Y66D01*
X411Y66D02*
X421Y66D01*
X449Y66D02*
X459Y66D01*
X479Y66D02*
X489Y66D01*
X555Y66D02*
X565Y66D01*
X39Y65D02*
X84Y65D01*
X112Y65D02*
X121Y65D01*
X183Y65D02*
X192Y65D01*
X412Y65D02*
X421Y65D01*
X450Y65D02*
X460Y65D01*
X478Y65D02*
X488Y65D01*
X556Y65D02*
X565Y65D01*
X39Y64D02*
X84Y64D01*
X112Y64D02*
X121Y64D01*
X183Y64D02*
X192Y64D01*
X412Y64D02*
X421Y64D01*
X450Y64D02*
X460Y64D01*
X478Y64D02*
X488Y64D01*
X556Y64D02*
X565Y64D01*
X39Y63D02*
X82Y63D01*
X112Y63D02*
X122Y63D01*
X183Y63D02*
X192Y63D01*
X412Y63D02*
X421Y63D01*
X450Y63D02*
X460Y63D01*
X477Y63D02*
X487Y63D01*
X556Y63D02*
X565Y63D01*
X39Y62D02*
X81Y62D01*
X112Y62D02*
X122Y62D01*
X183Y62D02*
X192Y62D01*
X412Y62D02*
X421Y62D01*
X451Y62D02*
X461Y62D01*
X477Y62D02*
X487Y62D01*
X556Y62D02*
X565Y62D01*
X39Y61D02*
X79Y61D01*
X113Y61D02*
X123Y61D01*
X183Y61D02*
X192Y61D01*
X412Y61D02*
X421Y61D01*
X451Y61D02*
X461Y61D01*
X476Y61D02*
X486Y61D01*
X556Y61D02*
X565Y61D01*
X39Y60D02*
X77Y60D01*
X113Y60D02*
X123Y60D01*
X183Y60D02*
X192Y60D01*
X412Y60D02*
X421Y60D01*
X452Y60D02*
X462Y60D01*
X476Y60D02*
X486Y60D01*
X556Y60D02*
X565Y60D01*
X39Y59D02*
X48Y59D01*
X114Y59D02*
X124Y59D01*
X183Y59D02*
X192Y59D01*
X412Y59D02*
X421Y59D01*
X452Y59D02*
X462Y59D01*
X476Y59D02*
X486Y59D01*
X556Y59D02*
X565Y59D01*
X39Y58D02*
X48Y58D01*
X114Y58D02*
X124Y58D01*
X183Y58D02*
X192Y58D01*
X412Y58D02*
X421Y58D01*
X453Y58D02*
X463Y58D01*
X475Y58D02*
X485Y58D01*
X556Y58D02*
X565Y58D01*
X39Y57D02*
X48Y57D01*
X114Y57D02*
X125Y57D01*
X183Y57D02*
X192Y57D01*
X412Y57D02*
X421Y57D01*
X453Y57D02*
X463Y57D01*
X475Y57D02*
X485Y57D01*
X556Y57D02*
X565Y57D01*
X39Y56D02*
X48Y56D01*
X115Y56D02*
X125Y56D01*
X183Y56D02*
X192Y56D01*
X412Y56D02*
X421Y56D01*
X453Y56D02*
X463Y56D01*
X474Y56D02*
X484Y56D01*
X556Y56D02*
X565Y56D01*
X39Y55D02*
X48Y55D01*
X115Y55D02*
X126Y55D01*
X183Y55D02*
X192Y55D01*
X412Y55D02*
X421Y55D01*
X454Y55D02*
X464Y55D01*
X474Y55D02*
X484Y55D01*
X556Y55D02*
X565Y55D01*
X39Y54D02*
X48Y54D01*
X116Y54D02*
X126Y54D01*
X183Y54D02*
X192Y54D01*
X412Y54D02*
X421Y54D01*
X454Y54D02*
X464Y54D01*
X473Y54D02*
X483Y54D01*
X556Y54D02*
X565Y54D01*
X39Y53D02*
X48Y53D01*
X116Y53D02*
X127Y53D01*
X183Y53D02*
X192Y53D01*
X412Y53D02*
X421Y53D01*
X455Y53D02*
X465Y53D01*
X473Y53D02*
X483Y53D01*
X556Y53D02*
X565Y53D01*
X39Y52D02*
X48Y52D01*
X117Y52D02*
X127Y52D01*
X183Y52D02*
X192Y52D01*
X412Y52D02*
X421Y52D01*
X455Y52D02*
X465Y52D01*
X473Y52D02*
X483Y52D01*
X556Y52D02*
X565Y52D01*
X39Y51D02*
X48Y51D01*
X117Y51D02*
X128Y51D01*
X183Y51D02*
X192Y51D01*
X412Y51D02*
X421Y51D01*
X456Y51D02*
X466Y51D01*
X472Y51D02*
X482Y51D01*
X556Y51D02*
X565Y51D01*
X39Y50D02*
X48Y50D01*
X118Y50D02*
X128Y50D01*
X183Y50D02*
X192Y50D01*
X412Y50D02*
X421Y50D01*
X456Y50D02*
X466Y50D01*
X472Y50D02*
X482Y50D01*
X556Y50D02*
X565Y50D01*
X39Y49D02*
X48Y49D01*
X118Y49D02*
X129Y49D01*
X183Y49D02*
X192Y49D01*
X412Y49D02*
X421Y49D01*
X457Y49D02*
X466Y49D01*
X471Y49D02*
X481Y49D01*
X556Y49D02*
X565Y49D01*
X39Y48D02*
X48Y48D01*
X119Y48D02*
X129Y48D01*
X183Y48D02*
X192Y48D01*
X412Y48D02*
X421Y48D01*
X457Y48D02*
X467Y48D01*
X471Y48D02*
X481Y48D01*
X556Y48D02*
X565Y48D01*
X39Y47D02*
X48Y47D01*
X119Y47D02*
X130Y47D01*
X183Y47D02*
X192Y47D01*
X412Y47D02*
X421Y47D01*
X457Y47D02*
X467Y47D01*
X470Y47D02*
X480Y47D01*
X556Y47D02*
X565Y47D01*
X39Y46D02*
X48Y46D01*
X120Y46D02*
X130Y46D01*
X183Y46D02*
X192Y46D01*
X412Y46D02*
X421Y46D01*
X458Y46D02*
X468Y46D01*
X470Y46D02*
X480Y46D01*
X556Y46D02*
X565Y46D01*
X39Y45D02*
X48Y45D01*
X120Y45D02*
X131Y45D01*
X183Y45D02*
X192Y45D01*
X412Y45D02*
X421Y45D01*
X458Y45D02*
X479Y45D01*
X556Y45D02*
X565Y45D01*
X39Y44D02*
X48Y44D01*
X121Y44D02*
X131Y44D01*
X183Y44D02*
X192Y44D01*
X376Y44D02*
X421Y44D01*
X459Y44D02*
X479Y44D01*
X520Y44D02*
X565Y44D01*
X39Y43D02*
X48Y43D01*
X121Y43D02*
X132Y43D01*
X183Y43D02*
X192Y43D01*
X374Y43D02*
X421Y43D01*
X459Y43D02*
X479Y43D01*
X518Y43D02*
X565Y43D01*
X39Y42D02*
X48Y42D01*
X122Y42D02*
X132Y42D01*
X183Y42D02*
X192Y42D01*
X373Y42D02*
X421Y42D01*
X460Y42D02*
X478Y42D01*
X517Y42D02*
X565Y42D01*
X39Y41D02*
X48Y41D01*
X123Y41D02*
X133Y41D01*
X183Y41D02*
X192Y41D01*
X373Y41D02*
X421Y41D01*
X460Y41D02*
X478Y41D01*
X517Y41D02*
X565Y41D01*
X39Y40D02*
X48Y40D01*
X123Y40D02*
X136Y40D01*
X183Y40D02*
X192Y40D01*
X373Y40D02*
X420Y40D01*
X460Y40D02*
X477Y40D01*
X517Y40D02*
X564Y40D01*
X39Y39D02*
X48Y39D01*
X124Y39D02*
X158Y39D01*
X183Y39D02*
X192Y39D01*
X373Y39D02*
X420Y39D01*
X461Y39D02*
X477Y39D01*
X517Y39D02*
X564Y39D01*
X39Y38D02*
X48Y38D01*
X124Y38D02*
X159Y38D01*
X183Y38D02*
X192Y38D01*
X373Y38D02*
X419Y38D01*
X461Y38D02*
X476Y38D01*
X517Y38D02*
X563Y38D01*
X39Y37D02*
X48Y37D01*
X125Y37D02*
X160Y37D01*
X183Y37D02*
X192Y37D01*
X373Y37D02*
X418Y37D01*
X462Y37D02*
X476Y37D01*
X517Y37D02*
X562Y37D01*
X39Y36D02*
X48Y36D01*
X125Y36D02*
X160Y36D01*
X183Y36D02*
X192Y36D01*
X374Y36D02*
X417Y36D01*
X462Y36D02*
X475Y36D01*
X518Y36D02*
X561Y36D01*
X39Y35D02*
X48Y35D01*
X126Y35D02*
X160Y35D01*
X183Y35D02*
X192Y35D01*
X375Y35D02*
X415Y35D01*
X464Y35D02*
X474Y35D01*
X519Y35D02*
X559Y35D01*
X40Y34D02*
X48Y34D01*
X127Y34D02*
X160Y34D01*
X184Y34D02*
X192Y34D01*
X40Y33D02*
X48Y33D01*
X128Y33D02*
X160Y33D01*
X184Y33D02*
X192Y33D01*
X40Y32D02*
X47Y32D01*
X130Y32D02*
X159Y32D01*
X184Y32D02*
X191Y32D01*
X41Y31D02*
X47Y31D01*
X132Y31D02*
X158Y31D01*
X185Y31D02*
X190Y31D01*
X43Y30D02*
X44Y30D01*
X135Y30D02*
X156Y30D01*
X187Y30D02*
X188Y30D01*
D02*
G04 End of Copper1*
M02*