G04 MADE WITH FRITZING*
G04 WWW.FRITZING.ORG*
G04 DOUBLE SIDED*
G04 HOLES PLATED*
G04 CONTOUR ON CENTER OF CONTOUR VECTOR*
%ASAXBY*%
%FSLAX23Y23*%
%MOIN*%
%OFA0B0*%
%SFA1.0B1.0*%
%ADD10C,0.010000*%
%ADD11R,0.001000X0.001000*%
%LNSILK1*%
G90*
G70*
G54D10*
X52Y828D02*
X352Y828D01*
D02*
X352Y828D02*
X352Y1028D01*
D02*
X352Y1028D02*
X52Y1028D01*
D02*
X52Y1028D02*
X52Y828D01*
D02*
X352Y18D02*
X352Y418D01*
D02*
X352Y418D02*
X252Y418D01*
D02*
X252Y418D02*
X252Y18D01*
D02*
X252Y18D02*
X352Y18D01*
G54D11*
X0Y1080D02*
X692Y1080D01*
X0Y1079D02*
X692Y1079D01*
X0Y1078D02*
X692Y1078D01*
X0Y1077D02*
X692Y1077D01*
X0Y1076D02*
X692Y1076D01*
X0Y1075D02*
X692Y1075D01*
X0Y1074D02*
X692Y1074D01*
X0Y1073D02*
X692Y1073D01*
X0Y1072D02*
X7Y1072D01*
X685Y1072D02*
X692Y1072D01*
X0Y1071D02*
X7Y1071D01*
X685Y1071D02*
X692Y1071D01*
X0Y1070D02*
X7Y1070D01*
X685Y1070D02*
X692Y1070D01*
X0Y1069D02*
X7Y1069D01*
X685Y1069D02*
X692Y1069D01*
X0Y1068D02*
X7Y1068D01*
X685Y1068D02*
X692Y1068D01*
X0Y1067D02*
X7Y1067D01*
X685Y1067D02*
X692Y1067D01*
X0Y1066D02*
X7Y1066D01*
X685Y1066D02*
X692Y1066D01*
X0Y1065D02*
X7Y1065D01*
X685Y1065D02*
X692Y1065D01*
X0Y1064D02*
X7Y1064D01*
X685Y1064D02*
X692Y1064D01*
X0Y1063D02*
X7Y1063D01*
X685Y1063D02*
X692Y1063D01*
X0Y1062D02*
X7Y1062D01*
X685Y1062D02*
X692Y1062D01*
X0Y1061D02*
X7Y1061D01*
X685Y1061D02*
X692Y1061D01*
X0Y1060D02*
X7Y1060D01*
X685Y1060D02*
X692Y1060D01*
X0Y1059D02*
X7Y1059D01*
X685Y1059D02*
X692Y1059D01*
X0Y1058D02*
X7Y1058D01*
X685Y1058D02*
X692Y1058D01*
X0Y1057D02*
X7Y1057D01*
X685Y1057D02*
X692Y1057D01*
X0Y1056D02*
X7Y1056D01*
X685Y1056D02*
X692Y1056D01*
X0Y1055D02*
X7Y1055D01*
X685Y1055D02*
X692Y1055D01*
X0Y1054D02*
X7Y1054D01*
X685Y1054D02*
X692Y1054D01*
X0Y1053D02*
X7Y1053D01*
X685Y1053D02*
X692Y1053D01*
X0Y1052D02*
X7Y1052D01*
X685Y1052D02*
X692Y1052D01*
X0Y1051D02*
X7Y1051D01*
X685Y1051D02*
X692Y1051D01*
X0Y1050D02*
X7Y1050D01*
X685Y1050D02*
X692Y1050D01*
X0Y1049D02*
X7Y1049D01*
X685Y1049D02*
X692Y1049D01*
X0Y1048D02*
X7Y1048D01*
X685Y1048D02*
X692Y1048D01*
X0Y1047D02*
X7Y1047D01*
X685Y1047D02*
X692Y1047D01*
X0Y1046D02*
X7Y1046D01*
X685Y1046D02*
X692Y1046D01*
X0Y1045D02*
X7Y1045D01*
X685Y1045D02*
X692Y1045D01*
X0Y1044D02*
X7Y1044D01*
X685Y1044D02*
X692Y1044D01*
X0Y1043D02*
X7Y1043D01*
X685Y1043D02*
X692Y1043D01*
X0Y1042D02*
X7Y1042D01*
X685Y1042D02*
X692Y1042D01*
X0Y1041D02*
X7Y1041D01*
X685Y1041D02*
X692Y1041D01*
X0Y1040D02*
X7Y1040D01*
X685Y1040D02*
X692Y1040D01*
X0Y1039D02*
X7Y1039D01*
X685Y1039D02*
X692Y1039D01*
X0Y1038D02*
X7Y1038D01*
X685Y1038D02*
X692Y1038D01*
X0Y1037D02*
X7Y1037D01*
X685Y1037D02*
X692Y1037D01*
X0Y1036D02*
X7Y1036D01*
X685Y1036D02*
X692Y1036D01*
X0Y1035D02*
X7Y1035D01*
X685Y1035D02*
X692Y1035D01*
X0Y1034D02*
X7Y1034D01*
X685Y1034D02*
X692Y1034D01*
X0Y1033D02*
X7Y1033D01*
X685Y1033D02*
X692Y1033D01*
X0Y1032D02*
X7Y1032D01*
X685Y1032D02*
X692Y1032D01*
X0Y1031D02*
X7Y1031D01*
X685Y1031D02*
X692Y1031D01*
X0Y1030D02*
X7Y1030D01*
X685Y1030D02*
X692Y1030D01*
X0Y1029D02*
X7Y1029D01*
X685Y1029D02*
X692Y1029D01*
X0Y1028D02*
X7Y1028D01*
X685Y1028D02*
X692Y1028D01*
X0Y1027D02*
X7Y1027D01*
X685Y1027D02*
X692Y1027D01*
X0Y1026D02*
X7Y1026D01*
X685Y1026D02*
X692Y1026D01*
X0Y1025D02*
X7Y1025D01*
X685Y1025D02*
X692Y1025D01*
X0Y1024D02*
X7Y1024D01*
X685Y1024D02*
X692Y1024D01*
X0Y1023D02*
X7Y1023D01*
X685Y1023D02*
X692Y1023D01*
X0Y1022D02*
X7Y1022D01*
X685Y1022D02*
X692Y1022D01*
X0Y1021D02*
X7Y1021D01*
X685Y1021D02*
X692Y1021D01*
X0Y1020D02*
X7Y1020D01*
X685Y1020D02*
X692Y1020D01*
X0Y1019D02*
X7Y1019D01*
X685Y1019D02*
X692Y1019D01*
X0Y1018D02*
X7Y1018D01*
X685Y1018D02*
X692Y1018D01*
X0Y1017D02*
X7Y1017D01*
X685Y1017D02*
X692Y1017D01*
X0Y1016D02*
X7Y1016D01*
X685Y1016D02*
X692Y1016D01*
X0Y1015D02*
X7Y1015D01*
X685Y1015D02*
X692Y1015D01*
X0Y1014D02*
X7Y1014D01*
X685Y1014D02*
X692Y1014D01*
X0Y1013D02*
X7Y1013D01*
X685Y1013D02*
X692Y1013D01*
X0Y1012D02*
X7Y1012D01*
X685Y1012D02*
X692Y1012D01*
X0Y1011D02*
X7Y1011D01*
X685Y1011D02*
X692Y1011D01*
X0Y1010D02*
X7Y1010D01*
X685Y1010D02*
X692Y1010D01*
X0Y1009D02*
X7Y1009D01*
X685Y1009D02*
X692Y1009D01*
X0Y1008D02*
X7Y1008D01*
X685Y1008D02*
X692Y1008D01*
X0Y1007D02*
X7Y1007D01*
X685Y1007D02*
X692Y1007D01*
X0Y1006D02*
X7Y1006D01*
X685Y1006D02*
X692Y1006D01*
X0Y1005D02*
X7Y1005D01*
X685Y1005D02*
X692Y1005D01*
X0Y1004D02*
X7Y1004D01*
X685Y1004D02*
X692Y1004D01*
X0Y1003D02*
X7Y1003D01*
X685Y1003D02*
X692Y1003D01*
X0Y1002D02*
X7Y1002D01*
X685Y1002D02*
X692Y1002D01*
X0Y1001D02*
X7Y1001D01*
X685Y1001D02*
X692Y1001D01*
X0Y1000D02*
X7Y1000D01*
X685Y1000D02*
X692Y1000D01*
X0Y999D02*
X7Y999D01*
X685Y999D02*
X692Y999D01*
X0Y998D02*
X7Y998D01*
X685Y998D02*
X692Y998D01*
X0Y997D02*
X7Y997D01*
X685Y997D02*
X692Y997D01*
X0Y996D02*
X7Y996D01*
X685Y996D02*
X692Y996D01*
X0Y995D02*
X7Y995D01*
X685Y995D02*
X692Y995D01*
X0Y994D02*
X7Y994D01*
X685Y994D02*
X692Y994D01*
X0Y993D02*
X7Y993D01*
X685Y993D02*
X692Y993D01*
X0Y992D02*
X7Y992D01*
X685Y992D02*
X692Y992D01*
X0Y991D02*
X7Y991D01*
X685Y991D02*
X692Y991D01*
X0Y990D02*
X7Y990D01*
X685Y990D02*
X692Y990D01*
X0Y989D02*
X7Y989D01*
X685Y989D02*
X692Y989D01*
X0Y988D02*
X7Y988D01*
X685Y988D02*
X692Y988D01*
X0Y987D02*
X7Y987D01*
X685Y987D02*
X692Y987D01*
X0Y986D02*
X7Y986D01*
X685Y986D02*
X692Y986D01*
X0Y985D02*
X7Y985D01*
X685Y985D02*
X692Y985D01*
X0Y984D02*
X7Y984D01*
X685Y984D02*
X692Y984D01*
X0Y983D02*
X7Y983D01*
X685Y983D02*
X692Y983D01*
X0Y982D02*
X7Y982D01*
X685Y982D02*
X692Y982D01*
X0Y981D02*
X7Y981D01*
X685Y981D02*
X692Y981D01*
X0Y980D02*
X7Y980D01*
X685Y980D02*
X692Y980D01*
X0Y979D02*
X7Y979D01*
X685Y979D02*
X692Y979D01*
X0Y978D02*
X7Y978D01*
X685Y978D02*
X692Y978D01*
X0Y977D02*
X7Y977D01*
X685Y977D02*
X692Y977D01*
X0Y976D02*
X7Y976D01*
X685Y976D02*
X692Y976D01*
X0Y975D02*
X7Y975D01*
X685Y975D02*
X692Y975D01*
X0Y974D02*
X7Y974D01*
X685Y974D02*
X692Y974D01*
X0Y973D02*
X7Y973D01*
X685Y973D02*
X692Y973D01*
X0Y972D02*
X7Y972D01*
X685Y972D02*
X692Y972D01*
X0Y971D02*
X7Y971D01*
X685Y971D02*
X692Y971D01*
X0Y970D02*
X7Y970D01*
X685Y970D02*
X692Y970D01*
X0Y969D02*
X7Y969D01*
X685Y969D02*
X692Y969D01*
X0Y968D02*
X7Y968D01*
X685Y968D02*
X692Y968D01*
X0Y967D02*
X7Y967D01*
X685Y967D02*
X692Y967D01*
X0Y966D02*
X7Y966D01*
X685Y966D02*
X692Y966D01*
X0Y965D02*
X7Y965D01*
X685Y965D02*
X692Y965D01*
X0Y964D02*
X7Y964D01*
X685Y964D02*
X692Y964D01*
X0Y963D02*
X7Y963D01*
X685Y963D02*
X692Y963D01*
X0Y962D02*
X7Y962D01*
X685Y962D02*
X692Y962D01*
X0Y961D02*
X7Y961D01*
X685Y961D02*
X692Y961D01*
X0Y960D02*
X7Y960D01*
X685Y960D02*
X692Y960D01*
X0Y959D02*
X7Y959D01*
X685Y959D02*
X692Y959D01*
X0Y958D02*
X7Y958D01*
X685Y958D02*
X692Y958D01*
X0Y957D02*
X7Y957D01*
X685Y957D02*
X692Y957D01*
X0Y956D02*
X7Y956D01*
X685Y956D02*
X692Y956D01*
X0Y955D02*
X7Y955D01*
X685Y955D02*
X692Y955D01*
X0Y954D02*
X7Y954D01*
X685Y954D02*
X692Y954D01*
X0Y953D02*
X7Y953D01*
X685Y953D02*
X692Y953D01*
X0Y952D02*
X7Y952D01*
X685Y952D02*
X692Y952D01*
X0Y951D02*
X7Y951D01*
X685Y951D02*
X692Y951D01*
X0Y950D02*
X7Y950D01*
X685Y950D02*
X692Y950D01*
X0Y949D02*
X7Y949D01*
X685Y949D02*
X692Y949D01*
X0Y948D02*
X7Y948D01*
X685Y948D02*
X692Y948D01*
X0Y947D02*
X7Y947D01*
X685Y947D02*
X692Y947D01*
X0Y946D02*
X7Y946D01*
X685Y946D02*
X692Y946D01*
X0Y945D02*
X7Y945D01*
X685Y945D02*
X692Y945D01*
X0Y944D02*
X7Y944D01*
X685Y944D02*
X692Y944D01*
X0Y943D02*
X7Y943D01*
X685Y943D02*
X692Y943D01*
X0Y942D02*
X7Y942D01*
X685Y942D02*
X692Y942D01*
X0Y941D02*
X7Y941D01*
X685Y941D02*
X692Y941D01*
X0Y940D02*
X7Y940D01*
X685Y940D02*
X692Y940D01*
X0Y939D02*
X7Y939D01*
X685Y939D02*
X692Y939D01*
X0Y938D02*
X7Y938D01*
X685Y938D02*
X692Y938D01*
X0Y937D02*
X7Y937D01*
X685Y937D02*
X692Y937D01*
X0Y936D02*
X7Y936D01*
X685Y936D02*
X692Y936D01*
X0Y935D02*
X7Y935D01*
X685Y935D02*
X692Y935D01*
X0Y934D02*
X7Y934D01*
X685Y934D02*
X692Y934D01*
X0Y933D02*
X7Y933D01*
X685Y933D02*
X692Y933D01*
X0Y932D02*
X7Y932D01*
X685Y932D02*
X692Y932D01*
X0Y931D02*
X7Y931D01*
X685Y931D02*
X692Y931D01*
X0Y930D02*
X7Y930D01*
X685Y930D02*
X692Y930D01*
X0Y929D02*
X7Y929D01*
X685Y929D02*
X692Y929D01*
X0Y928D02*
X7Y928D01*
X685Y928D02*
X692Y928D01*
X0Y927D02*
X7Y927D01*
X685Y927D02*
X692Y927D01*
X0Y926D02*
X7Y926D01*
X685Y926D02*
X692Y926D01*
X0Y925D02*
X7Y925D01*
X685Y925D02*
X692Y925D01*
X0Y924D02*
X7Y924D01*
X685Y924D02*
X692Y924D01*
X0Y923D02*
X7Y923D01*
X685Y923D02*
X692Y923D01*
X0Y922D02*
X7Y922D01*
X685Y922D02*
X692Y922D01*
X0Y921D02*
X7Y921D01*
X685Y921D02*
X692Y921D01*
X0Y920D02*
X7Y920D01*
X685Y920D02*
X692Y920D01*
X0Y919D02*
X7Y919D01*
X685Y919D02*
X692Y919D01*
X0Y918D02*
X7Y918D01*
X685Y918D02*
X692Y918D01*
X0Y917D02*
X7Y917D01*
X685Y917D02*
X692Y917D01*
X0Y916D02*
X7Y916D01*
X685Y916D02*
X692Y916D01*
X0Y915D02*
X7Y915D01*
X685Y915D02*
X692Y915D01*
X0Y914D02*
X7Y914D01*
X685Y914D02*
X692Y914D01*
X0Y913D02*
X7Y913D01*
X685Y913D02*
X692Y913D01*
X0Y912D02*
X7Y912D01*
X685Y912D02*
X692Y912D01*
X0Y911D02*
X7Y911D01*
X685Y911D02*
X692Y911D01*
X0Y910D02*
X7Y910D01*
X685Y910D02*
X692Y910D01*
X0Y909D02*
X7Y909D01*
X685Y909D02*
X692Y909D01*
X0Y908D02*
X7Y908D01*
X685Y908D02*
X692Y908D01*
X0Y907D02*
X7Y907D01*
X685Y907D02*
X692Y907D01*
X0Y906D02*
X7Y906D01*
X685Y906D02*
X692Y906D01*
X0Y905D02*
X7Y905D01*
X685Y905D02*
X692Y905D01*
X0Y904D02*
X7Y904D01*
X685Y904D02*
X692Y904D01*
X0Y903D02*
X7Y903D01*
X685Y903D02*
X692Y903D01*
X0Y902D02*
X7Y902D01*
X685Y902D02*
X692Y902D01*
X0Y901D02*
X7Y901D01*
X685Y901D02*
X692Y901D01*
X0Y900D02*
X7Y900D01*
X685Y900D02*
X692Y900D01*
X0Y899D02*
X7Y899D01*
X685Y899D02*
X692Y899D01*
X0Y898D02*
X7Y898D01*
X685Y898D02*
X692Y898D01*
X0Y897D02*
X7Y897D01*
X685Y897D02*
X692Y897D01*
X0Y896D02*
X7Y896D01*
X685Y896D02*
X692Y896D01*
X0Y895D02*
X7Y895D01*
X685Y895D02*
X692Y895D01*
X0Y894D02*
X7Y894D01*
X685Y894D02*
X692Y894D01*
X0Y893D02*
X7Y893D01*
X685Y893D02*
X692Y893D01*
X0Y892D02*
X7Y892D01*
X685Y892D02*
X692Y892D01*
X0Y891D02*
X7Y891D01*
X685Y891D02*
X692Y891D01*
X0Y890D02*
X7Y890D01*
X685Y890D02*
X692Y890D01*
X0Y889D02*
X7Y889D01*
X685Y889D02*
X692Y889D01*
X0Y888D02*
X7Y888D01*
X685Y888D02*
X692Y888D01*
X0Y887D02*
X7Y887D01*
X685Y887D02*
X692Y887D01*
X0Y886D02*
X7Y886D01*
X685Y886D02*
X692Y886D01*
X0Y885D02*
X7Y885D01*
X685Y885D02*
X692Y885D01*
X0Y884D02*
X7Y884D01*
X685Y884D02*
X692Y884D01*
X0Y883D02*
X7Y883D01*
X685Y883D02*
X692Y883D01*
X0Y882D02*
X7Y882D01*
X685Y882D02*
X692Y882D01*
X0Y881D02*
X7Y881D01*
X685Y881D02*
X692Y881D01*
X0Y880D02*
X7Y880D01*
X685Y880D02*
X692Y880D01*
X0Y879D02*
X7Y879D01*
X685Y879D02*
X692Y879D01*
X0Y878D02*
X7Y878D01*
X685Y878D02*
X692Y878D01*
X0Y877D02*
X7Y877D01*
X685Y877D02*
X692Y877D01*
X0Y876D02*
X7Y876D01*
X685Y876D02*
X692Y876D01*
X0Y875D02*
X7Y875D01*
X685Y875D02*
X692Y875D01*
X0Y874D02*
X7Y874D01*
X685Y874D02*
X692Y874D01*
X0Y873D02*
X7Y873D01*
X685Y873D02*
X692Y873D01*
X0Y872D02*
X7Y872D01*
X685Y872D02*
X692Y872D01*
X0Y871D02*
X7Y871D01*
X685Y871D02*
X692Y871D01*
X0Y870D02*
X7Y870D01*
X685Y870D02*
X692Y870D01*
X0Y869D02*
X7Y869D01*
X685Y869D02*
X692Y869D01*
X0Y868D02*
X7Y868D01*
X685Y868D02*
X692Y868D01*
X0Y867D02*
X7Y867D01*
X685Y867D02*
X692Y867D01*
X0Y866D02*
X7Y866D01*
X685Y866D02*
X692Y866D01*
X0Y865D02*
X7Y865D01*
X54Y865D02*
X54Y865D01*
X685Y865D02*
X692Y865D01*
X0Y864D02*
X7Y864D01*
X53Y864D02*
X55Y864D01*
X685Y864D02*
X692Y864D01*
X0Y863D02*
X7Y863D01*
X52Y863D02*
X56Y863D01*
X685Y863D02*
X692Y863D01*
X0Y862D02*
X7Y862D01*
X51Y862D02*
X57Y862D01*
X685Y862D02*
X692Y862D01*
X0Y861D02*
X7Y861D01*
X52Y861D02*
X58Y861D01*
X685Y861D02*
X692Y861D01*
X0Y860D02*
X7Y860D01*
X53Y860D02*
X59Y860D01*
X685Y860D02*
X692Y860D01*
X0Y859D02*
X7Y859D01*
X54Y859D02*
X60Y859D01*
X685Y859D02*
X692Y859D01*
X0Y858D02*
X7Y858D01*
X55Y858D02*
X61Y858D01*
X685Y858D02*
X692Y858D01*
X0Y857D02*
X7Y857D01*
X56Y857D02*
X62Y857D01*
X685Y857D02*
X692Y857D01*
X0Y856D02*
X7Y856D01*
X57Y856D02*
X63Y856D01*
X685Y856D02*
X692Y856D01*
X0Y855D02*
X7Y855D01*
X58Y855D02*
X64Y855D01*
X685Y855D02*
X692Y855D01*
X0Y854D02*
X7Y854D01*
X59Y854D02*
X65Y854D01*
X685Y854D02*
X692Y854D01*
X0Y853D02*
X7Y853D01*
X60Y853D02*
X66Y853D01*
X685Y853D02*
X692Y853D01*
X0Y852D02*
X7Y852D01*
X61Y852D02*
X67Y852D01*
X685Y852D02*
X692Y852D01*
X0Y851D02*
X7Y851D01*
X62Y851D02*
X67Y851D01*
X685Y851D02*
X692Y851D01*
X0Y850D02*
X7Y850D01*
X63Y850D02*
X68Y850D01*
X685Y850D02*
X692Y850D01*
X0Y849D02*
X7Y849D01*
X64Y849D02*
X69Y849D01*
X685Y849D02*
X692Y849D01*
X0Y848D02*
X7Y848D01*
X65Y848D02*
X70Y848D01*
X685Y848D02*
X692Y848D01*
X0Y847D02*
X7Y847D01*
X66Y847D02*
X71Y847D01*
X685Y847D02*
X692Y847D01*
X0Y846D02*
X7Y846D01*
X67Y846D02*
X72Y846D01*
X685Y846D02*
X692Y846D01*
X0Y845D02*
X7Y845D01*
X68Y845D02*
X73Y845D01*
X685Y845D02*
X692Y845D01*
X0Y844D02*
X7Y844D01*
X69Y844D02*
X75Y844D01*
X685Y844D02*
X692Y844D01*
X0Y843D02*
X7Y843D01*
X70Y843D02*
X76Y843D01*
X685Y843D02*
X692Y843D01*
X0Y842D02*
X7Y842D01*
X71Y842D02*
X77Y842D01*
X685Y842D02*
X692Y842D01*
X0Y841D02*
X7Y841D01*
X72Y841D02*
X78Y841D01*
X685Y841D02*
X692Y841D01*
X0Y840D02*
X7Y840D01*
X73Y840D02*
X79Y840D01*
X685Y840D02*
X692Y840D01*
X0Y839D02*
X7Y839D01*
X74Y839D02*
X80Y839D01*
X685Y839D02*
X692Y839D01*
X0Y838D02*
X7Y838D01*
X75Y838D02*
X81Y838D01*
X685Y838D02*
X692Y838D01*
X0Y837D02*
X7Y837D01*
X76Y837D02*
X82Y837D01*
X685Y837D02*
X692Y837D01*
X0Y836D02*
X7Y836D01*
X77Y836D02*
X83Y836D01*
X685Y836D02*
X692Y836D01*
X0Y835D02*
X7Y835D01*
X78Y835D02*
X84Y835D01*
X685Y835D02*
X692Y835D01*
X0Y834D02*
X7Y834D01*
X79Y834D02*
X85Y834D01*
X685Y834D02*
X692Y834D01*
X0Y833D02*
X7Y833D01*
X80Y833D02*
X86Y833D01*
X685Y833D02*
X692Y833D01*
X0Y832D02*
X7Y832D01*
X81Y832D02*
X87Y832D01*
X685Y832D02*
X692Y832D01*
X0Y831D02*
X7Y831D01*
X82Y831D02*
X88Y831D01*
X685Y831D02*
X692Y831D01*
X0Y830D02*
X7Y830D01*
X83Y830D02*
X88Y830D01*
X685Y830D02*
X692Y830D01*
X0Y829D02*
X7Y829D01*
X84Y829D02*
X87Y829D01*
X685Y829D02*
X692Y829D01*
X0Y828D02*
X7Y828D01*
X85Y828D02*
X86Y828D01*
X685Y828D02*
X692Y828D01*
X0Y827D02*
X7Y827D01*
X685Y827D02*
X692Y827D01*
X0Y826D02*
X7Y826D01*
X685Y826D02*
X692Y826D01*
X0Y825D02*
X7Y825D01*
X685Y825D02*
X692Y825D01*
X0Y824D02*
X7Y824D01*
X685Y824D02*
X692Y824D01*
X0Y823D02*
X7Y823D01*
X685Y823D02*
X692Y823D01*
X0Y822D02*
X7Y822D01*
X685Y822D02*
X692Y822D01*
X0Y821D02*
X7Y821D01*
X685Y821D02*
X692Y821D01*
X0Y820D02*
X7Y820D01*
X685Y820D02*
X692Y820D01*
X0Y819D02*
X7Y819D01*
X685Y819D02*
X692Y819D01*
X0Y818D02*
X7Y818D01*
X685Y818D02*
X692Y818D01*
X0Y817D02*
X7Y817D01*
X685Y817D02*
X692Y817D01*
X0Y816D02*
X7Y816D01*
X685Y816D02*
X692Y816D01*
X0Y815D02*
X7Y815D01*
X685Y815D02*
X692Y815D01*
X0Y814D02*
X7Y814D01*
X685Y814D02*
X692Y814D01*
X0Y813D02*
X7Y813D01*
X685Y813D02*
X692Y813D01*
X0Y812D02*
X7Y812D01*
X685Y812D02*
X692Y812D01*
X0Y811D02*
X7Y811D01*
X685Y811D02*
X692Y811D01*
X0Y810D02*
X7Y810D01*
X685Y810D02*
X692Y810D01*
X0Y809D02*
X7Y809D01*
X685Y809D02*
X692Y809D01*
X0Y808D02*
X7Y808D01*
X685Y808D02*
X692Y808D01*
X0Y807D02*
X7Y807D01*
X685Y807D02*
X692Y807D01*
X0Y806D02*
X7Y806D01*
X685Y806D02*
X692Y806D01*
X0Y805D02*
X7Y805D01*
X685Y805D02*
X692Y805D01*
X0Y804D02*
X7Y804D01*
X685Y804D02*
X692Y804D01*
X0Y803D02*
X7Y803D01*
X685Y803D02*
X692Y803D01*
X0Y802D02*
X7Y802D01*
X685Y802D02*
X692Y802D01*
X0Y801D02*
X7Y801D01*
X685Y801D02*
X692Y801D01*
X0Y800D02*
X7Y800D01*
X685Y800D02*
X692Y800D01*
X0Y799D02*
X7Y799D01*
X685Y799D02*
X692Y799D01*
X0Y798D02*
X7Y798D01*
X685Y798D02*
X692Y798D01*
X0Y797D02*
X7Y797D01*
X685Y797D02*
X692Y797D01*
X0Y796D02*
X7Y796D01*
X685Y796D02*
X692Y796D01*
X0Y795D02*
X7Y795D01*
X685Y795D02*
X692Y795D01*
X0Y794D02*
X7Y794D01*
X685Y794D02*
X692Y794D01*
X0Y793D02*
X7Y793D01*
X685Y793D02*
X692Y793D01*
X0Y792D02*
X7Y792D01*
X685Y792D02*
X692Y792D01*
X0Y791D02*
X7Y791D01*
X685Y791D02*
X692Y791D01*
X0Y790D02*
X7Y790D01*
X685Y790D02*
X692Y790D01*
X0Y789D02*
X7Y789D01*
X685Y789D02*
X692Y789D01*
X0Y788D02*
X7Y788D01*
X685Y788D02*
X692Y788D01*
X0Y787D02*
X7Y787D01*
X685Y787D02*
X692Y787D01*
X0Y786D02*
X7Y786D01*
X685Y786D02*
X692Y786D01*
X0Y785D02*
X7Y785D01*
X685Y785D02*
X692Y785D01*
X0Y784D02*
X7Y784D01*
X685Y784D02*
X692Y784D01*
X0Y783D02*
X7Y783D01*
X685Y783D02*
X692Y783D01*
X0Y782D02*
X7Y782D01*
X685Y782D02*
X692Y782D01*
X0Y781D02*
X7Y781D01*
X685Y781D02*
X692Y781D01*
X0Y780D02*
X7Y780D01*
X685Y780D02*
X692Y780D01*
X0Y779D02*
X7Y779D01*
X685Y779D02*
X692Y779D01*
X0Y778D02*
X7Y778D01*
X685Y778D02*
X692Y778D01*
X0Y777D02*
X7Y777D01*
X685Y777D02*
X692Y777D01*
X0Y776D02*
X7Y776D01*
X685Y776D02*
X692Y776D01*
X0Y775D02*
X7Y775D01*
X685Y775D02*
X692Y775D01*
X0Y774D02*
X7Y774D01*
X685Y774D02*
X692Y774D01*
X0Y773D02*
X7Y773D01*
X685Y773D02*
X692Y773D01*
X0Y772D02*
X7Y772D01*
X685Y772D02*
X692Y772D01*
X0Y771D02*
X7Y771D01*
X685Y771D02*
X692Y771D01*
X0Y770D02*
X7Y770D01*
X685Y770D02*
X692Y770D01*
X0Y769D02*
X7Y769D01*
X685Y769D02*
X692Y769D01*
X0Y768D02*
X7Y768D01*
X685Y768D02*
X692Y768D01*
X0Y767D02*
X7Y767D01*
X685Y767D02*
X692Y767D01*
X0Y766D02*
X7Y766D01*
X685Y766D02*
X692Y766D01*
X0Y765D02*
X7Y765D01*
X685Y765D02*
X692Y765D01*
X0Y764D02*
X7Y764D01*
X685Y764D02*
X692Y764D01*
X0Y763D02*
X7Y763D01*
X685Y763D02*
X692Y763D01*
X0Y762D02*
X7Y762D01*
X685Y762D02*
X692Y762D01*
X0Y761D02*
X7Y761D01*
X685Y761D02*
X692Y761D01*
X0Y760D02*
X7Y760D01*
X685Y760D02*
X692Y760D01*
X0Y759D02*
X7Y759D01*
X685Y759D02*
X692Y759D01*
X0Y758D02*
X7Y758D01*
X685Y758D02*
X692Y758D01*
X0Y757D02*
X7Y757D01*
X685Y757D02*
X692Y757D01*
X0Y756D02*
X7Y756D01*
X685Y756D02*
X692Y756D01*
X0Y755D02*
X7Y755D01*
X685Y755D02*
X692Y755D01*
X0Y754D02*
X7Y754D01*
X685Y754D02*
X692Y754D01*
X0Y753D02*
X7Y753D01*
X685Y753D02*
X692Y753D01*
X0Y752D02*
X7Y752D01*
X685Y752D02*
X692Y752D01*
X0Y751D02*
X7Y751D01*
X685Y751D02*
X692Y751D01*
X0Y750D02*
X7Y750D01*
X685Y750D02*
X692Y750D01*
X0Y749D02*
X7Y749D01*
X685Y749D02*
X692Y749D01*
X0Y748D02*
X7Y748D01*
X685Y748D02*
X692Y748D01*
X0Y747D02*
X7Y747D01*
X685Y747D02*
X692Y747D01*
X0Y746D02*
X7Y746D01*
X685Y746D02*
X692Y746D01*
X0Y745D02*
X7Y745D01*
X685Y745D02*
X692Y745D01*
X0Y744D02*
X7Y744D01*
X685Y744D02*
X692Y744D01*
X0Y743D02*
X7Y743D01*
X685Y743D02*
X692Y743D01*
X0Y742D02*
X7Y742D01*
X685Y742D02*
X692Y742D01*
X0Y741D02*
X7Y741D01*
X685Y741D02*
X692Y741D01*
X0Y740D02*
X7Y740D01*
X685Y740D02*
X692Y740D01*
X0Y739D02*
X7Y739D01*
X685Y739D02*
X692Y739D01*
X0Y738D02*
X7Y738D01*
X685Y738D02*
X692Y738D01*
X0Y737D02*
X7Y737D01*
X685Y737D02*
X692Y737D01*
X0Y736D02*
X7Y736D01*
X685Y736D02*
X692Y736D01*
X0Y735D02*
X7Y735D01*
X685Y735D02*
X692Y735D01*
X0Y734D02*
X7Y734D01*
X685Y734D02*
X692Y734D01*
X0Y733D02*
X7Y733D01*
X685Y733D02*
X692Y733D01*
X0Y732D02*
X7Y732D01*
X685Y732D02*
X692Y732D01*
X0Y731D02*
X7Y731D01*
X685Y731D02*
X692Y731D01*
X0Y730D02*
X7Y730D01*
X685Y730D02*
X692Y730D01*
X0Y729D02*
X7Y729D01*
X685Y729D02*
X692Y729D01*
X0Y728D02*
X7Y728D01*
X685Y728D02*
X692Y728D01*
X0Y727D02*
X7Y727D01*
X685Y727D02*
X692Y727D01*
X0Y726D02*
X7Y726D01*
X685Y726D02*
X692Y726D01*
X0Y725D02*
X7Y725D01*
X685Y725D02*
X692Y725D01*
X0Y724D02*
X7Y724D01*
X685Y724D02*
X692Y724D01*
X0Y723D02*
X7Y723D01*
X685Y723D02*
X692Y723D01*
X0Y722D02*
X7Y722D01*
X685Y722D02*
X692Y722D01*
X0Y721D02*
X7Y721D01*
X685Y721D02*
X692Y721D01*
X0Y720D02*
X7Y720D01*
X685Y720D02*
X692Y720D01*
X0Y719D02*
X7Y719D01*
X685Y719D02*
X692Y719D01*
X0Y718D02*
X7Y718D01*
X685Y718D02*
X692Y718D01*
X0Y717D02*
X7Y717D01*
X685Y717D02*
X692Y717D01*
X0Y716D02*
X7Y716D01*
X685Y716D02*
X692Y716D01*
X0Y715D02*
X7Y715D01*
X685Y715D02*
X692Y715D01*
X0Y714D02*
X7Y714D01*
X685Y714D02*
X692Y714D01*
X0Y713D02*
X7Y713D01*
X685Y713D02*
X692Y713D01*
X0Y712D02*
X7Y712D01*
X685Y712D02*
X692Y712D01*
X0Y711D02*
X7Y711D01*
X685Y711D02*
X692Y711D01*
X0Y710D02*
X7Y710D01*
X685Y710D02*
X692Y710D01*
X0Y709D02*
X7Y709D01*
X685Y709D02*
X692Y709D01*
X0Y708D02*
X7Y708D01*
X685Y708D02*
X692Y708D01*
X0Y707D02*
X7Y707D01*
X685Y707D02*
X692Y707D01*
X0Y706D02*
X7Y706D01*
X685Y706D02*
X692Y706D01*
X0Y705D02*
X7Y705D01*
X685Y705D02*
X692Y705D01*
X0Y704D02*
X7Y704D01*
X685Y704D02*
X692Y704D01*
X0Y703D02*
X7Y703D01*
X685Y703D02*
X692Y703D01*
X0Y702D02*
X7Y702D01*
X685Y702D02*
X692Y702D01*
X0Y701D02*
X7Y701D01*
X685Y701D02*
X692Y701D01*
X0Y700D02*
X7Y700D01*
X685Y700D02*
X692Y700D01*
X0Y699D02*
X7Y699D01*
X685Y699D02*
X692Y699D01*
X0Y698D02*
X7Y698D01*
X685Y698D02*
X692Y698D01*
X0Y697D02*
X7Y697D01*
X685Y697D02*
X692Y697D01*
X0Y696D02*
X7Y696D01*
X685Y696D02*
X692Y696D01*
X0Y695D02*
X7Y695D01*
X685Y695D02*
X692Y695D01*
X0Y694D02*
X7Y694D01*
X685Y694D02*
X692Y694D01*
X0Y693D02*
X7Y693D01*
X685Y693D02*
X692Y693D01*
X0Y692D02*
X7Y692D01*
X685Y692D02*
X692Y692D01*
X0Y691D02*
X7Y691D01*
X685Y691D02*
X692Y691D01*
X0Y690D02*
X7Y690D01*
X685Y690D02*
X692Y690D01*
X0Y689D02*
X7Y689D01*
X685Y689D02*
X692Y689D01*
X0Y688D02*
X7Y688D01*
X685Y688D02*
X692Y688D01*
X0Y687D02*
X7Y687D01*
X685Y687D02*
X692Y687D01*
X0Y686D02*
X7Y686D01*
X685Y686D02*
X692Y686D01*
X0Y685D02*
X7Y685D01*
X685Y685D02*
X692Y685D01*
X0Y684D02*
X7Y684D01*
X685Y684D02*
X692Y684D01*
X0Y683D02*
X7Y683D01*
X685Y683D02*
X692Y683D01*
X0Y682D02*
X7Y682D01*
X685Y682D02*
X692Y682D01*
X0Y681D02*
X7Y681D01*
X685Y681D02*
X692Y681D01*
X0Y680D02*
X7Y680D01*
X685Y680D02*
X692Y680D01*
X0Y679D02*
X7Y679D01*
X685Y679D02*
X692Y679D01*
X0Y678D02*
X7Y678D01*
X685Y678D02*
X692Y678D01*
X0Y677D02*
X7Y677D01*
X685Y677D02*
X692Y677D01*
X0Y676D02*
X7Y676D01*
X685Y676D02*
X692Y676D01*
X0Y675D02*
X7Y675D01*
X685Y675D02*
X692Y675D01*
X0Y674D02*
X7Y674D01*
X685Y674D02*
X692Y674D01*
X0Y673D02*
X7Y673D01*
X685Y673D02*
X692Y673D01*
X0Y672D02*
X7Y672D01*
X685Y672D02*
X692Y672D01*
X0Y671D02*
X7Y671D01*
X685Y671D02*
X692Y671D01*
X0Y670D02*
X7Y670D01*
X685Y670D02*
X692Y670D01*
X0Y669D02*
X7Y669D01*
X685Y669D02*
X692Y669D01*
X0Y668D02*
X7Y668D01*
X685Y668D02*
X692Y668D01*
X0Y667D02*
X7Y667D01*
X685Y667D02*
X692Y667D01*
X0Y666D02*
X7Y666D01*
X685Y666D02*
X692Y666D01*
X0Y665D02*
X7Y665D01*
X685Y665D02*
X692Y665D01*
X0Y664D02*
X7Y664D01*
X685Y664D02*
X692Y664D01*
X0Y663D02*
X7Y663D01*
X685Y663D02*
X692Y663D01*
X0Y662D02*
X7Y662D01*
X685Y662D02*
X692Y662D01*
X0Y661D02*
X7Y661D01*
X685Y661D02*
X692Y661D01*
X0Y660D02*
X7Y660D01*
X685Y660D02*
X692Y660D01*
X0Y659D02*
X7Y659D01*
X685Y659D02*
X692Y659D01*
X0Y658D02*
X7Y658D01*
X685Y658D02*
X692Y658D01*
X0Y657D02*
X7Y657D01*
X685Y657D02*
X692Y657D01*
X0Y656D02*
X7Y656D01*
X685Y656D02*
X692Y656D01*
X0Y655D02*
X7Y655D01*
X685Y655D02*
X692Y655D01*
X0Y654D02*
X7Y654D01*
X685Y654D02*
X692Y654D01*
X0Y653D02*
X7Y653D01*
X685Y653D02*
X692Y653D01*
X0Y652D02*
X7Y652D01*
X685Y652D02*
X692Y652D01*
X0Y651D02*
X7Y651D01*
X685Y651D02*
X692Y651D01*
X0Y650D02*
X7Y650D01*
X685Y650D02*
X692Y650D01*
X0Y649D02*
X7Y649D01*
X685Y649D02*
X692Y649D01*
X0Y648D02*
X7Y648D01*
X685Y648D02*
X692Y648D01*
X0Y647D02*
X7Y647D01*
X685Y647D02*
X692Y647D01*
X0Y646D02*
X7Y646D01*
X685Y646D02*
X692Y646D01*
X0Y645D02*
X7Y645D01*
X685Y645D02*
X692Y645D01*
X0Y644D02*
X7Y644D01*
X685Y644D02*
X692Y644D01*
X0Y643D02*
X7Y643D01*
X685Y643D02*
X692Y643D01*
X0Y642D02*
X7Y642D01*
X685Y642D02*
X692Y642D01*
X0Y641D02*
X7Y641D01*
X685Y641D02*
X692Y641D01*
X0Y640D02*
X7Y640D01*
X685Y640D02*
X692Y640D01*
X0Y639D02*
X7Y639D01*
X685Y639D02*
X692Y639D01*
X0Y638D02*
X7Y638D01*
X685Y638D02*
X692Y638D01*
X0Y637D02*
X7Y637D01*
X685Y637D02*
X692Y637D01*
X0Y636D02*
X7Y636D01*
X685Y636D02*
X692Y636D01*
X0Y635D02*
X7Y635D01*
X685Y635D02*
X692Y635D01*
X0Y634D02*
X7Y634D01*
X685Y634D02*
X692Y634D01*
X0Y633D02*
X7Y633D01*
X685Y633D02*
X692Y633D01*
X0Y632D02*
X7Y632D01*
X685Y632D02*
X692Y632D01*
X0Y631D02*
X7Y631D01*
X685Y631D02*
X692Y631D01*
X0Y630D02*
X7Y630D01*
X685Y630D02*
X692Y630D01*
X0Y629D02*
X7Y629D01*
X685Y629D02*
X692Y629D01*
X0Y628D02*
X7Y628D01*
X685Y628D02*
X692Y628D01*
X0Y627D02*
X7Y627D01*
X685Y627D02*
X692Y627D01*
X0Y626D02*
X7Y626D01*
X685Y626D02*
X692Y626D01*
X0Y625D02*
X7Y625D01*
X685Y625D02*
X692Y625D01*
X0Y624D02*
X7Y624D01*
X685Y624D02*
X692Y624D01*
X0Y623D02*
X7Y623D01*
X685Y623D02*
X692Y623D01*
X0Y622D02*
X7Y622D01*
X685Y622D02*
X692Y622D01*
X0Y621D02*
X7Y621D01*
X685Y621D02*
X692Y621D01*
X0Y620D02*
X7Y620D01*
X685Y620D02*
X692Y620D01*
X0Y619D02*
X7Y619D01*
X685Y619D02*
X692Y619D01*
X0Y618D02*
X7Y618D01*
X685Y618D02*
X692Y618D01*
X0Y617D02*
X7Y617D01*
X685Y617D02*
X692Y617D01*
X0Y616D02*
X7Y616D01*
X685Y616D02*
X692Y616D01*
X0Y615D02*
X7Y615D01*
X685Y615D02*
X692Y615D01*
X0Y614D02*
X7Y614D01*
X685Y614D02*
X692Y614D01*
X0Y613D02*
X7Y613D01*
X685Y613D02*
X692Y613D01*
X0Y612D02*
X7Y612D01*
X685Y612D02*
X692Y612D01*
X0Y611D02*
X7Y611D01*
X685Y611D02*
X692Y611D01*
X0Y610D02*
X7Y610D01*
X685Y610D02*
X692Y610D01*
X0Y609D02*
X7Y609D01*
X685Y609D02*
X692Y609D01*
X0Y608D02*
X7Y608D01*
X685Y608D02*
X692Y608D01*
X0Y607D02*
X7Y607D01*
X685Y607D02*
X692Y607D01*
X0Y606D02*
X7Y606D01*
X685Y606D02*
X692Y606D01*
X0Y605D02*
X7Y605D01*
X685Y605D02*
X692Y605D01*
X0Y604D02*
X7Y604D01*
X685Y604D02*
X692Y604D01*
X0Y603D02*
X7Y603D01*
X685Y603D02*
X692Y603D01*
X0Y602D02*
X7Y602D01*
X685Y602D02*
X692Y602D01*
X0Y601D02*
X7Y601D01*
X685Y601D02*
X692Y601D01*
X0Y600D02*
X7Y600D01*
X685Y600D02*
X692Y600D01*
X0Y599D02*
X7Y599D01*
X685Y599D02*
X692Y599D01*
X0Y598D02*
X7Y598D01*
X685Y598D02*
X692Y598D01*
X0Y597D02*
X7Y597D01*
X685Y597D02*
X692Y597D01*
X0Y596D02*
X7Y596D01*
X685Y596D02*
X692Y596D01*
X0Y595D02*
X7Y595D01*
X685Y595D02*
X692Y595D01*
X0Y594D02*
X7Y594D01*
X685Y594D02*
X692Y594D01*
X0Y593D02*
X7Y593D01*
X685Y593D02*
X692Y593D01*
X0Y592D02*
X7Y592D01*
X685Y592D02*
X692Y592D01*
X0Y591D02*
X7Y591D01*
X685Y591D02*
X692Y591D01*
X0Y590D02*
X7Y590D01*
X685Y590D02*
X692Y590D01*
X0Y589D02*
X7Y589D01*
X685Y589D02*
X692Y589D01*
X0Y588D02*
X7Y588D01*
X685Y588D02*
X692Y588D01*
X0Y587D02*
X7Y587D01*
X685Y587D02*
X692Y587D01*
X0Y586D02*
X7Y586D01*
X685Y586D02*
X692Y586D01*
X0Y585D02*
X7Y585D01*
X685Y585D02*
X692Y585D01*
X0Y584D02*
X7Y584D01*
X685Y584D02*
X692Y584D01*
X0Y583D02*
X7Y583D01*
X685Y583D02*
X692Y583D01*
X0Y582D02*
X7Y582D01*
X685Y582D02*
X692Y582D01*
X0Y581D02*
X7Y581D01*
X685Y581D02*
X692Y581D01*
X0Y580D02*
X7Y580D01*
X685Y580D02*
X692Y580D01*
X0Y579D02*
X7Y579D01*
X685Y579D02*
X692Y579D01*
X0Y578D02*
X7Y578D01*
X685Y578D02*
X692Y578D01*
X0Y577D02*
X7Y577D01*
X685Y577D02*
X692Y577D01*
X0Y576D02*
X7Y576D01*
X685Y576D02*
X692Y576D01*
X0Y575D02*
X7Y575D01*
X685Y575D02*
X692Y575D01*
X0Y574D02*
X7Y574D01*
X685Y574D02*
X692Y574D01*
X0Y573D02*
X7Y573D01*
X685Y573D02*
X692Y573D01*
X0Y572D02*
X7Y572D01*
X685Y572D02*
X692Y572D01*
X0Y571D02*
X7Y571D01*
X685Y571D02*
X692Y571D01*
X0Y570D02*
X7Y570D01*
X685Y570D02*
X692Y570D01*
X0Y569D02*
X7Y569D01*
X685Y569D02*
X692Y569D01*
X0Y568D02*
X7Y568D01*
X685Y568D02*
X692Y568D01*
X0Y567D02*
X7Y567D01*
X685Y567D02*
X692Y567D01*
X0Y566D02*
X7Y566D01*
X685Y566D02*
X692Y566D01*
X0Y565D02*
X7Y565D01*
X685Y565D02*
X692Y565D01*
X0Y564D02*
X7Y564D01*
X685Y564D02*
X692Y564D01*
X0Y563D02*
X7Y563D01*
X685Y563D02*
X692Y563D01*
X0Y562D02*
X7Y562D01*
X685Y562D02*
X692Y562D01*
X0Y561D02*
X7Y561D01*
X685Y561D02*
X692Y561D01*
X0Y560D02*
X7Y560D01*
X685Y560D02*
X692Y560D01*
X0Y559D02*
X7Y559D01*
X685Y559D02*
X692Y559D01*
X0Y558D02*
X7Y558D01*
X685Y558D02*
X692Y558D01*
X0Y557D02*
X7Y557D01*
X685Y557D02*
X692Y557D01*
X0Y556D02*
X7Y556D01*
X685Y556D02*
X692Y556D01*
X0Y555D02*
X7Y555D01*
X685Y555D02*
X692Y555D01*
X0Y554D02*
X7Y554D01*
X685Y554D02*
X692Y554D01*
X0Y553D02*
X7Y553D01*
X685Y553D02*
X692Y553D01*
X0Y552D02*
X7Y552D01*
X685Y552D02*
X692Y552D01*
X0Y551D02*
X7Y551D01*
X685Y551D02*
X692Y551D01*
X0Y550D02*
X7Y550D01*
X685Y550D02*
X692Y550D01*
X0Y549D02*
X7Y549D01*
X685Y549D02*
X692Y549D01*
X0Y548D02*
X7Y548D01*
X685Y548D02*
X692Y548D01*
X0Y547D02*
X7Y547D01*
X685Y547D02*
X692Y547D01*
X0Y546D02*
X7Y546D01*
X685Y546D02*
X692Y546D01*
X0Y545D02*
X7Y545D01*
X685Y545D02*
X692Y545D01*
X0Y544D02*
X7Y544D01*
X685Y544D02*
X692Y544D01*
X0Y543D02*
X7Y543D01*
X685Y543D02*
X692Y543D01*
X0Y542D02*
X7Y542D01*
X685Y542D02*
X692Y542D01*
X0Y541D02*
X7Y541D01*
X685Y541D02*
X692Y541D01*
X0Y540D02*
X7Y540D01*
X685Y540D02*
X692Y540D01*
X0Y539D02*
X7Y539D01*
X685Y539D02*
X692Y539D01*
X0Y538D02*
X7Y538D01*
X685Y538D02*
X692Y538D01*
X0Y537D02*
X7Y537D01*
X685Y537D02*
X692Y537D01*
X0Y536D02*
X7Y536D01*
X685Y536D02*
X692Y536D01*
X0Y535D02*
X7Y535D01*
X685Y535D02*
X692Y535D01*
X0Y534D02*
X7Y534D01*
X685Y534D02*
X692Y534D01*
X0Y533D02*
X7Y533D01*
X685Y533D02*
X692Y533D01*
X0Y532D02*
X7Y532D01*
X685Y532D02*
X692Y532D01*
X0Y531D02*
X7Y531D01*
X685Y531D02*
X692Y531D01*
X0Y530D02*
X7Y530D01*
X685Y530D02*
X692Y530D01*
X0Y529D02*
X7Y529D01*
X685Y529D02*
X692Y529D01*
X0Y528D02*
X7Y528D01*
X685Y528D02*
X692Y528D01*
X0Y527D02*
X7Y527D01*
X685Y527D02*
X692Y527D01*
X0Y526D02*
X7Y526D01*
X685Y526D02*
X692Y526D01*
X0Y525D02*
X7Y525D01*
X685Y525D02*
X692Y525D01*
X0Y524D02*
X7Y524D01*
X685Y524D02*
X692Y524D01*
X0Y523D02*
X7Y523D01*
X685Y523D02*
X692Y523D01*
X0Y522D02*
X7Y522D01*
X685Y522D02*
X692Y522D01*
X0Y521D02*
X7Y521D01*
X685Y521D02*
X692Y521D01*
X0Y520D02*
X7Y520D01*
X685Y520D02*
X692Y520D01*
X0Y519D02*
X7Y519D01*
X685Y519D02*
X692Y519D01*
X0Y518D02*
X7Y518D01*
X685Y518D02*
X692Y518D01*
X0Y517D02*
X7Y517D01*
X685Y517D02*
X692Y517D01*
X0Y516D02*
X7Y516D01*
X685Y516D02*
X692Y516D01*
X0Y515D02*
X7Y515D01*
X685Y515D02*
X692Y515D01*
X0Y514D02*
X7Y514D01*
X685Y514D02*
X692Y514D01*
X0Y513D02*
X7Y513D01*
X685Y513D02*
X692Y513D01*
X0Y512D02*
X7Y512D01*
X685Y512D02*
X692Y512D01*
X0Y511D02*
X7Y511D01*
X685Y511D02*
X692Y511D01*
X0Y510D02*
X7Y510D01*
X685Y510D02*
X692Y510D01*
X0Y509D02*
X7Y509D01*
X685Y509D02*
X692Y509D01*
X0Y508D02*
X7Y508D01*
X685Y508D02*
X692Y508D01*
X0Y507D02*
X7Y507D01*
X685Y507D02*
X692Y507D01*
X0Y506D02*
X7Y506D01*
X685Y506D02*
X692Y506D01*
X0Y505D02*
X7Y505D01*
X685Y505D02*
X692Y505D01*
X0Y504D02*
X7Y504D01*
X685Y504D02*
X692Y504D01*
X0Y503D02*
X7Y503D01*
X685Y503D02*
X692Y503D01*
X0Y502D02*
X7Y502D01*
X685Y502D02*
X692Y502D01*
X0Y501D02*
X7Y501D01*
X685Y501D02*
X692Y501D01*
X0Y500D02*
X7Y500D01*
X685Y500D02*
X692Y500D01*
X0Y499D02*
X7Y499D01*
X685Y499D02*
X692Y499D01*
X0Y498D02*
X7Y498D01*
X685Y498D02*
X692Y498D01*
X0Y497D02*
X7Y497D01*
X685Y497D02*
X692Y497D01*
X0Y496D02*
X7Y496D01*
X685Y496D02*
X692Y496D01*
X0Y495D02*
X7Y495D01*
X685Y495D02*
X692Y495D01*
X0Y494D02*
X7Y494D01*
X685Y494D02*
X692Y494D01*
X0Y493D02*
X7Y493D01*
X685Y493D02*
X692Y493D01*
X0Y492D02*
X7Y492D01*
X685Y492D02*
X692Y492D01*
X0Y491D02*
X7Y491D01*
X685Y491D02*
X692Y491D01*
X0Y490D02*
X7Y490D01*
X685Y490D02*
X692Y490D01*
X0Y489D02*
X7Y489D01*
X685Y489D02*
X692Y489D01*
X0Y488D02*
X7Y488D01*
X685Y488D02*
X692Y488D01*
X0Y487D02*
X7Y487D01*
X685Y487D02*
X692Y487D01*
X0Y486D02*
X7Y486D01*
X685Y486D02*
X692Y486D01*
X0Y485D02*
X7Y485D01*
X685Y485D02*
X692Y485D01*
X0Y484D02*
X7Y484D01*
X685Y484D02*
X692Y484D01*
X0Y483D02*
X7Y483D01*
X685Y483D02*
X692Y483D01*
X0Y482D02*
X7Y482D01*
X685Y482D02*
X692Y482D01*
X0Y481D02*
X7Y481D01*
X685Y481D02*
X692Y481D01*
X0Y480D02*
X7Y480D01*
X685Y480D02*
X692Y480D01*
X0Y479D02*
X7Y479D01*
X685Y479D02*
X692Y479D01*
X0Y478D02*
X7Y478D01*
X685Y478D02*
X692Y478D01*
X0Y477D02*
X7Y477D01*
X685Y477D02*
X692Y477D01*
X0Y476D02*
X7Y476D01*
X685Y476D02*
X692Y476D01*
X0Y475D02*
X7Y475D01*
X685Y475D02*
X692Y475D01*
X0Y474D02*
X7Y474D01*
X685Y474D02*
X692Y474D01*
X0Y473D02*
X7Y473D01*
X685Y473D02*
X692Y473D01*
X0Y472D02*
X7Y472D01*
X685Y472D02*
X692Y472D01*
X0Y471D02*
X7Y471D01*
X685Y471D02*
X692Y471D01*
X0Y470D02*
X7Y470D01*
X685Y470D02*
X692Y470D01*
X0Y469D02*
X7Y469D01*
X685Y469D02*
X692Y469D01*
X0Y468D02*
X7Y468D01*
X685Y468D02*
X692Y468D01*
X0Y467D02*
X7Y467D01*
X685Y467D02*
X692Y467D01*
X0Y466D02*
X7Y466D01*
X685Y466D02*
X692Y466D01*
X0Y465D02*
X7Y465D01*
X685Y465D02*
X692Y465D01*
X0Y464D02*
X7Y464D01*
X685Y464D02*
X692Y464D01*
X0Y463D02*
X7Y463D01*
X685Y463D02*
X692Y463D01*
X0Y462D02*
X7Y462D01*
X685Y462D02*
X692Y462D01*
X0Y461D02*
X7Y461D01*
X685Y461D02*
X692Y461D01*
X0Y460D02*
X7Y460D01*
X685Y460D02*
X692Y460D01*
X0Y459D02*
X7Y459D01*
X685Y459D02*
X692Y459D01*
X0Y458D02*
X7Y458D01*
X685Y458D02*
X692Y458D01*
X0Y457D02*
X7Y457D01*
X685Y457D02*
X692Y457D01*
X0Y456D02*
X7Y456D01*
X685Y456D02*
X692Y456D01*
X0Y455D02*
X7Y455D01*
X685Y455D02*
X692Y455D01*
X0Y454D02*
X7Y454D01*
X685Y454D02*
X692Y454D01*
X0Y453D02*
X7Y453D01*
X685Y453D02*
X692Y453D01*
X0Y452D02*
X7Y452D01*
X685Y452D02*
X692Y452D01*
X0Y451D02*
X7Y451D01*
X685Y451D02*
X692Y451D01*
X0Y450D02*
X7Y450D01*
X685Y450D02*
X692Y450D01*
X0Y449D02*
X7Y449D01*
X685Y449D02*
X692Y449D01*
X0Y448D02*
X7Y448D01*
X685Y448D02*
X692Y448D01*
X0Y447D02*
X7Y447D01*
X685Y447D02*
X692Y447D01*
X0Y446D02*
X7Y446D01*
X685Y446D02*
X692Y446D01*
X0Y445D02*
X7Y445D01*
X685Y445D02*
X692Y445D01*
X0Y444D02*
X7Y444D01*
X685Y444D02*
X692Y444D01*
X0Y443D02*
X7Y443D01*
X685Y443D02*
X692Y443D01*
X0Y442D02*
X7Y442D01*
X685Y442D02*
X692Y442D01*
X0Y441D02*
X7Y441D01*
X685Y441D02*
X692Y441D01*
X0Y440D02*
X7Y440D01*
X685Y440D02*
X692Y440D01*
X0Y439D02*
X7Y439D01*
X685Y439D02*
X692Y439D01*
X0Y438D02*
X7Y438D01*
X685Y438D02*
X692Y438D01*
X0Y437D02*
X7Y437D01*
X685Y437D02*
X692Y437D01*
X0Y436D02*
X7Y436D01*
X685Y436D02*
X692Y436D01*
X0Y435D02*
X7Y435D01*
X685Y435D02*
X692Y435D01*
X0Y434D02*
X7Y434D01*
X685Y434D02*
X692Y434D01*
X0Y433D02*
X7Y433D01*
X685Y433D02*
X692Y433D01*
X0Y432D02*
X7Y432D01*
X685Y432D02*
X692Y432D01*
X0Y431D02*
X7Y431D01*
X685Y431D02*
X692Y431D01*
X0Y430D02*
X7Y430D01*
X685Y430D02*
X692Y430D01*
X0Y429D02*
X7Y429D01*
X685Y429D02*
X692Y429D01*
X0Y428D02*
X7Y428D01*
X685Y428D02*
X692Y428D01*
X0Y427D02*
X7Y427D01*
X685Y427D02*
X692Y427D01*
X0Y426D02*
X7Y426D01*
X685Y426D02*
X692Y426D01*
X0Y425D02*
X7Y425D01*
X685Y425D02*
X692Y425D01*
X0Y424D02*
X7Y424D01*
X685Y424D02*
X692Y424D01*
X0Y423D02*
X7Y423D01*
X685Y423D02*
X692Y423D01*
X0Y422D02*
X7Y422D01*
X685Y422D02*
X692Y422D01*
X0Y421D02*
X7Y421D01*
X685Y421D02*
X692Y421D01*
X0Y420D02*
X7Y420D01*
X685Y420D02*
X692Y420D01*
X0Y419D02*
X7Y419D01*
X685Y419D02*
X692Y419D01*
X0Y418D02*
X7Y418D01*
X685Y418D02*
X692Y418D01*
X0Y417D02*
X7Y417D01*
X685Y417D02*
X692Y417D01*
X0Y416D02*
X7Y416D01*
X685Y416D02*
X692Y416D01*
X0Y415D02*
X7Y415D01*
X685Y415D02*
X692Y415D01*
X0Y414D02*
X7Y414D01*
X685Y414D02*
X692Y414D01*
X0Y413D02*
X7Y413D01*
X685Y413D02*
X692Y413D01*
X0Y412D02*
X7Y412D01*
X685Y412D02*
X692Y412D01*
X0Y411D02*
X7Y411D01*
X685Y411D02*
X692Y411D01*
X0Y410D02*
X7Y410D01*
X685Y410D02*
X692Y410D01*
X0Y409D02*
X7Y409D01*
X685Y409D02*
X692Y409D01*
X0Y408D02*
X7Y408D01*
X685Y408D02*
X692Y408D01*
X0Y407D02*
X7Y407D01*
X685Y407D02*
X692Y407D01*
X0Y406D02*
X7Y406D01*
X685Y406D02*
X692Y406D01*
X0Y405D02*
X7Y405D01*
X685Y405D02*
X692Y405D01*
X0Y404D02*
X7Y404D01*
X685Y404D02*
X692Y404D01*
X0Y403D02*
X7Y403D01*
X685Y403D02*
X692Y403D01*
X0Y402D02*
X7Y402D01*
X685Y402D02*
X692Y402D01*
X0Y401D02*
X7Y401D01*
X685Y401D02*
X692Y401D01*
X0Y400D02*
X7Y400D01*
X685Y400D02*
X692Y400D01*
X0Y399D02*
X7Y399D01*
X685Y399D02*
X692Y399D01*
X0Y398D02*
X7Y398D01*
X685Y398D02*
X692Y398D01*
X0Y397D02*
X7Y397D01*
X685Y397D02*
X692Y397D01*
X0Y396D02*
X7Y396D01*
X685Y396D02*
X692Y396D01*
X0Y395D02*
X7Y395D01*
X685Y395D02*
X692Y395D01*
X0Y394D02*
X7Y394D01*
X685Y394D02*
X692Y394D01*
X0Y393D02*
X7Y393D01*
X685Y393D02*
X692Y393D01*
X0Y392D02*
X7Y392D01*
X685Y392D02*
X692Y392D01*
X0Y391D02*
X7Y391D01*
X685Y391D02*
X692Y391D01*
X0Y390D02*
X7Y390D01*
X685Y390D02*
X692Y390D01*
X0Y389D02*
X7Y389D01*
X685Y389D02*
X692Y389D01*
X0Y388D02*
X7Y388D01*
X685Y388D02*
X692Y388D01*
X0Y387D02*
X7Y387D01*
X685Y387D02*
X692Y387D01*
X0Y386D02*
X7Y386D01*
X685Y386D02*
X692Y386D01*
X0Y385D02*
X7Y385D01*
X685Y385D02*
X692Y385D01*
X0Y384D02*
X7Y384D01*
X685Y384D02*
X692Y384D01*
X0Y383D02*
X7Y383D01*
X685Y383D02*
X692Y383D01*
X0Y382D02*
X7Y382D01*
X685Y382D02*
X692Y382D01*
X0Y381D02*
X7Y381D01*
X685Y381D02*
X692Y381D01*
X0Y380D02*
X7Y380D01*
X685Y380D02*
X692Y380D01*
X0Y379D02*
X7Y379D01*
X685Y379D02*
X692Y379D01*
X0Y378D02*
X7Y378D01*
X685Y378D02*
X692Y378D01*
X0Y377D02*
X7Y377D01*
X685Y377D02*
X692Y377D01*
X0Y376D02*
X7Y376D01*
X685Y376D02*
X692Y376D01*
X0Y375D02*
X7Y375D01*
X685Y375D02*
X692Y375D01*
X0Y374D02*
X7Y374D01*
X685Y374D02*
X692Y374D01*
X0Y373D02*
X7Y373D01*
X685Y373D02*
X692Y373D01*
X0Y372D02*
X7Y372D01*
X685Y372D02*
X692Y372D01*
X0Y371D02*
X7Y371D01*
X685Y371D02*
X692Y371D01*
X0Y370D02*
X7Y370D01*
X685Y370D02*
X692Y370D01*
X0Y369D02*
X7Y369D01*
X685Y369D02*
X692Y369D01*
X0Y368D02*
X7Y368D01*
X685Y368D02*
X692Y368D01*
X0Y367D02*
X7Y367D01*
X685Y367D02*
X692Y367D01*
X0Y366D02*
X7Y366D01*
X685Y366D02*
X692Y366D01*
X0Y365D02*
X7Y365D01*
X685Y365D02*
X692Y365D01*
X0Y364D02*
X7Y364D01*
X685Y364D02*
X692Y364D01*
X0Y363D02*
X7Y363D01*
X685Y363D02*
X692Y363D01*
X0Y362D02*
X7Y362D01*
X685Y362D02*
X692Y362D01*
X0Y361D02*
X7Y361D01*
X685Y361D02*
X692Y361D01*
X0Y360D02*
X7Y360D01*
X685Y360D02*
X692Y360D01*
X0Y359D02*
X7Y359D01*
X685Y359D02*
X692Y359D01*
X0Y358D02*
X7Y358D01*
X685Y358D02*
X692Y358D01*
X0Y357D02*
X7Y357D01*
X685Y357D02*
X692Y357D01*
X0Y356D02*
X7Y356D01*
X685Y356D02*
X692Y356D01*
X0Y355D02*
X7Y355D01*
X685Y355D02*
X692Y355D01*
X0Y354D02*
X7Y354D01*
X685Y354D02*
X692Y354D01*
X0Y353D02*
X7Y353D01*
X685Y353D02*
X692Y353D01*
X0Y352D02*
X7Y352D01*
X685Y352D02*
X692Y352D01*
X0Y351D02*
X7Y351D01*
X685Y351D02*
X692Y351D01*
X0Y350D02*
X7Y350D01*
X685Y350D02*
X692Y350D01*
X0Y349D02*
X7Y349D01*
X685Y349D02*
X692Y349D01*
X0Y348D02*
X7Y348D01*
X685Y348D02*
X692Y348D01*
X0Y347D02*
X7Y347D01*
X685Y347D02*
X692Y347D01*
X0Y346D02*
X7Y346D01*
X685Y346D02*
X692Y346D01*
X0Y345D02*
X7Y345D01*
X685Y345D02*
X692Y345D01*
X0Y344D02*
X7Y344D01*
X685Y344D02*
X692Y344D01*
X0Y343D02*
X7Y343D01*
X685Y343D02*
X692Y343D01*
X0Y342D02*
X7Y342D01*
X685Y342D02*
X692Y342D01*
X0Y341D02*
X7Y341D01*
X685Y341D02*
X692Y341D01*
X0Y340D02*
X7Y340D01*
X685Y340D02*
X692Y340D01*
X0Y339D02*
X7Y339D01*
X685Y339D02*
X692Y339D01*
X0Y338D02*
X7Y338D01*
X685Y338D02*
X692Y338D01*
X0Y337D02*
X7Y337D01*
X685Y337D02*
X692Y337D01*
X0Y336D02*
X7Y336D01*
X685Y336D02*
X692Y336D01*
X0Y335D02*
X7Y335D01*
X685Y335D02*
X692Y335D01*
X0Y334D02*
X7Y334D01*
X685Y334D02*
X692Y334D01*
X0Y333D02*
X7Y333D01*
X685Y333D02*
X692Y333D01*
X0Y332D02*
X7Y332D01*
X685Y332D02*
X692Y332D01*
X0Y331D02*
X7Y331D01*
X685Y331D02*
X692Y331D01*
X0Y330D02*
X7Y330D01*
X685Y330D02*
X692Y330D01*
X0Y329D02*
X7Y329D01*
X685Y329D02*
X692Y329D01*
X0Y328D02*
X7Y328D01*
X685Y328D02*
X692Y328D01*
X0Y327D02*
X7Y327D01*
X685Y327D02*
X692Y327D01*
X0Y326D02*
X7Y326D01*
X685Y326D02*
X692Y326D01*
X0Y325D02*
X7Y325D01*
X685Y325D02*
X692Y325D01*
X0Y324D02*
X7Y324D01*
X685Y324D02*
X692Y324D01*
X0Y323D02*
X7Y323D01*
X685Y323D02*
X692Y323D01*
X0Y322D02*
X7Y322D01*
X685Y322D02*
X692Y322D01*
X0Y321D02*
X7Y321D01*
X685Y321D02*
X692Y321D01*
X0Y320D02*
X7Y320D01*
X685Y320D02*
X692Y320D01*
X0Y319D02*
X7Y319D01*
X685Y319D02*
X692Y319D01*
X0Y318D02*
X7Y318D01*
X685Y318D02*
X692Y318D01*
X0Y317D02*
X7Y317D01*
X685Y317D02*
X692Y317D01*
X0Y316D02*
X7Y316D01*
X685Y316D02*
X692Y316D01*
X0Y315D02*
X7Y315D01*
X685Y315D02*
X692Y315D01*
X0Y314D02*
X7Y314D01*
X685Y314D02*
X692Y314D01*
X0Y313D02*
X7Y313D01*
X685Y313D02*
X692Y313D01*
X0Y312D02*
X7Y312D01*
X685Y312D02*
X692Y312D01*
X0Y311D02*
X7Y311D01*
X685Y311D02*
X692Y311D01*
X0Y310D02*
X7Y310D01*
X685Y310D02*
X692Y310D01*
X0Y309D02*
X7Y309D01*
X685Y309D02*
X692Y309D01*
X0Y308D02*
X7Y308D01*
X685Y308D02*
X692Y308D01*
X0Y307D02*
X7Y307D01*
X685Y307D02*
X692Y307D01*
X0Y306D02*
X7Y306D01*
X685Y306D02*
X692Y306D01*
X0Y305D02*
X7Y305D01*
X685Y305D02*
X692Y305D01*
X0Y304D02*
X7Y304D01*
X685Y304D02*
X692Y304D01*
X0Y303D02*
X7Y303D01*
X685Y303D02*
X692Y303D01*
X0Y302D02*
X7Y302D01*
X685Y302D02*
X692Y302D01*
X0Y301D02*
X7Y301D01*
X685Y301D02*
X692Y301D01*
X0Y300D02*
X7Y300D01*
X685Y300D02*
X692Y300D01*
X0Y299D02*
X7Y299D01*
X685Y299D02*
X692Y299D01*
X0Y298D02*
X7Y298D01*
X685Y298D02*
X692Y298D01*
X0Y297D02*
X7Y297D01*
X685Y297D02*
X692Y297D01*
X0Y296D02*
X7Y296D01*
X685Y296D02*
X692Y296D01*
X0Y295D02*
X7Y295D01*
X685Y295D02*
X692Y295D01*
X0Y294D02*
X7Y294D01*
X685Y294D02*
X692Y294D01*
X0Y293D02*
X7Y293D01*
X685Y293D02*
X692Y293D01*
X0Y292D02*
X7Y292D01*
X685Y292D02*
X692Y292D01*
X0Y291D02*
X7Y291D01*
X685Y291D02*
X692Y291D01*
X0Y290D02*
X7Y290D01*
X685Y290D02*
X692Y290D01*
X0Y289D02*
X7Y289D01*
X685Y289D02*
X692Y289D01*
X0Y288D02*
X7Y288D01*
X685Y288D02*
X692Y288D01*
X0Y287D02*
X7Y287D01*
X685Y287D02*
X692Y287D01*
X0Y286D02*
X7Y286D01*
X685Y286D02*
X692Y286D01*
X0Y285D02*
X7Y285D01*
X685Y285D02*
X692Y285D01*
X0Y284D02*
X7Y284D01*
X685Y284D02*
X692Y284D01*
X0Y283D02*
X7Y283D01*
X685Y283D02*
X692Y283D01*
X0Y282D02*
X7Y282D01*
X685Y282D02*
X692Y282D01*
X0Y281D02*
X7Y281D01*
X685Y281D02*
X692Y281D01*
X0Y280D02*
X7Y280D01*
X685Y280D02*
X692Y280D01*
X0Y279D02*
X7Y279D01*
X685Y279D02*
X692Y279D01*
X0Y278D02*
X7Y278D01*
X685Y278D02*
X692Y278D01*
X0Y277D02*
X7Y277D01*
X685Y277D02*
X692Y277D01*
X0Y276D02*
X7Y276D01*
X685Y276D02*
X692Y276D01*
X0Y275D02*
X7Y275D01*
X685Y275D02*
X692Y275D01*
X0Y274D02*
X7Y274D01*
X685Y274D02*
X692Y274D01*
X0Y273D02*
X7Y273D01*
X685Y273D02*
X692Y273D01*
X0Y272D02*
X7Y272D01*
X685Y272D02*
X692Y272D01*
X0Y271D02*
X7Y271D01*
X685Y271D02*
X692Y271D01*
X0Y270D02*
X7Y270D01*
X685Y270D02*
X692Y270D01*
X0Y269D02*
X7Y269D01*
X685Y269D02*
X692Y269D01*
X0Y268D02*
X7Y268D01*
X685Y268D02*
X692Y268D01*
X0Y267D02*
X7Y267D01*
X685Y267D02*
X692Y267D01*
X0Y266D02*
X7Y266D01*
X685Y266D02*
X692Y266D01*
X0Y265D02*
X7Y265D01*
X685Y265D02*
X692Y265D01*
X0Y264D02*
X7Y264D01*
X685Y264D02*
X692Y264D01*
X0Y263D02*
X7Y263D01*
X685Y263D02*
X692Y263D01*
X0Y262D02*
X7Y262D01*
X685Y262D02*
X692Y262D01*
X0Y261D02*
X7Y261D01*
X685Y261D02*
X692Y261D01*
X0Y260D02*
X7Y260D01*
X685Y260D02*
X692Y260D01*
X0Y259D02*
X7Y259D01*
X685Y259D02*
X692Y259D01*
X0Y258D02*
X7Y258D01*
X685Y258D02*
X692Y258D01*
X0Y257D02*
X7Y257D01*
X685Y257D02*
X692Y257D01*
X0Y256D02*
X7Y256D01*
X685Y256D02*
X692Y256D01*
X0Y255D02*
X7Y255D01*
X685Y255D02*
X692Y255D01*
X0Y254D02*
X7Y254D01*
X685Y254D02*
X692Y254D01*
X0Y253D02*
X7Y253D01*
X685Y253D02*
X692Y253D01*
X0Y252D02*
X7Y252D01*
X685Y252D02*
X692Y252D01*
X0Y251D02*
X7Y251D01*
X685Y251D02*
X692Y251D01*
X0Y250D02*
X7Y250D01*
X685Y250D02*
X692Y250D01*
X0Y249D02*
X7Y249D01*
X685Y249D02*
X692Y249D01*
X0Y248D02*
X7Y248D01*
X685Y248D02*
X692Y248D01*
X0Y247D02*
X7Y247D01*
X685Y247D02*
X692Y247D01*
X0Y246D02*
X7Y246D01*
X685Y246D02*
X692Y246D01*
X0Y245D02*
X7Y245D01*
X685Y245D02*
X692Y245D01*
X0Y244D02*
X7Y244D01*
X685Y244D02*
X692Y244D01*
X0Y243D02*
X7Y243D01*
X685Y243D02*
X692Y243D01*
X0Y242D02*
X7Y242D01*
X685Y242D02*
X692Y242D01*
X0Y241D02*
X7Y241D01*
X685Y241D02*
X692Y241D01*
X0Y240D02*
X7Y240D01*
X685Y240D02*
X692Y240D01*
X0Y239D02*
X7Y239D01*
X685Y239D02*
X692Y239D01*
X0Y238D02*
X7Y238D01*
X685Y238D02*
X692Y238D01*
X0Y237D02*
X7Y237D01*
X685Y237D02*
X692Y237D01*
X0Y236D02*
X7Y236D01*
X685Y236D02*
X692Y236D01*
X0Y235D02*
X7Y235D01*
X685Y235D02*
X692Y235D01*
X0Y234D02*
X7Y234D01*
X685Y234D02*
X692Y234D01*
X0Y233D02*
X7Y233D01*
X685Y233D02*
X692Y233D01*
X0Y232D02*
X7Y232D01*
X685Y232D02*
X692Y232D01*
X0Y231D02*
X7Y231D01*
X685Y231D02*
X692Y231D01*
X0Y230D02*
X7Y230D01*
X685Y230D02*
X692Y230D01*
X0Y229D02*
X7Y229D01*
X685Y229D02*
X692Y229D01*
X0Y228D02*
X7Y228D01*
X685Y228D02*
X692Y228D01*
X0Y227D02*
X7Y227D01*
X685Y227D02*
X692Y227D01*
X0Y226D02*
X7Y226D01*
X685Y226D02*
X692Y226D01*
X0Y225D02*
X7Y225D01*
X685Y225D02*
X692Y225D01*
X0Y224D02*
X7Y224D01*
X685Y224D02*
X692Y224D01*
X0Y223D02*
X7Y223D01*
X685Y223D02*
X692Y223D01*
X0Y222D02*
X7Y222D01*
X685Y222D02*
X692Y222D01*
X0Y221D02*
X7Y221D01*
X685Y221D02*
X692Y221D01*
X0Y220D02*
X7Y220D01*
X685Y220D02*
X692Y220D01*
X0Y219D02*
X7Y219D01*
X685Y219D02*
X692Y219D01*
X0Y218D02*
X7Y218D01*
X685Y218D02*
X692Y218D01*
X0Y217D02*
X7Y217D01*
X685Y217D02*
X692Y217D01*
X0Y216D02*
X7Y216D01*
X685Y216D02*
X692Y216D01*
X0Y215D02*
X7Y215D01*
X685Y215D02*
X692Y215D01*
X0Y214D02*
X7Y214D01*
X685Y214D02*
X692Y214D01*
X0Y213D02*
X7Y213D01*
X685Y213D02*
X692Y213D01*
X0Y212D02*
X7Y212D01*
X685Y212D02*
X692Y212D01*
X0Y211D02*
X7Y211D01*
X685Y211D02*
X692Y211D01*
X0Y210D02*
X7Y210D01*
X685Y210D02*
X692Y210D01*
X0Y209D02*
X7Y209D01*
X685Y209D02*
X692Y209D01*
X0Y208D02*
X7Y208D01*
X685Y208D02*
X692Y208D01*
X0Y207D02*
X7Y207D01*
X685Y207D02*
X692Y207D01*
X0Y206D02*
X7Y206D01*
X685Y206D02*
X692Y206D01*
X0Y205D02*
X7Y205D01*
X685Y205D02*
X692Y205D01*
X0Y204D02*
X7Y204D01*
X685Y204D02*
X692Y204D01*
X0Y203D02*
X7Y203D01*
X685Y203D02*
X692Y203D01*
X0Y202D02*
X7Y202D01*
X685Y202D02*
X692Y202D01*
X0Y201D02*
X7Y201D01*
X685Y201D02*
X692Y201D01*
X0Y200D02*
X7Y200D01*
X685Y200D02*
X692Y200D01*
X0Y199D02*
X7Y199D01*
X685Y199D02*
X692Y199D01*
X0Y198D02*
X7Y198D01*
X685Y198D02*
X692Y198D01*
X0Y197D02*
X7Y197D01*
X685Y197D02*
X692Y197D01*
X0Y196D02*
X7Y196D01*
X685Y196D02*
X692Y196D01*
X0Y195D02*
X7Y195D01*
X685Y195D02*
X692Y195D01*
X0Y194D02*
X7Y194D01*
X685Y194D02*
X692Y194D01*
X0Y193D02*
X7Y193D01*
X685Y193D02*
X692Y193D01*
X0Y192D02*
X7Y192D01*
X685Y192D02*
X692Y192D01*
X0Y191D02*
X7Y191D01*
X685Y191D02*
X692Y191D01*
X0Y190D02*
X7Y190D01*
X685Y190D02*
X692Y190D01*
X0Y189D02*
X7Y189D01*
X685Y189D02*
X692Y189D01*
X0Y188D02*
X7Y188D01*
X685Y188D02*
X692Y188D01*
X0Y187D02*
X7Y187D01*
X685Y187D02*
X692Y187D01*
X0Y186D02*
X7Y186D01*
X685Y186D02*
X692Y186D01*
X0Y185D02*
X7Y185D01*
X685Y185D02*
X692Y185D01*
X0Y184D02*
X7Y184D01*
X685Y184D02*
X692Y184D01*
X0Y183D02*
X7Y183D01*
X685Y183D02*
X692Y183D01*
X0Y182D02*
X7Y182D01*
X685Y182D02*
X692Y182D01*
X0Y181D02*
X7Y181D01*
X685Y181D02*
X692Y181D01*
X0Y180D02*
X7Y180D01*
X685Y180D02*
X692Y180D01*
X0Y179D02*
X7Y179D01*
X685Y179D02*
X692Y179D01*
X0Y178D02*
X7Y178D01*
X685Y178D02*
X692Y178D01*
X0Y177D02*
X7Y177D01*
X685Y177D02*
X692Y177D01*
X0Y176D02*
X7Y176D01*
X685Y176D02*
X692Y176D01*
X0Y175D02*
X7Y175D01*
X685Y175D02*
X692Y175D01*
X0Y174D02*
X7Y174D01*
X685Y174D02*
X692Y174D01*
X0Y173D02*
X7Y173D01*
X685Y173D02*
X692Y173D01*
X0Y172D02*
X7Y172D01*
X685Y172D02*
X692Y172D01*
X0Y171D02*
X7Y171D01*
X685Y171D02*
X692Y171D01*
X0Y170D02*
X7Y170D01*
X685Y170D02*
X692Y170D01*
X0Y169D02*
X7Y169D01*
X685Y169D02*
X692Y169D01*
X0Y168D02*
X7Y168D01*
X685Y168D02*
X692Y168D01*
X0Y167D02*
X7Y167D01*
X685Y167D02*
X692Y167D01*
X0Y166D02*
X7Y166D01*
X685Y166D02*
X692Y166D01*
X0Y165D02*
X7Y165D01*
X685Y165D02*
X692Y165D01*
X0Y164D02*
X7Y164D01*
X685Y164D02*
X692Y164D01*
X0Y163D02*
X7Y163D01*
X685Y163D02*
X692Y163D01*
X0Y162D02*
X7Y162D01*
X685Y162D02*
X692Y162D01*
X0Y161D02*
X7Y161D01*
X685Y161D02*
X692Y161D01*
X0Y160D02*
X7Y160D01*
X685Y160D02*
X692Y160D01*
X0Y159D02*
X7Y159D01*
X685Y159D02*
X692Y159D01*
X0Y158D02*
X7Y158D01*
X685Y158D02*
X692Y158D01*
X0Y157D02*
X7Y157D01*
X685Y157D02*
X692Y157D01*
X0Y156D02*
X7Y156D01*
X685Y156D02*
X692Y156D01*
X0Y155D02*
X7Y155D01*
X685Y155D02*
X692Y155D01*
X0Y154D02*
X7Y154D01*
X685Y154D02*
X692Y154D01*
X0Y153D02*
X7Y153D01*
X685Y153D02*
X692Y153D01*
X0Y152D02*
X7Y152D01*
X685Y152D02*
X692Y152D01*
X0Y151D02*
X7Y151D01*
X685Y151D02*
X692Y151D01*
X0Y150D02*
X7Y150D01*
X685Y150D02*
X692Y150D01*
X0Y149D02*
X7Y149D01*
X685Y149D02*
X692Y149D01*
X0Y148D02*
X7Y148D01*
X685Y148D02*
X692Y148D01*
X0Y147D02*
X7Y147D01*
X685Y147D02*
X692Y147D01*
X0Y146D02*
X7Y146D01*
X685Y146D02*
X692Y146D01*
X0Y145D02*
X7Y145D01*
X685Y145D02*
X692Y145D01*
X0Y144D02*
X7Y144D01*
X685Y144D02*
X692Y144D01*
X0Y143D02*
X7Y143D01*
X685Y143D02*
X692Y143D01*
X0Y142D02*
X7Y142D01*
X685Y142D02*
X692Y142D01*
X0Y141D02*
X7Y141D01*
X685Y141D02*
X692Y141D01*
X0Y140D02*
X7Y140D01*
X685Y140D02*
X692Y140D01*
X0Y139D02*
X7Y139D01*
X685Y139D02*
X692Y139D01*
X0Y138D02*
X7Y138D01*
X685Y138D02*
X692Y138D01*
X0Y137D02*
X7Y137D01*
X685Y137D02*
X692Y137D01*
X0Y136D02*
X7Y136D01*
X685Y136D02*
X692Y136D01*
X0Y135D02*
X7Y135D01*
X685Y135D02*
X692Y135D01*
X0Y134D02*
X7Y134D01*
X685Y134D02*
X692Y134D01*
X0Y133D02*
X7Y133D01*
X685Y133D02*
X692Y133D01*
X0Y132D02*
X7Y132D01*
X685Y132D02*
X692Y132D01*
X0Y131D02*
X7Y131D01*
X685Y131D02*
X692Y131D01*
X0Y130D02*
X7Y130D01*
X685Y130D02*
X692Y130D01*
X0Y129D02*
X7Y129D01*
X685Y129D02*
X692Y129D01*
X0Y128D02*
X7Y128D01*
X685Y128D02*
X692Y128D01*
X0Y127D02*
X7Y127D01*
X685Y127D02*
X692Y127D01*
X0Y126D02*
X7Y126D01*
X685Y126D02*
X692Y126D01*
X0Y125D02*
X7Y125D01*
X685Y125D02*
X692Y125D01*
X0Y124D02*
X7Y124D01*
X685Y124D02*
X692Y124D01*
X0Y123D02*
X7Y123D01*
X685Y123D02*
X692Y123D01*
X0Y122D02*
X7Y122D01*
X685Y122D02*
X692Y122D01*
X0Y121D02*
X7Y121D01*
X685Y121D02*
X692Y121D01*
X0Y120D02*
X7Y120D01*
X685Y120D02*
X692Y120D01*
X0Y119D02*
X7Y119D01*
X685Y119D02*
X692Y119D01*
X0Y118D02*
X7Y118D01*
X685Y118D02*
X692Y118D01*
X0Y117D02*
X7Y117D01*
X685Y117D02*
X692Y117D01*
X0Y116D02*
X7Y116D01*
X685Y116D02*
X692Y116D01*
X0Y115D02*
X7Y115D01*
X685Y115D02*
X692Y115D01*
X0Y114D02*
X7Y114D01*
X685Y114D02*
X692Y114D01*
X0Y113D02*
X7Y113D01*
X685Y113D02*
X692Y113D01*
X0Y112D02*
X7Y112D01*
X685Y112D02*
X692Y112D01*
X0Y111D02*
X7Y111D01*
X685Y111D02*
X692Y111D01*
X0Y110D02*
X7Y110D01*
X685Y110D02*
X692Y110D01*
X0Y109D02*
X7Y109D01*
X685Y109D02*
X692Y109D01*
X0Y108D02*
X7Y108D01*
X685Y108D02*
X692Y108D01*
X0Y107D02*
X7Y107D01*
X685Y107D02*
X692Y107D01*
X0Y106D02*
X7Y106D01*
X685Y106D02*
X692Y106D01*
X0Y105D02*
X7Y105D01*
X685Y105D02*
X692Y105D01*
X0Y104D02*
X7Y104D01*
X685Y104D02*
X692Y104D01*
X0Y103D02*
X7Y103D01*
X685Y103D02*
X692Y103D01*
X0Y102D02*
X7Y102D01*
X685Y102D02*
X692Y102D01*
X0Y101D02*
X7Y101D01*
X685Y101D02*
X692Y101D01*
X0Y100D02*
X7Y100D01*
X685Y100D02*
X692Y100D01*
X0Y99D02*
X7Y99D01*
X685Y99D02*
X692Y99D01*
X0Y98D02*
X7Y98D01*
X685Y98D02*
X692Y98D01*
X0Y97D02*
X7Y97D01*
X685Y97D02*
X692Y97D01*
X0Y96D02*
X7Y96D01*
X685Y96D02*
X692Y96D01*
X0Y95D02*
X7Y95D01*
X685Y95D02*
X692Y95D01*
X0Y94D02*
X7Y94D01*
X685Y94D02*
X692Y94D01*
X0Y93D02*
X7Y93D01*
X685Y93D02*
X692Y93D01*
X0Y92D02*
X7Y92D01*
X685Y92D02*
X692Y92D01*
X0Y91D02*
X7Y91D01*
X685Y91D02*
X692Y91D01*
X0Y90D02*
X7Y90D01*
X685Y90D02*
X692Y90D01*
X0Y89D02*
X7Y89D01*
X685Y89D02*
X692Y89D01*
X0Y88D02*
X7Y88D01*
X685Y88D02*
X692Y88D01*
X0Y87D02*
X7Y87D01*
X685Y87D02*
X692Y87D01*
X0Y86D02*
X7Y86D01*
X685Y86D02*
X692Y86D01*
X0Y85D02*
X7Y85D01*
X685Y85D02*
X692Y85D01*
X0Y84D02*
X7Y84D01*
X685Y84D02*
X692Y84D01*
X0Y83D02*
X7Y83D01*
X685Y83D02*
X692Y83D01*
X0Y82D02*
X7Y82D01*
X685Y82D02*
X692Y82D01*
X0Y81D02*
X7Y81D01*
X685Y81D02*
X692Y81D01*
X0Y80D02*
X7Y80D01*
X685Y80D02*
X692Y80D01*
X0Y79D02*
X7Y79D01*
X685Y79D02*
X692Y79D01*
X0Y78D02*
X7Y78D01*
X685Y78D02*
X692Y78D01*
X0Y77D02*
X7Y77D01*
X685Y77D02*
X692Y77D01*
X0Y76D02*
X7Y76D01*
X685Y76D02*
X692Y76D01*
X0Y75D02*
X7Y75D01*
X685Y75D02*
X692Y75D01*
X0Y74D02*
X7Y74D01*
X685Y74D02*
X692Y74D01*
X0Y73D02*
X7Y73D01*
X685Y73D02*
X692Y73D01*
X0Y72D02*
X7Y72D01*
X685Y72D02*
X692Y72D01*
X0Y71D02*
X7Y71D01*
X685Y71D02*
X692Y71D01*
X0Y70D02*
X7Y70D01*
X685Y70D02*
X692Y70D01*
X0Y69D02*
X7Y69D01*
X685Y69D02*
X692Y69D01*
X0Y68D02*
X7Y68D01*
X685Y68D02*
X692Y68D01*
X0Y67D02*
X7Y67D01*
X685Y67D02*
X692Y67D01*
X0Y66D02*
X7Y66D01*
X685Y66D02*
X692Y66D01*
X0Y65D02*
X7Y65D01*
X685Y65D02*
X692Y65D01*
X0Y64D02*
X7Y64D01*
X685Y64D02*
X692Y64D01*
X0Y63D02*
X7Y63D01*
X685Y63D02*
X692Y63D01*
X0Y62D02*
X7Y62D01*
X685Y62D02*
X692Y62D01*
X0Y61D02*
X7Y61D01*
X685Y61D02*
X692Y61D01*
X0Y60D02*
X7Y60D01*
X685Y60D02*
X692Y60D01*
X0Y59D02*
X7Y59D01*
X685Y59D02*
X692Y59D01*
X0Y58D02*
X7Y58D01*
X685Y58D02*
X692Y58D01*
X0Y57D02*
X7Y57D01*
X685Y57D02*
X692Y57D01*
X0Y56D02*
X7Y56D01*
X685Y56D02*
X692Y56D01*
X0Y55D02*
X7Y55D01*
X350Y55D02*
X350Y55D01*
X685Y55D02*
X692Y55D01*
X0Y54D02*
X7Y54D01*
X349Y54D02*
X351Y54D01*
X685Y54D02*
X692Y54D01*
X0Y53D02*
X7Y53D01*
X348Y53D02*
X352Y53D01*
X685Y53D02*
X692Y53D01*
X0Y52D02*
X7Y52D01*
X347Y52D02*
X353Y52D01*
X685Y52D02*
X692Y52D01*
X0Y51D02*
X7Y51D01*
X346Y51D02*
X352Y51D01*
X685Y51D02*
X692Y51D01*
X0Y50D02*
X7Y50D01*
X345Y50D02*
X351Y50D01*
X685Y50D02*
X692Y50D01*
X0Y49D02*
X7Y49D01*
X344Y49D02*
X350Y49D01*
X685Y49D02*
X692Y49D01*
X0Y48D02*
X7Y48D01*
X343Y48D02*
X349Y48D01*
X685Y48D02*
X692Y48D01*
X0Y47D02*
X7Y47D01*
X342Y47D02*
X348Y47D01*
X685Y47D02*
X692Y47D01*
X0Y46D02*
X7Y46D01*
X341Y46D02*
X347Y46D01*
X685Y46D02*
X692Y46D01*
X0Y45D02*
X7Y45D01*
X340Y45D02*
X346Y45D01*
X685Y45D02*
X692Y45D01*
X0Y44D02*
X7Y44D01*
X339Y44D02*
X345Y44D01*
X685Y44D02*
X692Y44D01*
X0Y43D02*
X7Y43D01*
X338Y43D02*
X344Y43D01*
X685Y43D02*
X692Y43D01*
X0Y42D02*
X7Y42D01*
X337Y42D02*
X343Y42D01*
X685Y42D02*
X692Y42D01*
X0Y41D02*
X7Y41D01*
X336Y41D02*
X342Y41D01*
X685Y41D02*
X692Y41D01*
X0Y40D02*
X7Y40D01*
X335Y40D02*
X341Y40D01*
X685Y40D02*
X692Y40D01*
X0Y39D02*
X7Y39D01*
X335Y39D02*
X340Y39D01*
X685Y39D02*
X692Y39D01*
X0Y38D02*
X7Y38D01*
X334Y38D02*
X339Y38D01*
X685Y38D02*
X692Y38D01*
X0Y37D02*
X7Y37D01*
X333Y37D02*
X338Y37D01*
X685Y37D02*
X692Y37D01*
X0Y36D02*
X7Y36D01*
X331Y36D02*
X337Y36D01*
X685Y36D02*
X692Y36D01*
X0Y35D02*
X7Y35D01*
X330Y35D02*
X336Y35D01*
X685Y35D02*
X692Y35D01*
X0Y34D02*
X7Y34D01*
X329Y34D02*
X335Y34D01*
X685Y34D02*
X692Y34D01*
X0Y33D02*
X7Y33D01*
X328Y33D02*
X334Y33D01*
X685Y33D02*
X692Y33D01*
X0Y32D02*
X7Y32D01*
X327Y32D02*
X333Y32D01*
X685Y32D02*
X692Y32D01*
X0Y31D02*
X7Y31D01*
X326Y31D02*
X332Y31D01*
X685Y31D02*
X692Y31D01*
X0Y30D02*
X7Y30D01*
X325Y30D02*
X331Y30D01*
X685Y30D02*
X692Y30D01*
X0Y29D02*
X7Y29D01*
X324Y29D02*
X330Y29D01*
X685Y29D02*
X692Y29D01*
X0Y28D02*
X7Y28D01*
X323Y28D02*
X329Y28D01*
X685Y28D02*
X692Y28D01*
X0Y27D02*
X7Y27D01*
X322Y27D02*
X328Y27D01*
X685Y27D02*
X692Y27D01*
X0Y26D02*
X7Y26D01*
X321Y26D02*
X327Y26D01*
X685Y26D02*
X692Y26D01*
X0Y25D02*
X7Y25D01*
X320Y25D02*
X326Y25D01*
X685Y25D02*
X692Y25D01*
X0Y24D02*
X7Y24D01*
X319Y24D02*
X325Y24D01*
X685Y24D02*
X692Y24D01*
X0Y23D02*
X7Y23D01*
X318Y23D02*
X324Y23D01*
X685Y23D02*
X692Y23D01*
X0Y22D02*
X7Y22D01*
X317Y22D02*
X323Y22D01*
X685Y22D02*
X692Y22D01*
X0Y21D02*
X7Y21D01*
X316Y21D02*
X322Y21D01*
X685Y21D02*
X692Y21D01*
X0Y20D02*
X7Y20D01*
X316Y20D02*
X321Y20D01*
X685Y20D02*
X692Y20D01*
X0Y19D02*
X7Y19D01*
X317Y19D02*
X320Y19D01*
X685Y19D02*
X692Y19D01*
X0Y18D02*
X7Y18D01*
X318Y18D02*
X319Y18D01*
X685Y18D02*
X692Y18D01*
X0Y17D02*
X7Y17D01*
X685Y17D02*
X692Y17D01*
X0Y16D02*
X7Y16D01*
X685Y16D02*
X692Y16D01*
X0Y15D02*
X7Y15D01*
X685Y15D02*
X692Y15D01*
X0Y14D02*
X7Y14D01*
X685Y14D02*
X692Y14D01*
X0Y13D02*
X7Y13D01*
X685Y13D02*
X692Y13D01*
X0Y12D02*
X7Y12D01*
X685Y12D02*
X692Y12D01*
X0Y11D02*
X7Y11D01*
X685Y11D02*
X692Y11D01*
X0Y10D02*
X7Y10D01*
X685Y10D02*
X692Y10D01*
X0Y9D02*
X7Y9D01*
X685Y9D02*
X692Y9D01*
X0Y8D02*
X692Y8D01*
X0Y7D02*
X692Y7D01*
X0Y6D02*
X692Y6D01*
X0Y5D02*
X692Y5D01*
X0Y4D02*
X692Y4D01*
X0Y3D02*
X692Y3D01*
X0Y2D02*
X692Y2D01*
X0Y1D02*
X692Y1D01*
D02*
G04 End of Silk1*
M02*